<svg width="17" height="17" viewBox="0 0 17 17" fill="none" xmlns="http://www.w3.org/2000/svg">
<path d="M9.91675 12.7507V4.25065C9.91675 3.87493 9.76749 3.51459 9.50182 3.24892C9.23614 2.98324 8.8758 2.83398 8.50008 2.83398H2.83341C2.45769 2.83398 2.09736 2.98324 1.83168 3.24892C1.566 3.51459 1.41675 3.87493 1.41675 4.25065V12.0423C1.41675 12.2302 1.49138 12.4103 1.62421 12.5432C1.75705 12.676 1.93722 12.7507 2.12508 12.7507H3.54175" stroke="#29A91D" stroke-linecap="round" stroke-linejoin="round"/>
<path d="M10.625 12.75H6.375" stroke="#29A91D" stroke-linecap="round" stroke-linejoin="round"/>
<path d="M13.4584 12.7493H14.8751C15.0629 12.7493 15.2431 12.6747 15.3759 12.5419C15.5088 12.409 15.5834 12.2289 15.5834 12.041V9.4556C15.5831 9.29485 15.5282 9.13898 15.4276 9.0136L12.9626 5.93235C12.8963 5.84939 12.8123 5.78238 12.7167 5.73628C12.621 5.69018 12.5162 5.66617 12.4101 5.66602H9.91675" stroke="#29A91D" stroke-linecap="round" stroke-linejoin="round"/>
<path d="M12.0417 14.1673C12.8241 14.1673 13.4583 13.5331 13.4583 12.7507C13.4583 11.9682 12.8241 11.334 12.0417 11.334C11.2593 11.334 10.625 11.9682 10.625 12.7507C10.625 13.5331 11.2593 14.1673 12.0417 14.1673Z" stroke="#29A91D" stroke-linecap="round" stroke-linejoin="round"/>
<path d="M4.95841 14.1673C5.74082 14.1673 6.37508 13.5331 6.37508 12.7507C6.37508 11.9682 5.74082 11.334 4.95841 11.334C4.17601 11.334 3.54175 11.9682 3.54175 12.7507C3.54175 13.5331 4.17601 14.1673 4.95841 14.1673Z" stroke="#29A91D" stroke-linecap="round" stroke-linejoin="round"/>
</svg>
