<svg width="12" height="14" viewBox="0 0 12 14" fill="none" xmlns="http://www.w3.org/2000/svg">
<path d="M1.01561 11.4375C1.01561 11.7141 1.23905 11.9375 1.51561 11.9375H10.4844C10.7609 11.9375 10.9844 11.7141 10.9844 11.4375V7.79688C10.9844 5.04375 8.75311 2.8125 5.99998 2.8125C3.24686 2.8125 1.01561 5.04375 1.01561 7.79688V11.4375ZM2.14061 7.79688C2.14061 5.66563 3.86873 3.9375 5.99998 3.9375C8.13124 3.9375 9.85936 5.66563 9.85936 7.79688V10.8125H4.31248V8.14062C4.31248 8.05469 4.24217 7.98438 4.15623 7.98438H3.46873C3.3828 7.98438 3.31248 8.05469 3.31248 8.14062V10.8125H2.14061V7.79688ZM1.38905 3.85156L2.0078 3.23281C2.05623 3.18437 2.05623 3.10469 2.0078 3.05625L0.94686 1.99531C0.923366 1.97205 0.89164 1.959 0.858578 1.959C0.825516 1.959 0.79379 1.97205 0.770297 1.99531L0.151547 2.61406C0.128284 2.63756 0.115234 2.66928 0.115234 2.70234C0.115234 2.73541 0.128284 2.76713 0.151547 2.79063L1.21248 3.85156C1.26092 3.9 1.33905 3.9 1.38905 3.85156ZM11.8515 2.61406L11.2328 1.99531C11.2093 1.97205 11.1776 1.959 11.1445 1.959C11.1115 1.959 11.0797 1.97205 11.0562 1.99531L9.9953 3.05625C9.97203 3.07974 9.95898 3.11147 9.95898 3.14453C9.95898 3.17759 9.97203 3.20932 9.9953 3.23281L10.614 3.85156C10.6625 3.9 10.7422 3.9 10.7906 3.85156L11.8515 2.79063C11.9 2.74063 11.9 2.6625 11.8515 2.61406ZM11 12.9375H0.999985C0.723422 12.9375 0.499985 13.1609 0.499985 13.4375V13.8125C0.499985 13.8813 0.556235 13.9375 0.624985 13.9375H11.375C11.4437 13.9375 11.5 13.8813 11.5 13.8125V13.4375C11.5 13.1609 11.2765 12.9375 11 12.9375ZM5.56248 1.8125H6.43748C6.50623 1.8125 6.56248 1.75625 6.56248 1.6875V0.1875C6.56248 0.11875 6.50623 0.0625 6.43748 0.0625H5.56248C5.49373 0.0625 5.43748 0.11875 5.43748 0.1875V1.6875C5.43748 1.75625 5.49373 1.8125 5.56248 1.8125Z" fill="#E96666"/>
</svg>
