<svg width="15" height="15" viewBox="0 0 15 15" fill="none" xmlns="http://www.w3.org/2000/svg">
<g clip-path="url(#clip0_730_8114)">
<path d="M1.79688 6.67839C1.79688 4.47864 1.79687 3.37847 2.48054 2.69539C3.16421 2.0123 4.26379 2.01172 6.46354 2.01172H7.63021C9.82996 2.01172 10.9301 2.01172 11.6132 2.69539C12.2963 3.37905 12.2969 4.47864 12.2969 6.67839V9.01172C12.2969 11.2115 12.2969 12.3116 11.6132 12.9947C10.9295 13.6778 9.82996 13.6784 7.63021 13.6784H6.46354C4.26379 13.6784 3.16362 13.6784 2.48054 12.9947C1.79746 12.3111 1.79688 11.2115 1.79688 9.01172V6.67839Z" stroke="#68CFF7" stroke-width="0.875"/>
<path d="M4.71289 6.67773H9.37956M4.71289 9.01107H7.62956" stroke="#68CFF7" stroke-width="0.875" stroke-linecap="round"/>
</g>
<defs>
<clipPath id="clip0_730_8114">
<rect width="14" height="14" fill="white" transform="translate(0.046875 0.845703)"/>
</clipPath>
</defs>
</svg>
