<svg width="20" height="20" viewBox="0 0 20 20" fill="none" xmlns="http://www.w3.org/2000/svg">
<path fill-rule="evenodd" clip-rule="evenodd" d="M14.1855 5.69466C13.861 5.69466 13.5918 5.42549 13.5918 5.10091V4.13191C12.979 4.11133 12.2594 4.11133 11.4147 4.11133H9.83138C8.98588 4.11133 8.26705 4.11133 7.6543 4.13191V5.10091C7.6543 5.42549 7.38513 5.69466 7.06055 5.69466C6.73596 5.69466 6.4668 5.42549 6.4668 5.10091V4.21741C5.71867 4.31479 5.20488 4.50241 4.84388 4.86341C4.3673 5.33999 4.19313 6.08258 4.12901 7.27799H17.1171C17.053 6.08258 16.878 5.33999 16.4022 4.86341C16.0412 4.50241 15.5274 4.31479 14.7793 4.21741V5.10091C14.7793 5.42549 14.5101 5.69466 14.1855 5.69466ZM17.1495 8.4655C17.1538 8.88402 17.1554 9.34583 17.1543 9.85091V10.6426C17.1543 10.9672 17.4235 11.2363 17.748 11.2363C18.0726 11.2363 18.3418 10.9672 18.3418 10.6426V9.85091C18.3418 6.70008 18.3418 5.12466 17.2414 4.02424C16.6302 3.41308 15.8718 3.14154 14.7793 3.02041V2.33008C14.7793 2.00549 14.5101 1.73633 14.1855 1.73633C13.861 1.73633 13.5918 2.00549 13.5918 2.33008V2.94362C12.9616 2.92383 12.242 2.92383 11.4147 2.92383H9.83138C9.0033 2.92383 8.28446 2.92383 7.6543 2.94362V2.33008C7.6543 2.00549 7.38513 1.73633 7.06055 1.73633C6.73596 1.73633 6.4668 2.00549 6.4668 2.33008V3.02041C5.3743 3.14154 4.61588 3.41308 4.00471 4.02424C2.9043 5.12466 2.9043 6.70799 2.9043 9.85091V11.4342C2.9043 14.5851 2.9043 16.1605 4.00471 17.2609C5.10513 18.3613 6.68055 18.3613 9.83138 18.3613C10.156 18.3613 10.4251 18.0922 10.4251 17.7676C10.4251 17.443 10.156 17.1738 9.83138 17.1738C7.01305 17.1738 5.59596 17.1738 4.84388 16.4217C4.0918 15.6697 4.0918 14.2526 4.0918 11.4342V9.85091C4.09127 9.34636 4.09259 8.88455 4.09576 8.4655H17.1495ZM14.5814 18.7572C12.5072 18.7572 10.821 17.0709 10.821 14.9967C10.821 12.9226 12.5072 11.2363 14.5814 11.2363C16.6555 11.2363 18.3418 12.9226 18.3418 14.9967C18.3418 17.0709 16.6555 18.7572 14.5814 18.7572ZM14.5814 12.4238C13.1643 12.4238 12.0085 13.5797 12.0085 14.9967C12.0085 16.4138 13.1643 17.5697 14.5814 17.5697C15.9985 17.5697 17.1543 16.4138 17.1543 14.9967C17.1543 13.5797 15.9985 12.4238 14.5814 12.4238ZM14.9535 16.208C15.0722 16.3267 15.2226 16.3822 15.373 16.3822C15.5235 16.3822 15.6739 16.3267 15.7926 16.208C16.0222 15.9784 16.0222 15.5984 15.7926 15.3688L15.1751 14.7513V13.4134C15.1751 13.0888 14.906 12.8197 14.5814 12.8197C14.2568 12.8197 13.9876 13.0888 13.9876 13.4134V14.9967C13.9876 15.1551 14.051 15.3055 14.1618 15.4163L14.9535 16.208Z" fill="#68CFF7"/>
</svg>
