<svg width="17" height="18" viewBox="0 0 17 18" fill="none" xmlns="http://www.w3.org/2000/svg">
<path d="M9.91602 12.9948V4.49479C9.91602 4.11907 9.76676 3.75873 9.50108 3.49306C9.23541 3.22738 8.87507 3.07813 8.49935 3.07812H2.83268C2.45696 3.07813 2.09662 3.22738 1.83095 3.49306C1.56527 3.75873 1.41602 4.11907 1.41602 4.49479V12.2865C1.41602 12.4743 1.49064 12.6545 1.62348 12.7873C1.75632 12.9202 1.93649 12.9948 2.12435 12.9948H3.54102" stroke="#68CFF7" stroke-linecap="round" stroke-linejoin="round"/>
<path d="M10.625 12.9922H6.375" stroke="#68CFF7" stroke-linecap="round" stroke-linejoin="round"/>
<path d="M13.4577 12.9896H14.8743C15.0622 12.9896 15.2424 12.915 15.3752 12.7821C15.5081 12.6493 15.5827 12.4691 15.5827 12.2812V9.69583C15.5824 9.53509 15.5274 9.37922 15.4268 9.25383L12.9618 6.17258C12.8956 6.08962 12.8116 6.02262 12.7159 5.97652C12.6203 5.93042 12.5155 5.9064 12.4093 5.90625H9.91602" stroke="#68CFF7" stroke-linecap="round" stroke-linejoin="round"/>
<path d="M12.0417 14.4115C12.8241 14.4115 13.4583 13.7772 13.4583 12.9948C13.4583 12.2124 12.8241 11.5781 12.0417 11.5781C11.2593 11.5781 10.625 12.2124 10.625 12.9948C10.625 13.7772 11.2593 14.4115 12.0417 14.4115Z" stroke="#68CFF7" stroke-linecap="round" stroke-linejoin="round"/>
<path d="M4.95768 14.4115C5.74009 14.4115 6.37435 13.7772 6.37435 12.9948C6.37435 12.2124 5.74009 11.5781 4.95768 11.5781C4.17528 11.5781 3.54102 12.2124 3.54102 12.9948C3.54102 13.7772 4.17528 14.4115 4.95768 14.4115Z" stroke="#68CFF7" stroke-linecap="round" stroke-linejoin="round"/>
</svg>
