<svg width="22" height="16" viewBox="0 0 22 16" fill="none" xmlns="http://www.w3.org/2000/svg">
<path d="M20.7256 7.27156C21.0296 7.69756 21.1816 7.91156 21.1816 8.22656C21.1816 8.54256 21.0296 8.75556 20.7256 9.18156C19.3596 11.0976 15.8706 15.2266 11.1816 15.2266C6.49164 15.2266 3.00364 11.0966 1.63764 9.18156C1.33364 8.75556 1.18164 8.54156 1.18164 8.22656C1.18164 7.91056 1.33364 7.69756 1.63764 7.27156C3.00364 5.35556 6.49264 1.22656 11.1816 1.22656C15.8716 1.22656 19.3596 5.35656 20.7256 7.27156Z" stroke="white" stroke-width="1.5" stroke-linecap="round" stroke-linejoin="round"/>
<path d="M14.1816 8.22656C14.1816 7.43091 13.8656 6.66785 13.303 6.10524C12.7404 5.54263 11.9773 5.22656 11.1816 5.22656C10.386 5.22656 9.62293 5.54263 9.06032 6.10524C8.49771 6.66785 8.18164 7.43091 8.18164 8.22656C8.18164 9.02221 8.49771 9.78527 9.06032 10.3479C9.62293 10.9105 10.386 11.2266 11.1816 11.2266C11.9773 11.2266 12.7404 10.9105 13.303 10.3479C13.8656 9.78527 14.1816 9.02221 14.1816 8.22656Z" stroke="white" stroke-width="1.5" stroke-linecap="round" stroke-linejoin="round"/>
</svg>
