<svg width="21" height="21" viewBox="0 0 21 21" fill="none" xmlns="http://www.w3.org/2000/svg">
<path d="M13.7931 17.5363L14.448 18.6729L16.4023 17.5429V19.6875H17.7128V17.5429L19.6882 18.6847L20.3438 17.5481L18.3684 16.4062L20.3372 15.2677L19.6823 14.1304L17.7128 15.2696V13.125H16.4023V15.269L14.4362 14.1323L13.7812 15.2696L15.7467 16.4062L13.7931 17.5363ZM10.5 15.0938C10.2389 15.0938 9.98855 15.1975 9.80394 15.3821C9.61934 15.5667 9.51563 15.8171 9.51562 16.0781C9.51563 16.3392 9.61934 16.5896 9.80394 16.7742C9.98855 16.9588 10.2389 17.0625 10.5 17.0625C10.7611 17.0625 11.0115 16.9588 11.1961 16.7742C11.3807 16.5896 11.4844 16.3392 11.4844 16.0781C11.4844 15.8171 11.3807 15.5667 11.1961 15.3821C11.0115 15.1975 10.7611 15.0938 10.5 15.0938ZM9.84375 7.875H11.1562V13.7812H9.84375V7.875Z" fill="#68CFF7"/>
<path d="M11.8122 19.6875H1.96849C1.85579 19.6875 1.745 19.6584 1.64679 19.6031C1.54859 19.5478 1.46628 19.4682 1.40779 19.3718C1.3493 19.2755 1.31661 19.1657 1.31286 19.0531C1.30912 18.9404 1.33444 18.8287 1.38639 18.7287L9.91764 2.32247C10.0305 2.10525 10.2655 1.96875 10.4997 1.96875C10.734 1.96875 10.969 2.10525 11.0818 2.32247L15.5181 10.8537L14.3539 11.4588L10.4997 4.04775L3.04933 18.375H11.8122V19.6875Z" fill="#68CFF7"/>
</svg>
