<svg width="21" height="21" viewBox="0 0 21 21" fill="none" xmlns="http://www.w3.org/2000/svg">
    <path
        d="M10.6237 2.62027C13.2443 2.62027 13.5551 2.63008 14.5906 2.67751C17.2505 2.79853 18.4929 4.06025 18.6139 6.69981C18.6614 7.73421 18.6704 8.04494 18.6704 10.6649C18.6704 13.2856 18.6606 13.5955 18.6139 14.6299C18.4921 17.2671 17.2529 18.5312 14.5906 18.6523C13.5551 18.6997 13.246 18.7095 10.6237 18.7095C8.00311 18.7095 7.6923 18.6997 6.65764 18.6523C3.99123 18.5304 2.75536 17.263 2.63431 14.6291C2.58687 13.5947 2.57705 13.2848 2.57705 10.6641C2.57705 8.04412 2.58768 7.73421 2.63431 6.69899C2.75618 4.06025 3.99532 2.79771 6.65764 2.67669C7.69312 2.63008 8.00311 2.62027 10.6237 2.62027ZM10.6237 0.851563C7.95813 0.851563 7.62441 0.86301 6.57748 0.910437C3.013 1.07398 1.03201 3.0512 0.868424 6.61804C0.820167 7.66553 0.808716 7.99915 0.808716 10.6641C0.808716 13.329 0.820167 13.6634 0.867606 14.7101C1.03119 18.2737 3.00891 20.2541 6.57666 20.4177C7.62442 20.4651 7.95813 20.4766 10.6237 20.4766C13.2893 20.4766 13.6238 20.4651 14.6708 20.4177C18.232 20.2541 20.2179 18.2769 20.379 14.7101C20.4273 13.6634 20.4387 13.329 20.4387 10.6641C20.4387 7.99915 20.4273 7.66553 20.3798 6.61886C20.2195 3.05856 18.2393 1.0748 14.6716 0.911255C13.6238 0.86301 13.2893 0.851563 10.6237 0.851563ZM10.6237 5.62534C7.84034 5.62534 5.58371 7.8814 5.58371 10.6641C5.58371 13.4467 7.84034 15.7036 10.6237 15.7036C13.4071 15.7036 15.6637 13.4475 15.6637 10.6641C15.6637 7.8814 13.4071 5.62534 10.6237 5.62534ZM10.6237 13.9349C8.81694 13.9349 7.35205 12.4712 7.35205 10.6641C7.35205 8.85774 8.81694 7.39323 10.6237 7.39323C12.4305 7.39323 13.8954 8.85774 13.8954 10.6641C13.8954 12.4712 12.4305 13.9349 10.6237 13.9349ZM15.8633 4.24914C15.2122 4.24914 14.6847 4.77656 14.6847 5.42664C14.6847 6.07672 15.2122 6.60414 15.8633 6.60414C16.5135 6.60414 17.0403 6.07672 17.0403 5.42664C17.0403 4.77656 16.5135 4.24914 15.8633 4.24914Z"
        fill="url(#paint0_linear_540_186951)" />
    <defs>
        <linearGradient id="paint0_linear_540_186951" x1="0.808716" y1="10.6641" x2="20.4387" y2="10.6641"
            gradientUnits="userSpaceOnUse">
            <stop stop-color="#9945FF" />
            <stop offset="1" stop-color="#14F195" />
        </linearGradient>
    </defs>
</svg>