<svg width="48" height="56" viewBox="0 0 48 56" fill="none" xmlns="http://www.w3.org/2000/svg">
<path d="M35.4039 28.7109C34.6155 25.9341 33.1721 23.4705 31.2765 21.4532V13.3143C31.2765 6.13778 25.4448 0.300293 18.2683 0.300293C11.0917 0.300293 5.25422 6.13767 5.25422 13.3143V21.4532C2.28621 24.6357 0.460205 28.9022 0.460205 33.592C0.460205 43.4119 8.44833 51.4 18.2683 51.4C19.7059 51.4 21.1262 51.2261 22.4884 50.8899C22.7956 50.8145 22.9869 50.4957 22.9057 50.1885C22.8304 49.8755 22.5173 49.69 22.2044 49.7654C20.9349 50.0784 19.6131 50.2407 18.2683 50.2407C9.09181 50.2407 1.61958 42.7743 1.61958 33.5921C1.61958 24.4097 9.09181 16.9433 18.2683 16.9433C25.6767 16.9433 32.2678 21.9112 34.2851 29.0241C34.3721 29.3313 34.6967 29.511 35.004 29.4241C35.3111 29.337 35.4908 29.0182 35.4039 28.7109ZM25.6534 17.4128C23.381 16.3693 20.8768 15.7838 18.2681 15.7838C15.6363 15.7838 13.1379 16.3635 10.8829 17.3954V13.3143C10.8829 9.23916 14.1988 5.92904 18.2681 5.92904C22.3434 5.92904 25.6534 9.23905 25.6534 13.3143V17.4128Z" fill="black"/>
<path d="M30.2449 29.7726C30.342 30.0783 30.668 30.2469 30.9729 30.1496C31.278 30.0528 31.4467 29.7267 31.3499 29.4217C29.5338 23.7052 24.2776 19.8641 18.2703 19.8641C10.7012 19.8641 4.54346 26.0223 4.54346 33.5916C4.54346 41.1604 10.7012 47.3184 18.2703 47.3184C19.2098 47.3184 20.1617 47.221 21.0997 47.0285C21.4133 46.9645 21.6154 46.6577 21.5512 46.3441C21.4872 46.031 21.1798 45.829 20.8671 45.8929C20.0055 46.0696 19.1317 46.1589 18.2703 46.1589C11.3406 46.1589 5.70283 40.5211 5.70283 33.5914C5.70283 26.6612 11.3407 21.0234 18.2703 21.0234C23.7704 21.0235 28.5825 24.5396 30.2449 29.7726Z" fill="black"/>
<path d="M20.6681 33.6499V38.6816C20.6681 40.0033 19.5899 41.0815 18.2682 41.0815C16.9465 41.0815 15.8683 40.0033 15.8683 38.6816V33.6499C14.7785 32.8847 14.1177 31.6152 14.1177 30.2645C14.1177 27.6269 16.5176 25.6444 19.1552 26.2009C20.7377 26.5314 22.0189 27.8183 22.3377 29.4066C22.668 31.053 22.0014 32.7109 20.6681 33.6499Z" fill="black"/>
<path d="M35.398 31.1747C28.5693 31.1747 23.01 36.734 23.01 43.5627C23.01 50.3915 28.5693 55.9508 35.398 55.9508C42.2326 55.9508 47.7919 50.3915 47.7919 43.5627C47.7919 36.734 42.2326 31.1747 35.398 31.1747ZM35.398 54.7913C29.207 54.7913 24.1694 49.7538 24.1694 43.5626C24.1694 37.3715 29.2069 32.3339 35.398 32.3339C41.5949 32.3339 46.6325 37.3714 46.6325 43.5626C46.6325 49.7538 41.5949 54.7913 35.398 54.7913Z" fill="black"/>
<path d="M30.9853 41.7934C31.3055 41.7934 31.565 41.5341 31.565 41.2137V40.133C31.565 38.1754 33.158 36.5825 35.1159 36.5825H35.6877C37.6456 36.5825 39.2386 38.1754 39.2386 40.133C39.2386 42.0912 37.6456 43.6842 35.6877 43.6842H35.4018C35.0816 43.6842 34.8221 43.9435 34.8221 44.2639V47.8224C34.8221 48.1428 35.0816 48.4021 35.4018 48.4021C35.722 48.4021 35.9815 48.1428 35.9815 47.8224V44.8344C38.4426 44.6821 40.398 42.6317 40.398 40.1329C40.398 37.5356 38.285 35.423 35.6877 35.423H35.1159C32.5186 35.423 30.4056 37.5356 30.4056 40.1329V41.2136C30.4056 41.5341 30.6653 41.7934 30.9853 41.7934Z" fill="black"/>
<path d="M35.4018 50.0675C35.0816 50.0675 34.8221 50.3268 34.8221 50.6472V51.1199C34.8221 51.4403 35.0816 51.6996 35.4018 51.6996C35.722 51.6996 35.9815 51.4403 35.9815 51.1199V50.6472C35.9815 50.3268 35.722 50.0675 35.4018 50.0675Z" fill="black"/>
</svg>
