<svg width="20" height="18" viewBox="0 0 20 18" fill="none" xmlns="http://www.w3.org/2000/svg">
    <path
        d="M0.400391 0.399902C0.267782 0.399902 0.140605 0.452581 0.0468372 0.546349C-0.046931 0.640117 -0.0996094 0.767294 -0.0996094 0.899902V15.0999C-0.0996094 15.2325 -0.046931 15.3597 0.0468372 15.4535C0.140605 15.5472 0.267782 15.5999 0.400391 15.5999H12.9095C13.2653 15.5999 13.4674 15.1928 13.2516 14.9099C12.9037 14.3966 12.1013 14.1405 11.492 14.2553C10.5125 14.4397 9.48559 14.3755 8.53979 14.0597C8.48637 14.0424 8.42781 14.0532 8.39094 14.0956C8.35105 14.1414 8.31176 14.1929 8.27578 14.2463C8.14985 14.4335 7.94693 14.5999 7.72138 14.5999H7.3714C6.79237 14.5999 6.20552 14.0242 6.20951 13.4452C6.21085 13.2518 6.23584 13.0664 6.31755 12.9062C6.33008 12.8816 6.34825 12.8685 6.36638 12.8477C6.39267 12.8176 6.38254 12.7666 6.35326 12.7393C6.35254 12.7387 6.35182 12.738 6.3511 12.7373C6.32202 12.7102 6.28039 12.6995 6.24354 12.7144C6.12585 12.7619 6.04021 12.8335 5.96616 12.9145C5.82286 13.0714 5.80855 13.343 5.63618 13.4672C5.58961 13.5007 5.53561 13.5293 5.48399 13.5601C5.25096 13.6991 5.4572 14.0939 5.18769 14.0626C5.0061 14.0415 4.75984 13.9913 4.64359 14.0039C4.38876 14.0066 3.6541 13.7458 3.86911 14.2561C3.87878 14.279 3.88118 14.3051 3.87637 14.3295C3.85921 14.4167 3.87016 14.4828 3.89988 14.5336C3.91471 14.559 3.89881 14.5999 3.86941 14.5999C3.85349 14.5999 3.84052 14.5876 3.8357 14.5725C3.79695 14.4507 3.59282 14.4092 3.45239 14.3549C3.39293 14.3319 3.33435 14.3047 3.27193 14.2917C3.26295 14.2899 3.25392 14.288 3.24484 14.2862C2.9318 14.223 2.44987 14.3245 2.17009 14.4784C2.03412 14.5533 1.90164 14.5999 1.74644 14.5999H1.65528C1.23836 14.5999 0.900391 14.2619 0.900391 13.845V7.82585C0.900391 7.59873 1.18849 7.26648 0.986721 7.16221C0.970434 7.15379 0.952865 7.14507 0.933945 7.13606C0.930825 7.13457 0.927198 7.1337 0.923741 7.1337C0.910845 7.1337 0.900391 7.12325 0.900391 7.11035V4.88898C0.900391 4.85336 0.938946 4.81048 0.972977 4.79995C1.03667 4.78024 1.11875 4.81603 1.16436 4.7674C1.30586 4.61655 1.41963 4.33264 1.6704 4.40537C1.73664 4.42459 1.80217 4.45017 1.8659 4.47654C1.8785 4.48175 1.89122 4.48751 1.904 4.49375C2.19076 4.6338 2.36861 5.03895 2.55963 5.29459C2.62291 5.37928 2.65632 5.55828 2.65154 5.6639C2.63587 6.01005 2.80802 6.3049 3.00089 6.5672C3.20844 6.84946 3.4825 7.09179 3.74259 7.32652C3.8753 7.44629 4.02976 7.55405 4.26914 7.5768C4.30929 7.58062 4.34468 7.59299 4.37668 7.61755C4.47479 7.69286 4.61587 7.62535 4.63722 7.50352C4.65683 7.39167 4.67958 7.2804 4.70548 7.16973C4.70871 7.15593 4.70059 7.14266 4.68678 7.13945C4.67776 7.13734 4.66713 7.13963 4.66023 7.14581C4.14924 7.60357 4.04778 6.78366 4.55279 6.7513C4.58199 6.74947 4.61315 6.75044 4.64629 6.75421C4.65726 6.75546 4.67086 6.75527 4.68187 6.75449C4.75519 6.74933 4.82995 6.7122 4.85303 6.64242C5.0186 6.1418 5.25197 5.66598 5.54679 5.2283C5.70346 4.99483 5.87746 4.77351 6.06731 4.56623C6.10023 4.5303 6.09832 4.46262 6.06909 4.42363C6.00256 4.33492 5.64989 4.21148 5.56375 4.14166C5.34346 3.96312 5.09064 3.87632 5.49758 4.0744C5.5186 4.08464 5.53939 4.09839 5.55771 4.11292C5.78853 4.29599 5.91343 4.18727 5.98666 4.02369C6.05177 3.87824 6.19746 3.68564 6.12441 3.54401C5.97473 3.25382 5.75286 2.97901 5.52247 2.74763C5.46556 2.69048 5.40624 2.63595 5.34541 2.58536C5.20052 2.46484 5.00784 2.43334 4.81939 2.43446C4.62622 2.4356 4.55594 2.40593 4.68359 2.38429C4.9237 2.34358 5.13465 2.18885 5.20799 1.95662C5.23349 1.87585 5.25979 1.79803 5.28509 1.71983C5.32749 1.58881 5.2475 1.46324 5.10979 1.4629C5.0349 1.45286 4.96645 1.45108 4.90515 1.45707C4.60322 1.48663 4.55349 1.46257 4.25012 1.4603C4.19188 1.45987 4.08707 1.48522 4.02884 1.48677C3.62166 1.49757 4.1201 1.6514 4.1858 1.70321C4.19452 1.71009 4.1881 1.72103 4.18208 1.73035C4.14942 1.78083 3.32559 1.84962 3.29627 1.79714C3.28816 1.78264 3.2799 1.76579 3.27146 1.74631C3.26847 1.7394 3.26357 1.73278 3.25899 1.72681C3.23589 1.69669 3.304 1.70743 3.38255 1.70591C3.60352 1.70163 3.41331 1.41197 3.22238 1.52328C3.18285 1.54632 3.14348 1.57252 3.09971 1.59568C3.048 1.62305 2.99206 1.6445 2.94388 1.67771C2.82637 1.7587 2.78474 1.83792 2.79225 1.91252C2.84452 2.43152 3.71345 2.016 4.17379 2.2613C4.52179 2.4543 3.82239 2.3187 3.84379 2.6157C3.77782 2.31125 3.3588 2.55559 3.12873 2.34556C3.09198 2.31201 3.05553 2.28203 3.01745 2.26246C2.94942 2.22751 2.8648 2.225 2.7919 2.24815C2.61902 2.30305 2.58086 2.55695 2.63301 2.75013C2.70171 3.00462 3.02286 3.15687 2.77677 3.06239C2.62998 3.00604 2.46642 3.05699 2.3202 3.1148C2.02607 3.23108 1.71345 2.98506 1.37575 2.9419C1.33098 2.93618 1.2791 2.91631 1.23818 2.89727C1.08196 2.82459 0.900391 2.7028 0.900391 2.5305V2.00518C0.900391 1.67089 1.17138 1.3999 1.50566 1.3999H6.14499C6.0488 1.40253 5.95526 1.40774 5.87168 1.41862C5.52355 1.46393 5.56966 1.99719 5.91845 2.03706C6.06691 2.05403 6.22215 2.07172 6.29212 2.22174C6.31623 2.27344 6.34098 2.32597 6.36657 2.37696C6.4262 2.49579 6.4239 2.64381 6.41306 2.78256C6.39773 2.97869 6.48779 3.59424 6.52898 3.7866C6.55639 3.91462 6.71403 3.95707 6.81785 3.87729C7.23027 3.56033 7.6825 3.29865 8.16303 3.09901C8.26964 3.05472 8.35548 2.96279 8.31726 2.85385C8.30937 2.83135 8.29875 2.80244 8.29586 2.77876C8.26326 2.51115 8.49273 2.40144 8.44298 2.11528C8.43587 2.07439 8.44344 2.02475 8.45778 1.98579C8.51665 1.82587 8.75587 1.3999 8.92628 1.3999H18.5368C18.848 1.3999 19.1004 1.65225 19.1004 1.96353V2.74143C19.1004 2.77655 19.0644 2.80041 19.031 2.78973C19.0149 2.78458 18.9972 2.7889 18.9849 2.80053C18.7887 2.98697 18.8814 3.04059 19.0009 3.02813C19.0501 3.023 19.1004 3.05726 19.1004 3.10674C19.1004 3.16067 19.042 3.19508 18.9928 3.17298C18.7917 3.08263 18.5807 3.04819 18.3689 3.05551C18.1748 3.06222 17.9705 2.97878 17.7933 2.89932C17.5601 2.79474 17.2533 2.74306 17.125 2.5707C16.862 2.25564 17.2219 1.91951 16.8117 1.92928C16.7459 1.93085 16.6996 1.94851 16.6519 1.99387C16.4686 2.16818 16.8785 2.33456 16.8767 2.56479C16.8765 2.59039 16.8739 2.61648 16.8692 2.64165C16.8226 2.89302 16.3391 2.51293 16.091 2.45142C16.0702 2.44627 16.0493 2.44241 16.0287 2.43999C15.8854 2.42321 15.7251 2.46969 15.5851 2.4347C15.4321 2.39643 15.3771 2.36831 15.4549 2.21017C15.5036 2.11118 15.5287 1.98477 15.4539 1.9037C15.258 1.6915 14.7382 1.83792 14.4624 1.9233C14.3576 1.95574 14.2456 1.98879 14.1301 2.05463C14.0695 2.08916 14.0223 2.14206 13.9766 2.19469C13.9626 2.21081 13.948 2.22677 13.933 2.24256C13.6982 2.48979 13.3592 2.32321 13.0791 2.51768C13.0413 2.54399 13.0057 2.59918 12.973 2.6981C12.8853 2.94583 12.9083 3.11512 12.8275 3.1323C12.5849 3.1838 12.3288 2.85591 12.4186 2.62477C12.4433 2.56126 12.4864 2.4996 12.5391 2.44013C12.956 1.96939 12.4883 1.78483 12.2167 2.35193C12.1795 2.42975 12.1496 2.51358 12.1271 2.60299C12.1146 2.65281 12.0895 2.71461 12.0837 2.76565C12.0705 2.88193 12.1953 2.93357 12.3063 2.97072C13.9 3.50425 15.2232 4.77085 15.8429 6.33111C15.8659 6.38895 15.9688 6.37638 15.9938 6.31938C15.9975 6.31101 16.0025 6.30521 16.0105 6.30063C16.0126 6.29938 16.0147 6.2983 16.0167 6.29737C16.1045 6.25684 16.5009 6.6403 16.5896 6.6018C16.7282 6.5416 16.8806 6.44091 16.9614 6.35593C16.9946 6.321 16.9942 6.27014 16.9876 6.22239C16.9543 5.98142 17.2542 5.82741 17.431 5.73295C17.5219 5.68438 17.5066 5.5363 17.4047 5.52112C17.1841 5.48825 17.1249 5.56555 17.1482 5.34373C17.1629 5.20377 17.1708 5.06097 17.1186 4.9846C17.0514 4.88613 16.8598 4.9514 16.8012 4.84758C16.7479 4.75317 16.9468 4.63045 17.1793 4.5568C17.4461 4.47226 17.9817 4.24127 17.8541 4.49036C17.8083 4.5798 17.6945 4.69959 17.6771 4.79856C17.6232 5.10475 17.6628 5.4122 17.8365 5.28207C17.9768 5.17698 18.0696 5.01299 18.1179 4.8445C18.1655 4.67818 18.1967 4.4948 18.33 4.4495C18.6076 4.31866 19.1025 4.21626 19.0923 3.81338C19.0922 3.81149 19.0935 3.80972 19.0954 3.80952C19.098 3.80923 19.1004 3.81137 19.1004 3.81399V14.332C19.1004 14.48 18.9805 14.5999 18.8325 14.5999C18.614 14.5999 18.494 14.3494 18.5517 14.1386C18.581 14.0313 18.5809 13.932 18.5262 13.8611C18.4941 13.8194 18.4396 13.8054 18.3895 13.7893C18.3095 13.7637 18.2333 13.7216 18.1578 13.6731C17.7046 13.3814 17.1543 13.1183 16.6431 12.9477C16.6349 12.9449 16.6276 12.9424 16.6212 12.9401C16.5019 12.8968 16.297 13.1396 16.0852 13.0468C16.0742 13.042 16.0627 13.0378 16.0508 13.0363C15.9685 13.0258 15.9308 13.1196 15.9814 13.1854C16.4454 13.7887 16.9064 14.394 17.3677 14.9992C17.6563 15.3779 18.1051 15.5999 18.5812 15.5999H19.6004C19.733 15.5999 19.8602 15.5472 19.9539 15.4535C20.0477 15.3597 20.1004 15.2325 20.1004 15.0999V0.899902C20.1004 0.767294 20.0477 0.640117 19.9539 0.546349C19.8602 0.452581 19.733 0.399902 19.6004 0.399902H0.400391ZM10.1384 1.4639C9.98411 1.53989 10.0348 1.72442 10.1313 1.82973C10.232 1.93971 10.7788 1.75938 10.7515 1.61277C10.7458 1.58191 10.7141 1.53503 10.6862 1.52049C10.4445 1.39419 10.4665 1.56401 10.1382 1.4641M14.7381 1.5926C14.5856 1.59185 14.8906 1.59335 14.7381 1.5926V1.5926ZM3.74045 1.52852C3.72657 1.52436 3.71109 1.52695 3.70029 1.53662C3.49223 1.72278 4.08049 1.89371 3.76125 1.54175C3.75576 1.5357 3.74827 1.53087 3.74045 1.52852ZM5.84769 1.67498C5.81409 1.6692 5.88129 1.68075 5.84769 1.67498V1.67498ZM3.34187 1.89775C3.33045 1.88972 3.35328 1.90579 3.34187 1.89775V1.89775ZM4.33552 2.0343C4.24512 2.05402 4.42591 2.01458 4.33552 2.0343V2.0343ZM4.81877 2.02253C4.76984 2.04665 4.86769 1.9984 4.81877 2.02253V2.02253ZM3.85437 2.05628C3.79695 2.07461 3.91178 2.03794 3.85437 2.05628V2.05628ZM4.44874 2.33653C4.38241 2.34011 4.51507 2.33294 4.44874 2.33653V2.33653ZM4.54181 3.05005C4.45275 2.91291 4.56331 2.94787 4.63827 3.09319C4.71884 3.24937 4.78248 3.30305 4.56345 3.0773C4.5562 3.06983 4.54748 3.05878 4.54181 3.05005ZM4.034 3.09098C3.95747 3.03705 4.14739 2.93475 4.1479 3.02837C4.14802 3.0504 4.13355 3.07058 4.09904 3.09113C4.07787 3.10374 4.05415 3.10518 4.034 3.09098ZM6.53042 2.94328C6.51035 2.94054 6.55048 2.94602 6.53042 2.94328V2.94328ZM2.47057 3.06088C2.46826 3.03696 2.47287 3.0848 2.47057 3.06088V3.06088ZM3.99987 3.24278C3.97868 3.19005 4.02105 3.2955 3.99987 3.24278V3.24278ZM5.15952 3.18445C5.17256 3.17996 5.18559 3.19145 5.18347 3.20508C5.14996 3.42048 5.25138 3.48995 5.3243 3.52137C5.37227 3.54204 5.36261 3.56686 5.32349 3.60148C5.26138 3.65643 5.22623 3.73543 5.19813 3.7979C5.11852 3.97489 4.95542 3.67556 5.00838 3.48885C5.04759 3.35066 5.11513 3.20966 5.15706 3.18553C5.15787 3.18506 5.15863 3.18475 5.15952 3.18445ZM3.99274 3.20943C3.98532 3.23079 4.00016 3.18807 3.99274 3.20943V3.20943ZM18.4407 3.22575C18.4293 3.23119 18.4522 3.22031 18.4407 3.22575V3.22575ZM3.98059 3.3586C3.89492 3.35517 4.06626 3.36204 3.98059 3.3586V3.3586ZM10.3536 3.4529C9.26299 3.46054 8.20438 3.8223 7.33719 4.4837C5.11919 6.1727 4.68759 9.3567 6.37659 11.5747C7.87081 13.5369 10.5316 14.092 12.6612 13.0247C12.8734 12.9184 13.1358 12.9658 13.2796 13.1546C13.3808 13.2875 13.3839 13.4651 13.387 13.6321C13.3887 13.7218 13.4146 13.8029 13.4644 13.8685L16.4884 17.8395C16.6684 18.0757 17.103 18.0475 17.459 17.7763C17.815 17.5053 17.9576 17.0939 17.7778 16.8575L14.7538 12.8865C14.7039 12.8209 14.6326 12.7743 14.5465 12.7488C14.3864 12.7013 14.216 12.6511 14.1148 12.5182C13.971 12.3295 13.9951 12.064 14.154 11.8878C15.7493 10.1186 15.9223 7.40618 14.4282 5.4439C13.5836 4.3349 12.3652 3.6729 11.0808 3.4989C10.8398 3.46625 10.5968 3.45088 10.3536 3.4529ZM4.64742 3.98175C4.6611 3.96862 4.68385 3.97344 4.69352 3.98975C4.79118 4.15446 5.01611 4.14639 5.10289 4.23618C5.21144 4.34848 5.1751 4.56679 5.17797 4.72296C5.17878 4.76661 5.17483 4.81032 5.16748 4.85022C5.11887 5.11381 4.74543 4.80991 4.55123 4.62518C4.36587 4.44886 4.35802 4.1646 4.64294 3.98524C4.64453 3.98424 4.64607 3.98305 4.64742 3.98175ZM5.09749 4.08313C5.00011 4.0689 5.19487 4.09736 5.09749 4.08313V4.08313ZM17.7211 4.38873C17.7122 4.3703 17.7301 4.40716 17.7211 4.38873V4.38873ZM10.555 4.5735C10.681 4.57844 10.8063 4.58924 10.931 4.6059C11.4435 4.67518 11.9373 4.84509 12.384 5.10588C12.8306 5.36667 13.2213 5.71319 13.5336 6.1255C13.8478 6.53625 14.0777 7.005 14.2102 7.50484C14.3428 8.00469 14.3753 8.5258 14.3059 9.03824C14.2365 9.55068 14.0666 10.0444 13.8059 10.491C13.5452 10.9376 13.1989 11.3283 12.7868 11.6407C12.376 11.9549 11.9073 12.1849 11.4074 12.3174C10.9075 12.45 10.3864 12.4825 9.87395 12.4131C9.36148 12.3437 8.86776 12.1738 8.42114 11.9131C7.97452 11.6524 7.5838 11.306 7.27139 10.8939C6.95723 10.4831 6.72729 10.0144 6.59477 9.51453C6.46226 9.01467 6.42977 8.49357 6.49918 7.98112C6.56858 7.46868 6.73852 6.97499 6.99923 6.52839C7.25994 6.0818 7.60629 5.69109 8.01839 5.3787C8.74416 4.82271 9.64143 4.53789 10.555 4.5735ZM18.2962 4.9565C18.1229 4.96844 18.4696 4.94456 18.2962 4.9565V4.9565ZM18.6302 5.12333C18.4778 5.12328 18.7825 5.12337 18.6302 5.12333V5.12333ZM18.8752 5.21775C18.7245 5.2504 19.026 5.1851 18.8752 5.21775V5.21775ZM18.8631 5.13785C18.8564 5.14224 18.8697 5.13346 18.8631 5.13785V5.13785ZM18.8843 5.1702C18.8759 5.16724 18.8928 5.17316 18.8843 5.1702V5.1702ZM10.4225 5.3718C10.4224 5.37187 10.4223 5.3719 10.4222 5.3719C9.98876 5.36419 9.56078 5.46029 9.1656 5.63311C9.16056 5.63531 9.15788 5.64036 9.16154 5.64446C9.16837 5.65212 9.1539 5.68921 9.14365 5.68868C8.84287 5.6733 8.75624 6.07215 8.88455 6.28623C8.89471 6.3032 8.91309 6.31303 8.93281 6.31465L9.07535 6.32634C9.13904 6.33157 9.20302 6.32082 9.2615 6.29507L9.32856 6.26554C9.3748 6.24518 9.41629 6.21547 9.45311 6.18086C9.54199 6.09732 9.5782 6.08063 9.613 5.94613C9.62274 5.90845 9.65825 5.88256 9.69684 5.88755C9.70978 5.88922 9.72293 5.88746 9.73497 5.88244L9.74253 5.87928C9.77052 5.86761 9.8022 5.86862 9.82938 5.88206L9.94599 5.9397C10.1372 6.0145 10.1462 6.1757 10.0822 6.2229C10.0698 6.23054 10.0611 6.23728 10.0553 6.24332C10.014 6.2867 10.1516 6.2965 10.1968 6.25712C10.2044 6.25042 10.2121 6.24695 10.2216 6.24351L10.2428 6.2359C10.2532 6.23218 10.2632 6.22725 10.2722 6.22097C10.4201 6.11826 10.3359 6.07329 10.2264 5.95113C10.2125 5.93559 10.2271 5.91267 10.2473 5.91784C10.2515 5.91892 10.2554 5.92126 10.2582 5.92457C10.3504 6.03074 10.4075 6.14972 10.4629 6.27594C10.4697 6.2914 10.4779 6.30934 10.494 6.3143C10.5392 6.3293 10.603 6.3243 10.6576 6.3093C10.7116 6.2945 10.7152 6.1915 10.706 6.0929C10.7732 6.39953 11.3574 6.35886 11.2055 6.48617C11.1373 6.54337 11.0426 6.55606 10.954 6.54718C10.8291 6.53466 10.691 6.50923 10.5765 6.5063C10.4302 6.50256 10.1965 6.54749 10.0816 6.45676C10.0478 6.43006 10.0341 6.42436 9.99377 6.40917C9.86541 6.36084 9.65332 6.2811 9.64439 6.2811C9.63472 6.2811 9.40955 6.32168 9.30557 6.34051C9.27102 6.34676 9.23727 6.35617 9.20445 6.36863C9.03867 6.43154 8.9402 6.60804 8.78304 6.69013C8.71701 6.72462 8.65573 6.73519 8.62599 6.8737C8.6047 6.95468 8.50245 7.08263 8.42948 7.22478C8.29043 7.49564 8.39257 7.8791 8.65285 8.03707C8.8237 8.14076 9.05165 8.1424 9.26302 8.1462C9.63291 8.15286 9.80767 8.47208 9.95191 8.81276C10.086 9.12952 9.96744 9.58328 10.1101 9.89631C10.2501 10.2036 10.4512 10.4551 10.7124 10.3753C11.0103 10.2842 11.1172 9.92681 11.2763 9.65904C11.3548 9.52693 11.4337 9.40376 11.4899 9.27121C11.5962 9.02067 11.4953 8.70533 11.6627 8.49076C11.8562 8.24282 12.2189 8.02286 12.1291 7.79703C12.0941 7.70883 11.985 7.68142 11.8981 7.7194C11.861 7.73559 11.8183 7.74373 11.7791 7.73349C11.6535 7.70064 11.6126 7.58368 11.5608 7.5065C11.5154 7.44201 11.4753 7.37399 11.4408 7.3031C11.4663 7.3426 11.492 7.38074 11.5184 7.41713C11.6808 7.64116 12.0135 7.67455 12.2506 7.53196C12.483 7.39226 12.5481 6.97859 12.8052 7.06463C13.0277 7.13907 13.3186 7.46154 13.3263 7.73183C13.3267 7.74789 13.3315 7.76907 13.3381 7.78372C13.3799 7.87672 13.468 7.82757 13.4429 7.72876C13.3957 7.54337 13.3308 7.36272 13.249 7.1893C13.0313 6.71156 12.6852 6.30009 12.2644 5.98928C12.2514 5.97967 12.2304 5.98861 12.2198 5.97635C12.213 5.96841 12.211 5.9511 12.2025 5.94509C12.1546 5.91159 12.1059 5.87938 12.0564 5.84845C12.0494 5.84409 12.0406 5.85002 12.0427 5.85798C12.0454 5.86834 12.0304 5.87582 12.0245 5.86693C12.0114 5.84734 11.9987 5.82783 11.9871 5.80866C11.9854 5.80593 11.9832 5.80365 11.9804 5.80204C11.5102 5.52599 10.9715 5.36774 10.4227 5.3717C10.4226 5.3717 10.4226 5.37174 10.4225 5.3718ZM16.3382 6.11353C16.3953 5.93657 16.7537 6.156 16.6142 6.27896C16.4942 6.38472 16.3783 6.38551 16.3363 6.17114C16.3324 6.15164 16.3321 6.13244 16.3382 6.11353ZM4.76402 5.51185C4.75562 5.51642 4.77241 5.50728 4.76402 5.51185V5.51185ZM5.05842 5.6847C5.02647 5.68172 5.09036 5.68768 5.05842 5.6847V5.6847ZM11.0157 5.89684C10.8027 5.91462 11.2057 5.75256 11.3921 5.85725C11.4516 5.89069 11.4615 5.90392 11.3477 5.87677C11.2526 5.85412 11.113 5.88872 11.0157 5.89684ZM9.82099 5.9081C9.81507 5.90992 9.81099 5.91349 9.80819 5.9183C9.78341 5.96081 9.86556 6.06678 9.88301 6.02077C9.88664 6.01121 9.88598 5.99807 9.88414 5.9844C9.87996 5.95331 9.8508 5.89834 9.82099 5.9081ZM12.0916 6.08547C12.0988 6.07727 12.1155 6.07757 12.1194 6.08775C12.1556 6.1825 12.172 6.23418 12.0863 6.13058C12.0756 6.11768 12.0805 6.09808 12.0916 6.08547ZM9.83499 6.0721C9.79742 6.06801 9.77112 6.08262 9.75697 6.10804C9.7408 6.13712 9.76244 6.17204 9.7943 6.1816C9.83987 6.19529 9.86305 6.1813 9.87624 6.16079C9.89312 6.13451 9.86592 6.07648 9.83499 6.0721ZM12.2296 6.9287C12.2955 6.93139 12.2161 7.00121 12.1837 6.98644C12.1528 6.97232 12.1956 6.92708 12.2296 6.9287ZM18.3425 7.96078C18.1625 7.94544 18.5224 7.97612 18.3425 7.96078V7.96078ZM18.3109 7.76515C18.3021 7.77108 18.3197 7.75923 18.3109 7.76515V7.76515ZM18.3164 7.80835C18.308 7.80181 18.3248 7.8149 18.3164 7.80835V7.80835ZM18.5577 7.99145C18.4058 8.01325 18.7095 7.96966 18.5577 7.99145V7.99145ZM18.5724 7.92118C18.566 7.92961 18.5789 7.91274 18.5724 7.92118V7.92118ZM18.5274 7.93665C18.5176 7.93358 18.5372 7.93972 18.5274 7.93665V7.93665ZM16.2984 8.26021C16.2731 8.2429 16.2484 8.26849 16.2493 8.2991C16.251 8.35521 16.2518 8.41129 16.2519 8.46735C16.252 8.54937 16.3109 8.61902 16.3923 8.62932C16.4516 8.63682 16.5102 8.64525 16.563 8.65937C16.7478 8.70873 17.0144 8.95028 16.9181 9.11553C16.8994 9.1475 16.8729 9.17307 16.8452 9.18342C16.6796 9.24531 16.5835 8.92572 16.4115 8.96681C16.2917 8.99544 16.2203 9.10988 16.2046 9.23207C16.1899 9.34649 16.1719 9.46041 16.1506 9.57371C16.0911 9.89043 16.4297 10.1818 16.6865 10.3764C16.7961 10.4595 16.9378 10.5203 17.0577 10.5877C17.089 10.6053 17.1065 10.628 17.1163 10.6538C17.2058 10.8899 17.2495 10.7882 17.3832 10.574C17.4003 10.5466 17.4268 10.5148 17.4674 10.4753C17.4989 10.4446 17.5306 10.4133 17.5544 10.3764C17.7629 10.0534 17.6414 9.66615 17.4186 9.44572C17.3624 9.39021 17.3168 9.32364 17.279 9.25429C17.2589 9.21721 17.2357 9.18299 17.2129 9.15072C17.1179 9.01573 17.3178 9.06402 17.4599 8.97994C17.598 8.89822 17.5647 8.72366 17.7119 8.78752C17.8858 8.86293 18.0525 8.98002 18.0198 8.89832C17.9721 8.77932 17.8361 8.71711 17.7337 8.6399C17.5925 8.53332 17.454 8.39299 17.4015 8.52506C17.3934 8.54532 17.3943 8.56946 17.3828 8.58798C17.3212 8.68715 16.9705 8.37542 16.7532 8.40125C16.7023 8.40729 16.6263 8.38572 16.5807 8.36245C16.5509 8.34725 16.5157 8.34381 16.4806 8.34824C16.4323 8.35431 16.3385 8.28769 16.2984 8.26021ZM17.2544 8.5275C17.1232 8.52885 17.3856 8.52615 17.2544 8.5275V8.5275ZM9.78394 8.44423C9.77698 8.43402 9.7909 8.45443 9.78394 8.44423V8.44423ZM7.49474 8.68154C7.44162 8.53292 7.26445 8.62476 7.27793 8.78201C7.29411 8.97076 7.52423 8.99824 7.51816 8.80889C7.51672 8.76403 7.50899 8.7214 7.49474 8.68154ZM17.2485 8.46195C17.2398 8.46023 17.2572 8.46367 17.2485 8.46195V8.46195ZM17.4437 8.529C17.3964 8.529 17.491 8.529 17.4437 8.529V8.529ZM17.4437 8.5274C17.4005 8.5274 17.487 8.5274 17.4437 8.5274V8.5274ZM17.2593 8.50513C17.2509 8.499 17.2677 8.51125 17.2593 8.50513V8.50513ZM16.2826 8.72081C16.2649 8.71277 16.2482 8.73098 16.247 8.75041C16.2449 8.78618 16.2878 8.80223 16.2976 8.76773C16.3038 8.74583 16.3001 8.72875 16.2826 8.72081ZM11.7102 8.93077C11.6976 8.92603 11.6834 8.92689 11.6721 8.93416C11.4889 9.05188 11.9201 9.10261 11.7453 8.96505C11.7407 8.96141 11.7366 8.95641 11.7344 8.95096C11.7311 8.94264 11.7244 8.9361 11.716 8.93295L11.7102 8.93077ZM12.0933 9.31092C12.1526 9.03345 11.8111 9.0476 11.6916 9.30494C11.672 9.34723 11.6555 9.39034 11.6435 9.43263C11.5534 9.75108 12.0242 9.63459 12.0933 9.31092ZM18.2866 9.6091C18.0922 9.6484 18.481 9.56981 18.2866 9.6091V9.6091ZM12.3234 9.5806C12.1796 9.58679 12.4673 9.57441 12.3234 9.5806V9.5806ZM18.9228 10.6883C18.9715 10.6457 18.4911 10.7769 18.4517 10.8282C18.3653 10.9408 18.2847 11.0545 18.2812 11.1843C18.2804 11.2138 18.2994 11.2408 18.3279 11.2483C18.5873 11.3163 18.7307 10.8397 18.9228 10.6883ZM5.51904 11.7443C5.47825 11.6828 5.41259 11.7122 5.45525 11.7724C5.46051 11.7798 5.46593 11.787 5.47151 11.7941C5.51202 11.8452 5.55509 11.7986 5.51904 11.7443Z"
        fill="url(#paint0_linear_573_10341)" />
    <defs>
        <linearGradient id="paint0_linear_573_10341" x1="-0.0996094" y1="9.19981" x2="20.1004" y2="9.19981"
            gradientUnits="userSpaceOnUse">
            <stop stop-color="#9945FF" />
            <stop offset="1" stop-color="#14F195" />
        </linearGradient>
    </defs>
</svg>