<svg width="20" height="20" viewBox="0 0 20 20" fill="none" xmlns="http://www.w3.org/2000/svg">
<path d="M14.4316 19.2266V14.4616C14.4314 14.2526 14.3899 14.0457 14.3097 13.8528C14.2294 13.6599 14.1119 13.4846 13.9638 13.3372C13.8158 13.1897 13.6401 13.0728 13.4469 12.9933C13.2536 12.9137 13.0466 12.873 12.8376 12.8736H7.52564C7.31667 12.873 7.10965 12.9137 6.91641 12.9933C6.72317 13.0728 6.5475 13.1897 6.39946 13.3372C6.25142 13.4846 6.1339 13.6599 6.05363 13.8528C5.97336 14.0457 5.9319 14.2526 5.93164 14.4616V19.2266M14.4316 1.51157V3.87357C14.4314 4.08254 14.3899 4.28941 14.3097 4.48235C14.2294 4.67529 14.1119 4.85051 13.9638 4.998C13.8158 5.14548 13.6401 5.26234 13.4469 5.34188C13.2536 5.42143 13.0466 5.4621 12.8376 5.46157H7.52564C7.31667 5.4621 7.10965 5.42143 6.91641 5.34188C6.72317 5.26234 6.5475 5.14548 6.39946 4.998C6.25142 4.85051 6.1339 4.67529 6.05363 4.48235C5.97336 4.28941 5.9319 4.08254 5.93164 3.87357V1.22657M14.4316 1.51157C14.0169 1.32376 13.5669 1.22659 13.1116 1.22657H5.93164M14.4316 1.51157C14.7756 1.66757 15.0926 1.88557 15.3656 2.15657L17.7476 4.53157C18.0434 4.82589 18.2782 5.17571 18.4384 5.56096C18.5987 5.94621 18.6814 6.35931 18.6816 6.77657V16.0486C18.6814 16.4666 18.5987 16.8805 18.4383 17.2665C18.278 17.6526 18.0431 18.0032 17.7471 18.2984C17.4511 18.5935 17.0998 18.8274 16.7133 18.9867C16.3268 19.146 15.9127 19.2275 15.4946 19.2266H4.86964C4.45162 19.2276 4.03749 19.1462 3.65094 18.9871C3.2644 18.8279 2.91303 18.5941 2.61693 18.2991C2.32083 18.004 2.08581 17.6534 1.92533 17.2674C1.76484 16.8814 1.68203 16.4676 1.68164 16.0496V4.40257C1.68217 3.98463 1.76507 3.57089 1.92562 3.18502C2.08616 2.79914 2.3212 2.4487 2.61728 2.15373C2.91337 1.85876 3.2647 1.62504 3.65117 1.46595C4.03765 1.30687 4.4517 1.22552 4.86964 1.22657H5.93164" stroke="white" stroke-width="1.5" stroke-linecap="round" stroke-linejoin="round"/>
</svg>
