<svg width="19" height="19" viewBox="0 0 19 19" fill="none" xmlns="http://www.w3.org/2000/svg">
<path d="M17.8125 1.1875V17.8125H1.1875C1.1875 17.2002 1.20605 16.6064 1.24316 16.0312C1.28027 15.4561 1.3514 14.8901 1.45654 14.3335C1.56169 13.7769 1.69157 13.2202 1.84619 12.6636C2.00081 12.1069 2.20182 11.5441 2.44922 10.9751C2.86979 9.98551 3.37695 9.05778 3.9707 8.19189C4.56445 7.32601 5.22933 6.52816 5.96533 5.79834C6.70133 5.06852 7.49919 4.4222 8.35889 3.85938C9.21859 3.29655 10.1278 2.81104 11.0864 2.40283C12.0451 1.99463 13.0347 1.69466 14.0552 1.50293C15.0757 1.3112 16.1302 1.20605 17.2188 1.1875H17.8125ZM16.625 2.38428C15.3385 2.43376 14.1016 2.64095 12.9141 3.00586C11.7266 3.37077 10.6133 3.86865 9.57422 4.49951C8.53516 5.13037 7.58577 5.87256 6.72607 6.72607C5.86637 7.57959 5.12419 8.52897 4.49951 9.57422C3.87484 10.6195 3.38005 11.7327 3.01514 12.9141C2.65023 14.0954 2.43994 15.3324 2.38428 16.625H16.625V2.38428Z" fill="#68CFF7"/>
</svg>
