<svg width="35" height="34" viewBox="0 0 35 34" fill="none" xmlns="http://www.w3.org/2000/svg">
    <path fill-rule="evenodd" clip-rule="evenodd"
        d="M9.90622 13.866C10.1781 13.939 10.41 14.117 10.5507 14.3609C10.6915 14.6047 10.7298 14.8945 10.6571 15.1665C10.2944 16.5198 10.3413 17.9502 10.7917 19.2768C11.242 20.6034 12.0757 21.7667 13.1872 22.6196C14.2987 23.4724 15.6382 23.9764 17.0362 24.068C18.4342 24.1595 19.828 23.8344 21.0412 23.1338C21.1621 23.0641 21.2956 23.0188 21.434 23.0006C21.5725 22.9825 21.7131 22.9917 21.8479 23.0279C21.9828 23.0641 22.1092 23.1264 22.2199 23.2115C22.3306 23.2965 22.4235 23.4025 22.4933 23.5234C22.5631 23.6443 22.6083 23.7778 22.6265 23.9162C22.6447 24.0547 22.6354 24.1953 22.5992 24.3301C22.5631 24.465 22.5007 24.5914 22.4157 24.7021C22.3306 24.8128 22.2246 24.9057 22.1037 24.9755C20.5263 25.8857 18.7145 26.3078 16.8973 26.1885C15.08 26.0691 13.339 25.4137 11.8942 24.305C10.4494 23.1964 9.36567 21.6843 8.78009 19.9598C8.19452 18.2354 8.13334 16.376 8.6043 14.6168C8.64046 14.482 8.70282 14.3557 8.78783 14.245C8.87283 14.1343 8.97881 14.0414 9.09971 13.9717C9.22061 13.902 9.35407 13.8568 9.49245 13.8386C9.63083 13.8205 9.77143 13.8298 9.90622 13.866ZM12.8954 9.02384C14.4727 8.1129 16.2847 7.69022 18.1023 7.80923C19.9198 7.92825 21.6613 8.58363 23.1063 9.69248C24.5514 10.8013 25.6351 12.3138 26.2205 14.0387C26.8058 15.7635 26.8665 17.6232 26.3948 19.3825C26.3219 19.6549 26.1438 19.8872 25.8996 20.0283C25.6555 20.1693 25.3653 20.2076 25.0929 20.1348C24.8205 20.0619 24.5882 19.8837 24.4471 19.6396C24.306 19.3954 24.2677 19.1052 24.3406 18.8328C24.7022 17.4799 24.6548 16.0501 24.2042 14.7241C23.7537 13.3981 22.9202 12.2354 21.8092 11.3828C20.6982 10.5303 19.3594 10.0261 17.962 9.93403C16.5645 9.84195 15.1712 10.1661 13.9579 10.8655C13.7137 11.0064 13.4235 11.0445 13.1512 10.9714C12.8788 10.8984 12.6467 10.7201 12.5058 10.4759C12.3649 10.2317 12.3268 9.94151 12.3999 9.66919C12.4729 9.39688 12.6512 9.16473 12.8954 9.02384Z"
        fill="url(#paint0_linear_573_10264)" />
    <path fill-rule="evenodd" clip-rule="evenodd"
        d="M8.60417 13.4157C8.80339 13.2167 9.07344 13.105 9.35501 13.105C9.63657 13.105 9.90662 13.2167 10.1058 13.4157L13.6475 16.9574C13.7519 17.0547 13.8356 17.172 13.8937 17.3023C13.9518 17.4326 13.983 17.5733 13.9855 17.716C13.988 17.8586 13.9618 18.0003 13.9083 18.1326C13.8549 18.2649 13.7754 18.3851 13.6745 18.486C13.5736 18.5869 13.4534 18.6664 13.3211 18.7199C13.1888 18.7733 13.0471 18.7996 12.9044 18.7971C12.7618 18.7945 12.6211 18.7633 12.4907 18.7052C12.3604 18.6472 12.2431 18.5634 12.1458 18.459L9.35501 15.6682L6.56417 18.459C6.36276 18.6467 6.09636 18.7489 5.8211 18.744C5.54584 18.7392 5.28321 18.6277 5.08854 18.433C4.89387 18.2383 4.78237 17.9757 4.77751 17.7005C4.77265 17.4252 4.87483 17.1588 5.06251 16.9574L8.60417 13.4157ZM21.3542 15.5407C21.5534 15.3417 21.8234 15.23 22.105 15.23C22.3866 15.23 22.6566 15.3417 22.8558 15.5407L25.6467 18.3315L28.4375 15.5407C28.5348 15.4363 28.6521 15.3526 28.7824 15.2945C28.9127 15.2365 29.0534 15.2052 29.1961 15.2027C29.3388 15.2002 29.4805 15.2264 29.6128 15.2799C29.7451 15.3333 29.8653 15.4128 29.9661 15.5137C30.067 15.6146 30.1466 15.7348 30.2 15.8671C30.2535 15.9994 30.2797 16.1411 30.2772 16.2838C30.2747 16.4264 30.2434 16.5671 30.1854 16.6975C30.1273 16.8278 30.0436 16.9451 29.9392 17.0424L26.3975 20.584C26.1983 20.783 25.9282 20.8948 25.6467 20.8948C25.3651 20.8948 25.0951 20.783 24.8958 20.584L21.3542 17.0424C21.1552 16.8432 21.0434 16.5731 21.0434 16.2915C21.0434 16.01 21.1552 15.7399 21.3542 15.5407Z"
        fill="url(#paint1_linear_573_10264)" />
    <defs>
        <linearGradient id="paint0_linear_573_10264" x1="8.29102" y1="16.9989" x2="26.7089" y2="16.9989"
            gradientUnits="userSpaceOnUse">
            <stop stop-color="#9945FF" />
            <stop offset="1" stop-color="#14F195" />
        </linearGradient>
        <linearGradient id="paint1_linear_573_10264" x1="4.77734" y1="16.9999" x2="30.2773" y2="16.9999"
            gradientUnits="userSpaceOnUse">
            <stop stop-color="#9945FF" />
            <stop offset="1" stop-color="#14F195" />
        </linearGradient>
    </defs>
</svg>