<svg width="25" height="25" viewBox="0 0 25 25" fill="none" xmlns="http://www.w3.org/2000/svg">
<path d="M7.18164 7.22705H6.18164C5.65121 7.22705 5.1425 7.43776 4.76743 7.81284C4.39235 8.18791 4.18164 8.69662 4.18164 9.22705V18.2271C4.18164 18.7575 4.39235 19.2662 4.76743 19.6413C5.1425 20.0163 5.65121 20.2271 6.18164 20.2271H15.1816C15.7121 20.2271 16.2208 20.0163 16.5959 19.6413C16.9709 19.2662 17.1816 18.7575 17.1816 18.2271V17.2271" stroke="white" stroke-width="1.2" stroke-linecap="round" stroke-linejoin="round"/>
<path d="M16.1816 5.22716L19.1816 8.22716M20.5666 6.81216C20.9605 6.41831 21.1817 5.88414 21.1817 5.32716C21.1817 4.77017 20.9605 4.236 20.5666 3.84216C20.1728 3.44831 19.6386 3.22705 19.0816 3.22705C18.5247 3.22705 17.9905 3.44831 17.5966 3.84216L9.18164 12.2272V15.2272H12.1816L20.5666 6.81216Z" stroke="white" stroke-width="1.2" stroke-linecap="round" stroke-linejoin="round"/>
</svg>
