<svg width="18" height="18" viewBox="0 0 18 18" fill="none" xmlns="http://www.w3.org/2000/svg">
  <path
    d="M17.82 14.9283C11.9401 11.3708 6.05956 18.485 0.179688 14.9283C0.179688 10.9763 0.179688 7.02387 0.179688 3.07175C6.05956 6.62889 11.9402 -0.485319 17.82 3.07175V14.9283Z"
    fill="#CCCBCA" />
  <path
    d="M17.6791 14.6989C11.8948 11.3684 6.11186 18.1947 0.328125 14.8702C0.328125 11.0147 0.328125 7.15858 0.328125 3.30305C6.11186 6.62803 11.8948 -0.198272 17.6791 3.13217V14.6989Z"
    fill="#B02A3D" />
  <path
    d="M17.6791 4.91044C11.8948 1.58 6.11186 8.4063 0.328125 5.08132C0.328125 4.78496 0.328125 4.48854 0.328125 4.19218C6.11186 7.51715 11.8948 0.690856 17.6791 4.02136V4.91044Z"
    fill="white" />
  <path
    d="M17.6791 6.68885C11.8948 3.35841 6.11186 10.185 0.328125 6.85966C0.328125 6.5633 0.328125 6.26695 0.328125 5.97052C6.11186 9.29525 11.8948 2.4692 17.6791 5.7997V6.68885Z"
    fill="white" />
  <path
    d="M17.6791 8.4672C11.8948 5.13676 6.11186 11.9632 0.328125 8.63802C0.328125 8.34166 0.328125 8.0453 0.328125 7.74887C6.11186 11.0736 11.8948 4.24756 17.6791 7.57799V8.4672Z"
    fill="white" />
  <path
    d="M17.6791 10.2458C11.8948 6.91511 6.11186 13.7416 0.328125 10.4162C0.328125 10.1203 0.328125 9.82339 0.328125 9.52754C6.11186 12.852 11.8948 6.02597 17.6791 9.35622V10.2458Z"
    fill="white" />
  <path
    d="M17.6791 12.0241C11.8948 8.69342 6.11186 15.52 0.328125 12.1945C0.328125 11.8986 0.328125 11.6017 0.328125 11.3059C6.11186 14.6304 11.8948 7.80428 17.6791 11.1345V12.0241Z"
    fill="white" />
  <path
    d="M17.6791 13.8025C11.8948 10.4721 6.11186 17.2984 0.328125 13.9729C0.328125 13.677 0.328125 13.3802 0.328125 13.0843C6.11186 16.4088 11.8948 9.58249 17.6791 12.9129V13.8025Z"
    fill="white" />
  <path
    d="M9.00376 3.21582C6.11186 4.08998 3.21977 4.96565 0.328125 3.30294V9.52725C3.21971 11.19 6.11186 10.3143 9.00376 9.43956C9.00376 7.36517 9.00376 5.29046 9.00376 3.21582Z"
    fill="#434177" />
  <path
    d="M0.894117 4.35187C0.868208 4.42013 0.8423 4.48789 0.816392 4.55513C0.815884 4.55513 0.816392 4.5571 0.817408 4.55812C0.818424 4.55913 0.819376 4.55958 0.820392 4.55958C0.888148 4.54262 0.955903 4.52472 1.02366 4.50529C1.09192 4.58447 1.15961 4.6622 1.22788 4.7384C1.22788 4.7384 1.22839 4.73941 1.22889 4.73941C1.23035 4.74043 1.23137 4.73941 1.23137 4.73795V4.73694C1.20546 4.64683 1.17905 4.55666 1.1532 4.46598C1.2214 4.44502 1.28922 4.42318 1.35742 4.39975C1.35793 4.39873 1.35844 4.39829 1.35793 4.39676C1.35742 4.39524 1.35691 4.39479 1.35545 4.39378C1.27176 4.36241 1.18806 4.3285 1.10437 4.29313C1.07846 4.20245 1.05204 4.11133 1.0262 4.0202C1.02569 4.01817 1.0222 4.01671 1.02118 4.01817C0.995274 4.08643 0.969874 4.15463 0.943965 4.22239C0.860271 4.18454 0.776069 4.14422 0.692438 4.10237C0.691422 4.10186 0.689961 4.10136 0.689453 4.10288C0.689453 4.10288 0.689961 4.10485 0.690469 4.10637C0.758161 4.1895 0.826361 4.27173 0.894117 4.35187Z"
    fill="white" />
  <path
    d="M2.32191 4.83294C2.29601 4.90718 2.27016 4.98135 2.24419 5.05513C2.24419 5.05564 2.2447 5.0571 2.24521 5.05761C2.24622 5.05863 2.24775 5.05863 2.24819 5.05863C2.31595 5.02472 2.38415 4.99036 2.4519 4.95449C2.51959 5.01722 2.58735 5.0785 2.6551 5.13927C2.65561 5.13978 2.65612 5.13978 2.65707 5.13978C2.65809 5.13978 2.65904 5.13927 2.65904 5.13781V5.1368C2.63313 5.05259 2.60729 4.96846 2.58132 4.88425C2.64907 4.84736 2.71683 4.809 2.78458 4.77021C2.78604 4.76919 2.78655 4.76824 2.78604 4.76722C2.78503 4.76576 2.78458 4.76525 2.78357 4.76474C2.69987 4.7523 2.61567 4.73833 2.53204 4.7229C2.50613 4.63825 2.47971 4.55354 2.45387 4.46889C2.45336 4.46686 2.44987 4.46591 2.44936 4.46788C2.42345 4.54262 2.39704 4.61685 2.37119 4.69102C2.2875 4.67362 2.20329 4.65419 2.11966 4.63323C2.11916 4.63323 2.1182 4.63323 2.11719 4.63469C2.11719 4.63571 2.11719 4.63673 2.11865 4.63768C2.18647 4.70391 2.25416 4.76919 2.32191 4.83294Z"
    fill="white" />
  <path
    d="M3.74757 4.99604C3.72166 5.07573 3.69524 5.15492 3.6694 5.23366C3.6694 5.23417 3.6694 5.23614 3.67042 5.23664C3.67143 5.23715 3.67296 5.23715 3.6734 5.23664C3.74109 5.18934 3.80942 5.14101 3.87711 5.09218C3.94487 5.14152 4.01262 5.19029 4.08038 5.23811C4.08089 5.23861 4.08184 5.23861 4.08235 5.23861C4.08336 5.23861 4.08489 5.2376 4.08489 5.23614C4.08489 5.23563 4.08489 5.23512 4.08489 5.23512C4.05898 5.15593 4.03256 5.07669 4.00665 4.99699C4.07441 4.94714 4.14267 4.89641 4.21036 4.84503C4.21138 4.84402 4.21183 4.84249 4.21138 4.84154C4.21087 4.84008 4.21036 4.84008 4.2089 4.84008C4.12521 4.84256 4.04101 4.84459 3.95738 4.8451C3.93147 4.7654 3.90556 4.68571 3.87965 4.60602C3.87864 4.60398 3.87521 4.60398 3.8747 4.60602C3.84879 4.68571 3.82237 4.7654 3.79653 4.84459C3.71283 4.84357 3.62863 4.8411 3.545 4.8371C3.54398 4.8371 3.54348 4.8376 3.54297 4.83906C3.54297 4.84008 3.54297 4.84103 3.54398 4.84205C3.61161 4.89444 3.67981 4.94575 3.74757 4.99604Z"
    fill="white" />
  <path
    d="M5.17751 4.91066C5.1516 4.99384 5.12519 5.07703 5.09934 5.16022C5.09934 5.16072 5.09985 5.16168 5.1008 5.16219C5.10131 5.16269 5.10226 5.16269 5.10379 5.16219C5.17154 5.1044 5.2393 5.04611 5.30705 4.98737C5.37481 5.02674 5.44307 5.0656 5.51076 5.10389C5.51127 5.1044 5.51178 5.10389 5.51222 5.10389C5.51369 5.10389 5.5147 5.10243 5.5147 5.10091C5.5147 5.10091 5.5147 5.09989 5.51419 5.09989C5.48828 5.0242 5.46238 4.94895 5.43647 4.87326C5.50422 4.8135 5.57249 4.75375 5.64018 4.69298C5.6412 4.69152 5.64164 4.69044 5.64119 4.68948C5.64069 4.68802 5.64018 4.68802 5.63865 4.68802C5.55502 4.7025 5.47127 4.7159 5.38764 4.72841C5.36173 4.65272 5.33531 4.57696 5.3094 4.50076C5.30889 4.49879 5.3054 4.4993 5.30445 4.50127C5.27854 4.58496 5.25263 4.66815 5.22672 4.75133C5.14309 4.76283 5.05883 4.77324 4.9752 4.7827C4.97374 4.78321 4.97316 4.78372 4.97266 4.78524C4.97266 4.78626 4.97266 4.78721 4.97367 4.78823C5.04155 4.82944 5.10975 4.87027 5.17751 4.91066Z"
    fill="white" />
  <path
    d="M6.60336 4.64275C6.57745 4.72892 6.55154 4.81464 6.52563 4.90031C6.52563 4.90081 6.52563 4.90228 6.52665 4.90278C6.52716 4.90329 6.52862 4.90278 6.52963 4.90228C6.59739 4.83706 6.66514 4.77229 6.7329 4.7065C6.80065 4.73889 6.86892 4.77127 6.93661 4.80366H6.93864C6.93966 4.80366 6.94061 4.80169 6.94061 4.80067C6.94061 4.80017 6.94061 4.79966 6.9401 4.79921C6.91419 4.726 6.88879 4.65329 6.86289 4.58001C6.93064 4.51378 6.99833 4.44754 7.06615 4.38074C7.06761 4.37928 7.06761 4.37827 7.06761 4.37725C7.0666 4.37623 7.06615 4.37573 7.06507 4.37623C6.98087 4.39763 6.89718 4.4191 6.81304 4.43999C6.78713 4.36626 6.76128 4.29305 6.73531 4.21983C6.7348 4.21786 6.73131 4.21881 6.73087 4.22085C6.70496 4.30702 6.67854 4.39274 6.65263 4.47885C6.56894 4.49879 6.48474 4.51822 6.40111 4.53664C6.40009 4.53714 6.39964 4.53765 6.39863 4.53918C6.39812 4.54064 6.39863 4.54115 6.40009 4.54216C6.46791 4.57607 6.53566 4.60941 6.60336 4.64275Z"
    fill="white" />
  <path
    d="M8.03127 4.2612C8.00536 4.34838 7.97895 4.43601 7.9531 4.5232C7.9531 4.5232 7.9531 4.52523 7.95412 4.52574C7.95513 4.52574 7.95609 4.52523 7.9571 4.52473C8.02486 4.45595 8.09312 4.38674 8.16081 4.31752C8.22857 4.34692 8.29626 4.37575 8.36402 4.40515C8.36452 4.40515 8.36554 4.40515 8.36605 4.40464C8.36706 4.40464 8.36852 4.40318 8.36852 4.40166C8.36852 4.40166 8.36852 4.40064 8.36802 4.40014C8.34211 4.32844 8.3162 4.25669 8.29029 4.18493C8.35798 4.11572 8.42631 4.04599 8.494 3.97671C8.49502 3.97525 8.49502 3.97423 8.49502 3.97322C8.49451 3.97169 8.494 3.97169 8.49254 3.9722C8.40885 3.99716 8.32465 4.02205 8.24101 4.04694C8.21511 3.97474 8.1892 3.90299 8.16329 3.83079C8.16227 3.82933 8.15878 3.83028 8.15827 3.83225C8.13236 3.91943 8.10601 4.00706 8.0801 4.09425C7.99641 4.1187 7.91221 4.14308 7.82857 4.16702C7.82756 4.16753 7.82711 4.16804 7.82661 4.1695C7.82559 4.17096 7.82661 4.17147 7.82711 4.17249C7.89531 4.20239 7.96307 4.23179 8.03127 4.2612Z"
    fill="white" />
  <path
    d="M1.52941 5.46137C1.5289 5.46188 1.52941 5.46289 1.52992 5.46486C1.53138 5.46588 1.53239 5.46588 1.5329 5.46588C1.60059 5.43997 1.66886 5.4126 1.73661 5.38466C1.80437 5.4554 1.87212 5.52468 1.93988 5.59288C1.93988 5.59288 1.94134 5.59339 1.94185 5.59339C1.94382 5.5944 1.94433 5.59288 1.94433 5.59186V5.59085C1.91842 5.50366 1.892 5.41654 1.86616 5.32935C1.93391 5.29995 2.00217 5.26959 2.06987 5.23772C2.07088 5.2367 2.07088 5.23575 2.07088 5.23575C2.07037 5.23378 2.06987 5.23276 2.06841 5.23276C1.98471 5.21079 1.90051 5.18742 1.81681 5.16253C1.79091 5.0749 1.76506 4.98721 1.73909 4.89907C1.73807 4.89761 1.73464 4.89608 1.73414 4.89761C1.70823 4.9693 1.68283 5.04105 1.65692 5.11281C1.57272 5.08493 1.48858 5.05598 1.40431 5.02461C1.4038 5.02461 1.40285 5.02461 1.40234 5.02562C1.40234 5.02562 1.40234 5.02708 1.40336 5.02912C1.47112 5.10329 1.53938 5.17657 1.60707 5.24832C1.58123 5.31938 1.55532 5.39063 1.52941 5.46137Z"
    fill="white" />
  <path
    d="M2.95676 5.79223C2.95676 5.79223 2.95727 5.79369 2.95822 5.79522C2.95873 5.79572 2.96019 5.79623 2.96121 5.79572C3.02896 5.75439 3.09672 5.71254 3.16447 5.66917C3.23223 5.72498 3.30049 5.78029 3.36819 5.83408C3.36869 5.83408 3.3692 5.83408 3.36965 5.83459C3.37111 5.83459 3.37212 5.83313 3.37212 5.83211C3.37212 5.8316 3.37212 5.83109 3.37161 5.83109C3.34571 5.74937 3.3198 5.66821 3.29389 5.58649C3.36165 5.54216 3.42991 5.49733 3.4976 5.45199C3.49862 5.45053 3.49963 5.44952 3.49862 5.44901C3.49811 5.44755 3.4976 5.44704 3.49614 5.44704C3.41245 5.44253 3.32875 5.43707 3.24512 5.43009C3.21921 5.34791 3.1928 5.26574 3.16689 5.18351C3.16638 5.18205 3.16289 5.18154 3.16187 5.183C3.13596 5.26022 3.11056 5.33744 3.08465 5.41459C3.00052 5.40564 2.91676 5.39567 2.83262 5.38373C2.83109 5.38322 2.83059 5.38373 2.83008 5.38525C2.83008 5.38525 2.83008 5.38671 2.83109 5.38824C2.89885 5.44704 2.96711 5.50476 3.03481 5.56153C3.00902 5.63881 2.98261 5.71552 2.95676 5.79223Z"
    fill="white" />
  <path
    d="M4.38469 5.83614C4.38469 5.83614 4.38469 5.83767 4.3857 5.83913C4.38621 5.83964 4.38774 5.83964 4.38869 5.83913C4.45644 5.78585 4.5242 5.732 4.59195 5.67726C4.65965 5.72159 4.72797 5.7654 4.79567 5.80827H4.79763C4.79865 5.80776 4.79967 5.80623 4.79967 5.80528C4.79967 5.80528 4.79967 5.80427 4.79916 5.80427C4.77325 5.72705 4.74785 5.64983 4.72194 5.57268C4.7897 5.51737 4.85745 5.46161 4.92521 5.40478C4.92673 5.40332 4.92724 5.4023 4.92673 5.4018C4.92572 5.40034 4.92521 5.39976 4.92419 5.39976C4.8405 5.40923 4.7563 5.41723 4.67266 5.42415C4.64676 5.34642 4.62034 5.26876 4.5945 5.19104C4.59399 5.18958 4.59049 5.18958 4.58999 5.19104C4.56408 5.27321 4.53766 5.35493 4.51182 5.4366C4.42812 5.44206 4.34392 5.44656 4.26029 5.45006C4.25927 5.45006 4.25883 5.45057 4.25781 5.45203C4.25781 5.45203 4.25781 5.45349 4.25927 5.45501C4.32703 5.50137 4.39478 5.54721 4.46254 5.59198C4.4365 5.67377 4.4106 5.75499 4.38469 5.83614Z"
    fill="white" />
  <path
    d="M5.81198 5.66107C5.81198 5.66107 5.81249 5.66253 5.81299 5.66405C5.81401 5.66456 5.81496 5.66405 5.81598 5.66354C5.88373 5.60131 5.952 5.53902 6.01969 5.47571C6.08744 5.51209 6.1552 5.54746 6.22296 5.58232H6.22442H6.22492C6.22594 5.58182 6.22746 5.57985 6.22746 5.57883C6.22746 5.57883 6.22746 5.57782 6.22696 5.57832C6.20105 5.50409 6.17514 5.42986 6.14923 5.35518C6.21692 5.29187 6.28519 5.22862 6.35294 5.16436C6.35396 5.16239 6.35396 5.16138 6.35396 5.16138C6.35345 5.15992 6.35294 5.15941 6.35148 5.15941C6.26779 5.17833 6.18359 5.19573 6.09995 5.21319C6.07405 5.13845 6.04814 5.06371 6.02223 4.98904C6.02121 4.98751 6.01772 4.98853 6.01721 4.99005C5.9913 5.07521 5.96489 5.16042 5.93904 5.24507C5.85535 5.26152 5.77115 5.27695 5.68752 5.29136C5.6865 5.29136 5.68605 5.29187 5.68555 5.2939C5.68555 5.2939 5.68555 5.29536 5.68656 5.29638C5.75432 5.33372 5.82258 5.37061 5.89027 5.40694C5.86424 5.49165 5.83789 5.57636 5.81198 5.66107Z"
    fill="white" />
  <path
    d="M7.23821 5.33417C7.23821 5.33417 7.23821 5.33563 7.23967 5.33665C7.24018 5.33716 7.24113 5.33665 7.24266 5.33614C7.31041 5.26838 7.3781 5.20063 7.44586 5.13243C7.51362 5.16329 7.58188 5.19421 7.64957 5.22457C7.65008 5.22406 7.65059 5.22406 7.65103 5.22406C7.65249 5.22355 7.65351 5.22158 7.65351 5.22057C7.65351 5.22057 7.65351 5.21955 7.653 5.22006C7.62709 5.14729 7.60125 5.07509 7.57528 5.00238C7.64303 4.93462 7.71129 4.86591 7.77899 4.79765C7.78 4.79568 7.78 4.79467 7.78 4.79467C7.77949 4.79321 7.77899 4.7927 7.77753 4.79321C7.69332 4.81708 7.60963 4.84051 7.52549 4.86395C7.49958 4.79124 7.47418 4.71846 7.44827 4.64576C7.44776 4.64423 7.44427 4.64525 7.44326 4.64722C7.41735 4.7339 7.39144 4.82108 7.36553 4.90776C7.28184 4.93069 7.19763 4.9531 7.114 4.97501C7.11254 4.97501 7.11204 4.97602 7.11153 4.97749C7.11102 4.97799 7.11153 4.97895 7.11254 4.97996C7.18024 5.01133 7.24856 5.0427 7.31625 5.07363C7.29054 5.1603 7.26412 5.24749 7.23821 5.33417Z"
    fill="white" />
  <path
    d="M0.816392 5.77822C0.815884 5.77873 0.816392 5.7807 0.817408 5.78171C0.818424 5.78273 0.819376 5.78324 0.820392 5.78324C0.888148 5.76577 0.955903 5.74736 1.02366 5.72793C1.09192 5.80718 1.15961 5.88535 1.22788 5.96206C1.22788 5.96256 1.22839 5.96256 1.22889 5.96256C1.23086 5.96358 1.23137 5.96307 1.23137 5.9611C1.23137 5.9611 1.23137 5.9606 1.23137 5.96009C1.20546 5.86992 1.17905 5.77974 1.1532 5.68906C1.2214 5.66811 1.28922 5.64627 1.35742 5.62283C1.35793 5.62182 1.35844 5.62137 1.35793 5.61985C1.35742 5.61832 1.35691 5.61788 1.35545 5.61686C1.27176 5.58549 1.18806 5.55159 1.10437 5.51622C1.07846 5.42509 1.05204 5.3339 1.0262 5.24278C1.02569 5.24126 1.0222 5.23929 1.02118 5.24075C0.995274 5.30901 0.969874 5.37772 0.943965 5.44548C0.860271 5.40763 0.776069 5.3673 0.692438 5.32546C0.691422 5.32495 0.689961 5.32444 0.689453 5.32597C0.689453 5.32698 0.689961 5.32793 0.690469 5.32946C0.758225 5.41264 0.826488 5.49481 0.89418 5.57502C0.868145 5.64322 0.842237 5.71046 0.816392 5.77822Z"
    fill="white" />
  <path
    d="M2.24419 6.27852C2.24419 6.27954 2.2447 6.28106 2.24521 6.28151C2.24622 6.28252 2.24775 6.28252 2.24819 6.28252C2.31595 6.24862 2.38415 6.21331 2.4519 6.17743C2.51959 6.24017 2.58735 6.30196 2.6551 6.36323H2.65707C2.65809 6.36323 2.65904 6.36323 2.65904 6.3612C2.65904 6.3612 2.65904 6.36069 2.65904 6.36019C2.63313 6.27598 2.60729 6.19185 2.58132 6.10764C2.64907 6.07075 2.71683 6.03239 2.78458 5.9936C2.78604 5.99258 2.78655 5.99163 2.78604 5.99061C2.78503 5.98909 2.78458 5.98858 2.78357 5.98807C2.69987 5.97562 2.61567 5.96165 2.53204 5.94622C2.50613 5.86158 2.47971 5.77687 2.45387 5.69171C2.45336 5.69019 2.44987 5.68917 2.44936 5.6907C2.42345 5.76537 2.39704 5.84011 2.37119 5.91435C2.2875 5.89688 2.20329 5.87745 2.11966 5.85656C2.11916 5.85656 2.1182 5.85656 2.11719 5.85802C2.11719 5.85904 2.11719 5.86005 2.11865 5.861C2.1864 5.92724 2.25416 5.99252 2.32185 6.05627C2.29601 6.13063 2.2701 6.20486 2.24419 6.27852Z"
    fill="white" />
  <path
    d="M3.6694 6.45742C3.6694 6.45888 3.6694 6.46041 3.67042 6.46091C3.67143 6.46142 3.67296 6.46142 3.6734 6.46091C3.74109 6.4131 3.80942 6.36477 3.87711 6.31543C3.94487 6.36528 4.01262 6.41405 4.08038 6.46237H4.08235C4.08336 6.46237 4.08489 6.46187 4.08489 6.4599V6.45888C4.05898 6.37969 4.03256 6.30045 4.00665 6.22075C4.07441 6.1709 4.14267 6.12017 4.21036 6.06879C4.21138 6.06778 4.21183 6.06625 4.21138 6.0653C4.21094 6.06435 4.21036 6.06333 4.2089 6.06384C4.12521 6.06632 4.04101 6.06835 3.95738 6.06886C3.93147 5.98916 3.90556 5.90947 3.87965 5.82927C3.87864 5.82774 3.87521 5.82774 3.8747 5.82927C3.84879 5.90896 3.82237 5.98866 3.79653 6.06835C3.71283 6.06733 3.62863 6.06486 3.545 6.06086C3.54398 6.06086 3.54348 6.06136 3.54297 6.06282C3.54297 6.06384 3.54297 6.06479 3.54398 6.06581C3.61174 6.11813 3.67994 6.16944 3.7477 6.21974C3.72172 6.29949 3.69531 6.37868 3.6694 6.45742Z"
    fill="white" />
  <path
    d="M5.09934 6.38352C5.09934 6.38453 5.09985 6.38599 5.1008 6.38599C5.10131 6.3865 5.10226 6.3865 5.10379 6.38599C5.17154 6.32776 5.2393 6.26947 5.30705 6.21016C5.37481 6.24997 5.44307 6.28884 5.51076 6.3277C5.51127 6.32719 5.51178 6.32719 5.51222 6.32719C5.51369 6.32719 5.5147 6.32617 5.5147 6.32421C5.5147 6.32421 5.5147 6.32319 5.51419 6.3237C5.48828 6.248 5.46238 6.17225 5.43647 6.09655C5.50422 6.0368 5.57249 5.97705 5.64018 5.91628C5.6412 5.91481 5.64164 5.91373 5.64119 5.91278C5.64075 5.91183 5.64018 5.91132 5.63865 5.91132C5.55502 5.9258 5.47127 5.9392 5.38764 5.95171C5.36173 5.87551 5.33531 5.79975 5.3094 5.72355C5.30889 5.72209 5.3054 5.72253 5.30445 5.72406C5.27854 5.80775 5.25263 5.89145 5.22672 5.97457C5.14309 5.98606 5.05883 5.99654 4.9752 6.006C4.97374 6.00651 4.97316 6.00702 4.97266 6.00848C4.97266 6.00949 4.97266 6.01045 4.97367 6.01146C5.04143 6.0528 5.10963 6.09363 5.17738 6.13402C5.1516 6.21708 5.12519 6.30027 5.09934 6.38352Z"
    fill="white" />
  <path
    d="M6.52563 6.12361C6.52563 6.12462 6.52563 6.12608 6.52665 6.12659C6.52716 6.1271 6.52862 6.12659 6.52963 6.12608C6.59739 6.06087 6.66514 5.99508 6.7329 5.92936C6.80065 5.96225 6.86892 5.99508 6.93661 6.02746C6.93712 6.02696 6.93763 6.02696 6.93864 6.02696C6.93966 6.02645 6.94061 6.02594 6.94061 6.02397C6.94061 6.02397 6.94061 6.02296 6.9401 6.02296C6.91419 5.94974 6.88879 5.87652 6.86289 5.80331C6.93064 5.73707 6.99833 5.67084 7.06615 5.60404C7.06761 5.60258 7.06761 5.60156 7.06761 5.60055C7.0666 5.59953 7.06615 5.59909 7.06507 5.59953C6.98087 5.62093 6.89718 5.64233 6.81304 5.66329C6.78713 5.58956 6.76128 5.51584 6.73531 5.44262C6.7348 5.44116 6.73131 5.44211 6.73087 5.44364C6.70496 5.52981 6.67854 5.61598 6.65263 5.70215C6.56894 5.72209 6.48474 5.74152 6.40111 5.75993C6.40009 5.76044 6.39964 5.76095 6.39863 5.76248C6.39812 5.76394 6.39863 5.76444 6.40009 5.76546C6.46785 5.79937 6.5356 5.83271 6.60336 5.86605C6.57745 5.95228 6.55154 6.03794 6.52563 6.12361Z"
    fill="white" />
  <path
    d="M7.9531 5.74662C7.9531 5.74764 7.9531 5.7491 7.95412 5.7496C7.95513 5.7496 7.95609 5.7496 7.9571 5.74859C8.02486 5.67937 8.09312 5.61009 8.16081 5.54037C8.22857 5.57028 8.29626 5.59968 8.36402 5.62902C8.36452 5.62851 8.36554 5.62851 8.36605 5.628C8.36706 5.628 8.36852 5.62698 8.36852 5.62502C8.36852 5.62502 8.36852 5.624 8.36802 5.624C8.34211 5.55224 8.3162 5.48004 8.29029 5.40829C8.35798 5.33907 8.42631 5.26935 8.494 5.20007C8.49502 5.19861 8.49502 5.19759 8.49502 5.19657C8.49451 5.19505 8.494 5.19505 8.49254 5.19556C8.40885 5.22051 8.32465 5.24541 8.24101 5.2703C8.21511 5.1981 8.1892 5.1259 8.16329 5.05363C8.16227 5.05262 8.15878 5.05363 8.15827 5.05509C8.13236 5.14279 8.10601 5.22991 8.0801 5.31761C7.99641 5.34205 7.91221 5.36644 7.82857 5.39038C7.82756 5.39089 7.82711 5.3914 7.82661 5.39286C7.82559 5.39438 7.82661 5.39489 7.82711 5.39584C7.89538 5.42575 7.96313 5.45509 8.03133 5.48449C8.00536 5.57174 7.97901 5.65943 7.9531 5.74662Z"
    fill="white" />
  <path
    d="M1.75877 6.13013C1.75724 6.12714 1.75426 6.12663 1.75331 6.12866C1.7274 6.20036 1.702 6.27211 1.67609 6.34387C1.5924 6.31644 1.50819 6.28761 1.42456 6.25719C1.4231 6.25668 1.42209 6.25668 1.42209 6.25668C1.42158 6.2577 1.42209 6.25967 1.42259 6.26018C1.49035 6.33492 1.55855 6.40813 1.6263 6.47983C1.6004 6.55107 1.57449 6.62175 1.54858 6.69198C1.54807 6.69351 1.54858 6.69452 1.54909 6.69547C1.55061 6.69649 1.55163 6.69649 1.55207 6.69649C1.61976 6.67058 1.68809 6.64366 1.75578 6.61578C1.82354 6.68557 1.8918 6.75478 1.95949 6.82254C1.96051 6.82356 1.96051 6.82356 1.96096 6.82356C1.96197 6.82406 1.96394 6.82356 1.96394 6.82254C1.96394 6.82152 1.96343 6.82051 1.96343 6.82051C1.93752 6.73383 1.91161 6.64715 1.88571 6.56047C1.95346 6.53056 2.02173 6.49919 2.08942 6.46732C2.08993 6.46681 2.09043 6.46535 2.08993 6.46433C2.08993 6.46433 2.08847 6.46281 2.08745 6.46281C2.00375 6.44141 1.91955 6.41798 1.83592 6.39308C1.81008 6.30596 1.78468 6.21826 1.75877 6.13013Z"
    fill="white" />
  <path
    d="M3.18455 6.41084C3.18353 6.4083 3.18055 6.40786 3.17909 6.41034C3.15318 6.48806 3.12778 6.56521 3.10187 6.64243C3.01818 6.63399 2.93397 6.62351 2.85034 6.61201C2.84933 6.61201 2.84787 6.61201 2.84787 6.61201C2.84736 6.61348 2.84787 6.615 2.84837 6.61551C2.91607 6.67482 2.98433 6.7326 3.05209 6.78937C3.02618 6.86608 3.00033 6.94279 2.97436 7.01899C2.97385 7.02052 2.97436 7.02153 2.97538 7.02198C2.97588 7.02299 2.97639 7.02299 2.97684 7.02299C2.97728 7.02299 2.9783 7.02299 2.9783 7.02299C3.04605 6.98165 3.11381 6.93981 3.18156 6.89644C3.24983 6.95219 3.31758 7.00655 3.38578 7.06033C3.38578 7.06033 3.38629 7.06084 3.3868 7.06084C3.38877 7.06084 3.38978 7.05982 3.38978 7.05881C3.38978 7.05779 3.38928 7.05735 3.38928 7.05735C3.36337 6.97619 3.33797 6.89498 3.31206 6.81325C3.37981 6.76893 3.44757 6.72359 3.51533 6.67723C3.51583 6.67723 3.51634 6.67577 3.51583 6.67475C3.51583 6.67475 3.51482 6.67329 3.51329 6.67329C3.42966 6.66929 3.34591 6.66383 3.26227 6.65735C3.23637 6.57525 3.21046 6.49301 3.18455 6.41084Z"
    fill="white" />
  <path
    d="M4.47975 6.81714C4.45384 6.89836 4.42844 6.979 4.40253 7.06022C4.40202 7.06168 4.40253 7.0627 4.40304 7.06321C4.40405 7.06371 4.40551 7.06371 4.40602 7.06321C4.47378 7.00993 4.54153 6.95659 4.60929 6.90179C4.67755 6.9456 4.74531 6.98897 4.81351 7.03133C4.81351 7.03133 4.81402 7.03184 4.81503 7.03184C4.81649 7.03184 4.81802 7.03038 4.81802 7.03038C4.81802 7.02834 4.817 7.02834 4.817 7.02834C4.79109 6.95062 4.76569 6.87391 4.73978 6.79675C4.80754 6.74145 4.87529 6.68518 4.94305 6.62791C4.94407 6.6274 4.94451 6.62594 4.94407 6.62492C4.94407 6.62492 4.9426 6.62391 4.94153 6.62441C4.85783 6.63337 4.77369 6.64181 4.69 6.6488C4.66409 6.57107 4.63774 6.49335 4.61183 6.41569C4.61132 6.41321 4.60783 6.41372 4.60738 6.41619C4.58147 6.49792 4.55557 6.57958 4.52966 6.66124C4.44596 6.66721 4.36176 6.67172 4.27807 6.67521C4.27705 6.67572 4.27559 6.67623 4.27559 6.67623C4.27508 6.67769 4.27559 6.67921 4.27661 6.67972C4.34423 6.72602 4.41199 6.7718 4.47975 6.81714Z"
    fill="white" />
  <path
    d="M5.90711 6.62918C5.8812 6.71382 5.8558 6.79803 5.82989 6.88223C5.82938 6.88426 5.82989 6.88521 5.8304 6.88521C5.83186 6.88572 5.83288 6.88521 5.83339 6.88471C5.90114 6.82292 5.9694 6.76069 6.0371 6.69789C6.10485 6.73376 6.17305 6.76863 6.24081 6.80349H6.24227C6.24373 6.80298 6.24475 6.80203 6.24475 6.80101C6.24475 6.8 6.24475 6.79949 6.24475 6.79949C6.21884 6.72532 6.19242 6.65153 6.16658 6.57736C6.23478 6.51361 6.30259 6.44985 6.37079 6.38508C6.3713 6.38457 6.37181 6.3826 6.3713 6.3821C6.37079 6.38159 6.36984 6.38108 6.36883 6.38159C6.28513 6.4 6.20093 6.41791 6.1173 6.43537C6.09139 6.36063 6.06548 6.28589 6.03957 6.21121C6.03856 6.20918 6.03506 6.20969 6.03456 6.21223C6.00865 6.29739 5.9828 6.3826 5.95683 6.46725C5.87263 6.4837 5.78894 6.49913 5.7048 6.51405C5.70429 6.51405 5.70334 6.51456 5.70334 6.51456C5.70283 6.51659 5.70334 6.51754 5.70384 6.51805C5.7716 6.55596 5.83935 6.59279 5.90711 6.62918Z"
    fill="white" />
  <path
    d="M7.46565 5.86678C7.46514 5.86481 7.46114 5.86576 7.46064 5.8683C7.43473 5.95549 7.40933 6.04217 7.38342 6.12884C7.29972 6.15177 7.21552 6.17418 7.13189 6.19609C7.13087 6.1966 7.12941 6.19711 7.12891 6.19806C7.12891 6.19908 7.12941 6.20054 7.12992 6.20054C7.19768 6.23241 7.26594 6.26378 7.33363 6.29465C7.30773 6.38132 7.28188 6.468 7.25591 6.55417C7.2554 6.55621 7.25591 6.55671 7.25692 6.55716C7.25743 6.55767 7.25794 6.55716 7.25845 6.55716C7.25845 6.55716 7.25896 6.55716 7.25991 6.55614C7.32766 6.48889 7.39542 6.42165 7.46318 6.35389C7.53138 6.38431 7.59913 6.41415 7.66739 6.44406C7.6679 6.44457 7.6679 6.44457 7.6679 6.44457C7.66987 6.44406 7.67089 6.44311 7.67089 6.44209C7.67089 6.44063 7.67089 6.44063 7.67089 6.44063C7.64498 6.36786 7.61856 6.29566 7.59265 6.22391C7.66092 6.15513 7.72867 6.08643 7.79687 6.01765C7.79738 6.01664 7.79789 6.01518 7.79738 6.01416C7.79687 6.01365 7.79637 6.01365 7.79491 6.01416C7.71121 6.03804 7.62752 6.06147 7.54382 6.0849C7.51791 6.01226 7.4915 5.93948 7.46565 5.86678Z"
    fill="white" />
  <path
    d="M1.0471 6.47335C1.04659 6.47088 1.0431 6.46884 1.04259 6.47138C1.01669 6.53958 0.990777 6.60785 0.964868 6.67611C0.880666 6.63827 0.796972 6.59839 0.712833 6.5566C0.712325 6.55609 0.711372 6.55609 0.711372 6.55711C0.710356 6.55813 0.711372 6.55959 0.71188 6.5606C0.779636 6.64379 0.847391 6.72552 0.915084 6.80565C0.889175 6.87392 0.863775 6.94116 0.837866 7.00892C0.837358 7.00994 0.837866 7.0114 0.838374 7.0119C0.83939 7.01337 0.840914 7.01445 0.841359 7.01337C0.909114 6.99641 0.977378 6.978 1.04507 6.95806C1.11276 7.0368 1.18052 7.11446 1.24827 7.19072C1.24878 7.19072 1.24929 7.19123 1.25024 7.19174C1.2517 7.19225 1.25221 7.19225 1.25221 7.19028C1.25221 7.18926 1.25221 7.18882 1.25221 7.18882C1.2263 7.09916 1.20046 7.00898 1.17449 6.91881C1.24224 6.89741 1.3105 6.875 1.3782 6.85106C1.37921 6.85106 1.37966 6.85004 1.37921 6.84858C1.37921 6.84756 1.37775 6.84661 1.37674 6.84604C1.29304 6.81467 1.20884 6.78127 1.12521 6.74596C1.09943 6.65516 1.07301 6.56448 1.0471 6.47335Z"
    fill="white" />
  <path
    d="M2.47542 6.91715C2.4744 6.91416 2.47097 6.91365 2.47046 6.91613C2.44456 6.99036 2.41916 7.06504 2.39325 7.13927C2.30905 7.12232 2.22535 7.10289 2.14121 7.0825C2.1402 7.08199 2.13918 7.0825 2.13867 7.08352C2.13867 7.08454 2.13867 7.086 2.13969 7.0865C2.20744 7.15274 2.27564 7.21751 2.3434 7.28126C2.31749 7.35543 2.29158 7.42966 2.26567 7.50345C2.26517 7.50491 2.26567 7.50593 2.26618 7.50644C2.26771 7.5079 2.26872 7.5079 2.26917 7.50745C2.33686 7.4731 2.40519 7.43824 2.47288 7.40236C2.54063 7.46459 2.60839 7.52587 2.67614 7.58664H2.67811C2.67913 7.58715 2.68065 7.58664 2.68065 7.58511C2.68065 7.5841 2.68065 7.58365 2.68065 7.58365C2.65474 7.49996 2.62833 7.41576 2.60242 7.33213C2.67068 7.29479 2.73844 7.25592 2.80664 7.21655C2.80715 7.21605 2.80766 7.21509 2.80715 7.21357C2.80664 7.21255 2.80613 7.21204 2.80467 7.21204C2.72098 7.1996 2.63677 7.18614 2.55314 7.17071C2.52723 7.086 2.50133 7.00179 2.47542 6.91715Z"
    fill="white" />
  <path
    d="M3.90322 7.0502C3.90271 7.04772 3.89922 7.04772 3.8982 7.0502C3.87229 7.12989 3.84689 7.20958 3.82098 7.28877C3.73684 7.28826 3.65315 7.28579 3.56895 7.28229C3.56895 7.28229 3.56691 7.2828 3.56641 7.28375C3.56641 7.28521 3.56641 7.28623 3.56742 7.28674C3.63511 7.33906 3.70338 7.39037 3.77113 7.44066C3.74523 7.51991 3.71932 7.5991 3.69341 7.67829C3.6929 7.67975 3.69341 7.68076 3.69442 7.68127C3.69544 7.68229 3.69588 7.68229 3.69741 7.68127C3.76516 7.63345 3.83292 7.58513 3.90068 7.53579C3.96843 7.58507 4.03669 7.6339 4.10439 7.68171H4.10585C4.10731 7.68171 4.10832 7.68121 4.10832 7.67975C4.10832 7.67873 4.10832 7.67829 4.10832 7.67829C4.08242 7.59904 4.05606 7.51985 4.03015 7.44117C4.09791 7.39088 4.16617 7.33957 4.23387 7.28775C4.23488 7.28725 4.23583 7.28629 4.23488 7.28477C4.23437 7.28375 4.23387 7.28331 4.23285 7.28331C4.14922 7.28629 4.06495 7.28826 3.98132 7.28928C3.95554 7.20958 3.92912 7.12989 3.90322 7.0502Z"
    fill="white" />
  <path
    d="M5.32893 6.94156C5.32843 6.93909 5.32493 6.9396 5.32449 6.94207C5.29858 7.02577 5.27216 7.10895 5.24626 7.19214C5.16256 7.20408 5.07836 7.21456 4.99466 7.22402C4.99416 7.22452 4.9932 7.22503 4.99219 7.22599C4.99219 7.22745 4.99219 7.22853 4.99365 7.22897C5.0614 7.27031 5.12916 7.31114 5.19692 7.35153C5.17101 7.43471 5.1451 7.5179 5.11919 7.60058C5.11919 7.6021 5.11919 7.60312 5.12021 7.60356C5.12122 7.60401 5.12268 7.60407 5.12319 7.60305C5.19095 7.54527 5.25921 7.48647 5.32697 7.42722C5.39472 7.46703 5.46248 7.5059 5.53017 7.54425C5.53068 7.54425 5.53118 7.54425 5.5322 7.54374C5.53322 7.54374 5.53417 7.54324 5.53417 7.54127V7.53981C5.50826 7.46456 5.48235 7.38937 5.45644 7.31362C5.5242 7.25386 5.59189 7.19354 5.65971 7.13232C5.66117 7.13181 5.66117 7.13086 5.66117 7.12934C5.66016 7.12832 5.65971 7.12788 5.65863 7.12832C5.57494 7.1428 5.49073 7.1562 5.4071 7.16915C5.38126 7.09352 5.35491 7.01732 5.32893 6.94156Z"
    fill="white" />
  <path
    d="M6.75862 6.65816C6.7576 6.65569 6.75411 6.6567 6.7536 6.65918C6.7277 6.74535 6.70134 6.83152 6.67543 6.91718C6.59174 6.93757 6.50805 6.957 6.42435 6.97548C6.42289 6.97599 6.42238 6.97649 6.42188 6.97796C6.42188 6.97897 6.42187 6.97992 6.42289 6.98043C6.49065 7.01434 6.55891 7.04819 6.6266 7.08159C6.60069 7.16725 6.57428 7.25291 6.54843 7.33858C6.54843 7.34004 6.54843 7.34156 6.54945 7.34156C6.55046 7.34258 6.55142 7.34207 6.55243 7.34105C6.62019 7.27577 6.68845 7.21005 6.75614 7.14426C6.8239 7.17716 6.89159 7.20948 6.95935 7.24187C6.96036 7.24136 6.96087 7.24136 6.96138 7.24136C6.9624 7.24085 6.96386 7.2399 6.96386 7.23837C6.96386 7.23837 6.96386 7.23691 6.96335 7.23736C6.93744 7.16414 6.91153 7.09143 6.88562 7.01815C6.95332 6.95192 7.02164 6.88518 7.08933 6.81838C7.09035 6.81736 7.09035 6.81641 7.09035 6.81488C7.08984 6.81387 7.08933 6.81387 7.08787 6.81387C7.00418 6.83578 6.91998 6.85724 6.83635 6.87813C6.81044 6.80511 6.78453 6.73138 6.75862 6.65816Z"
    fill="white" />
  <path
    d="M8.1844 6.26815C8.18389 6.26618 8.1804 6.26713 8.17939 6.26961C8.15348 6.3573 8.12757 6.44442 8.10166 6.53161C8.01797 6.556 7.93376 6.58044 7.85013 6.60483C7.84867 6.60483 7.84816 6.60584 7.84766 6.6068C7.84766 6.60832 7.84766 6.60934 7.84867 6.60934C7.91643 6.63925 7.98469 6.66909 8.05238 6.69849C8.02648 6.78568 8.00012 6.87331 7.97421 6.9605C7.97421 6.96196 7.97421 6.96297 7.97567 6.96297C7.97618 6.96348 7.9772 6.96348 7.97866 6.96196C8.04641 6.89319 8.11411 6.82397 8.18193 6.75475C8.24962 6.78409 8.31788 6.81298 8.38564 6.84239C8.38615 6.84188 8.38665 6.84188 8.3871 6.84188C8.38856 6.84137 8.38964 6.84042 8.38964 6.83889C8.38964 6.83788 8.38964 6.83743 8.38913 6.83743C8.36322 6.76568 8.33738 6.69398 8.3114 6.62223C8.37916 6.5525 8.44742 6.48329 8.51512 6.4135C8.51613 6.41248 8.51613 6.41153 8.51613 6.41001C8.51562 6.4095 8.51467 6.40899 8.51416 6.40899C8.43047 6.43439 8.34627 6.45928 8.26264 6.48418C8.23673 6.4121 8.21031 6.34035 8.1844 6.26815Z"
    fill="white" />
  <path
    d="M1.13929 7.95518C1.11338 7.86501 1.08747 7.77433 1.06157 7.6832C1.06055 7.68022 1.05757 7.6792 1.05655 7.68124C1.03064 7.7495 1.00473 7.8177 0.978824 7.88596C0.89513 7.84862 0.810927 7.80875 0.727296 7.76741C0.725836 7.76639 0.72482 7.76639 0.72482 7.76741C0.724312 7.76893 0.72482 7.76995 0.725328 7.7709C0.79302 7.85358 0.861283 7.93524 0.929039 8.01595C0.903131 8.08364 0.877286 8.15146 0.851314 8.21865C0.850806 8.22011 0.851314 8.22061 0.85233 8.22265C0.852838 8.22315 0.853346 8.22315 0.85379 8.22366C0.854298 8.22366 0.855314 8.22417 0.855314 8.22417C0.92307 8.20677 0.99127 8.18778 1.05903 8.16791C1.12678 8.24659 1.19504 8.32431 1.26274 8.40051C1.26324 8.40102 1.26375 8.40102 1.26375 8.40102C1.26375 8.40102 1.26375 8.40102 1.26426 8.40153C1.26572 8.40204 1.26674 8.40102 1.26674 8.40007C1.26674 8.39861 1.26623 8.3981 1.26623 8.3981C1.24032 8.30844 1.21492 8.21877 1.18901 8.1286C1.25677 8.10669 1.32452 8.08428 1.39228 8.05989C1.39279 8.05989 1.3933 8.05888 1.39279 8.05735C1.39279 8.05634 1.39177 8.05538 1.39025 8.05488C1.30662 8.02338 1.22292 7.99049 1.13929 7.95518Z"
    fill="white" />
  <path
    d="M2.56701 8.37725C2.54111 8.2926 2.51526 8.2084 2.48929 8.12369C2.48827 8.1207 2.48529 8.1202 2.48434 8.12267C2.45843 8.19741 2.43252 8.27158 2.40661 8.34632C2.32292 8.32892 2.23871 8.31045 2.15502 8.29006C2.154 8.28955 2.15254 8.28955 2.15254 8.29057C2.15204 8.29203 2.15254 8.29305 2.15356 8.29406C2.22131 8.35985 2.28907 8.42456 2.35683 8.48838C2.33092 8.56254 2.30552 8.63678 2.27961 8.7105C2.27859 8.71203 2.27961 8.71253 2.28012 8.714C2.28113 8.71501 2.28259 8.71501 2.2831 8.71501C2.35136 8.68066 2.41912 8.64529 2.48732 8.6089C2.55508 8.6717 2.62283 8.73298 2.69059 8.79299C2.69059 8.79299 2.6911 8.79299 2.6916 8.79401C2.69357 8.79401 2.69459 8.79299 2.69459 8.79197C2.69459 8.79001 2.69408 8.79001 2.69408 8.79001C2.66817 8.70606 2.64277 8.62236 2.61686 8.53822C2.68462 8.50089 2.75237 8.46202 2.82013 8.42265C2.82115 8.42214 2.82159 8.42119 2.82115 8.41967C2.82115 8.41865 2.81968 8.41821 2.81867 8.4177C2.73491 8.40563 2.65077 8.39217 2.56701 8.37725Z"
    fill="white" />
  <path
    d="M3.99236 8.49243C3.96645 8.41325 3.94055 8.33355 3.91464 8.25386C3.91362 8.25132 3.91064 8.25132 3.90962 8.25386C3.88371 8.33355 3.85787 8.41325 3.8319 8.49294C3.7482 8.49192 3.66451 8.48996 3.58088 8.48646C3.57935 8.48646 3.57834 8.48697 3.57834 8.48799C3.57783 8.48945 3.57834 8.49046 3.57884 8.49097C3.6466 8.5433 3.71435 8.5941 3.78211 8.64439C3.7562 8.72408 3.7308 8.80352 3.70489 8.88226C3.70438 8.88328 3.70489 8.8843 3.7054 8.88525C3.70686 8.88627 3.70788 8.88626 3.70839 8.88626C3.77614 8.83743 3.8444 8.78962 3.9121 8.73951C3.97985 8.78962 4.04805 8.83743 4.11581 8.88525H4.11727C4.11873 8.88525 4.12025 8.88423 4.12025 8.88322C4.12025 8.8822 4.11975 8.88125 4.11975 8.88125C4.09384 8.80257 4.06793 8.72358 4.04202 8.64439C4.10978 8.5941 4.17804 8.54279 4.24573 8.49097C4.24573 8.49097 4.24675 8.48951 4.24624 8.48799C4.24624 8.48697 4.24478 8.48646 4.24376 8.48646C4.16026 8.48996 4.07606 8.49199 3.99236 8.49243Z"
    fill="white" />
  <path
    d="M5.42205 8.37136C5.39614 8.29567 5.37023 8.21941 5.34432 8.14371C5.34382 8.14124 5.34083 8.14174 5.33931 8.14422C5.3134 8.22791 5.288 8.3111 5.26209 8.3948C5.1784 8.40629 5.09419 8.41721 5.0105 8.42667C5.00904 8.42667 5.00751 8.42769 5.00802 8.42864C5.00751 8.4301 5.00802 8.43061 5.00853 8.43163C5.07629 8.47297 5.14455 8.5138 5.21231 8.55367C5.1864 8.63686 5.16049 8.72005 5.13458 8.80298C5.13407 8.80495 5.13458 8.80495 5.1356 8.80597C5.13661 8.80698 5.13756 8.80698 5.13858 8.80597C5.20634 8.74793 5.27409 8.68919 5.34185 8.62988C5.41005 8.66925 5.47787 8.70805 5.54607 8.7464H5.54708C5.54912 8.74589 5.55007 8.74443 5.55007 8.74342C5.55007 8.7424 5.54956 8.74196 5.54956 8.74196C5.52365 8.66671 5.49825 8.59101 5.47234 8.51576C5.5401 8.4555 5.60779 8.39524 5.67555 8.33396C5.67605 8.33345 5.67656 8.3325 5.67605 8.33098C5.67605 8.32996 5.67504 8.32996 5.67358 8.32996C5.58988 8.3445 5.50574 8.35841 5.42205 8.37136Z"
    fill="white" />
  <path
    d="M6.8482 8.07865C6.82229 8.00543 6.79588 7.93222 6.77003 7.859C6.76952 7.85652 6.76654 7.85703 6.76552 7.86002C6.73961 7.94619 6.71371 8.03191 6.6878 8.11802C6.6041 8.13796 6.5199 8.15739 6.43627 8.17632C6.43525 8.17682 6.43379 8.17778 6.43379 8.17828C6.43329 8.18025 6.43379 8.18127 6.43481 8.18127C6.50256 8.21512 6.57026 8.24896 6.63808 8.28186C6.61217 8.36803 6.58677 8.45375 6.56086 8.53942C6.55984 8.54088 6.56086 8.54138 6.56137 8.54291C6.56238 8.54291 6.56384 8.54291 6.56435 8.54189C6.63211 8.47668 6.69986 8.41089 6.76755 8.34517C6.83582 8.37806 6.90357 8.41038 6.97177 8.44283C6.97177 8.44232 6.97228 8.44232 6.97279 8.44232C6.97482 8.44181 6.97533 8.44029 6.97533 8.43934V8.43788C6.94942 8.36466 6.92351 8.29195 6.8976 8.21867C6.9653 8.15244 7.03356 8.0857 7.10132 8.0189C7.10233 8.01788 7.10278 8.01693 7.10233 8.0154C7.10233 8.01439 7.10087 8.01439 7.09986 8.01439C7.01603 8.0363 6.93189 8.0577 6.8482 8.07865Z"
    fill="white" />
  <path
    d="M8.52733 7.60927C8.44363 7.63423 8.35943 7.65912 8.2758 7.68401C8.24989 7.61232 8.22398 7.54005 8.19807 7.46785C8.19706 7.46588 8.19356 7.46684 8.19306 7.46931C8.16715 7.55701 8.14124 7.64413 8.11533 7.73132C8.03113 7.75627 7.94744 7.78066 7.8633 7.80454C7.86279 7.80454 7.86184 7.80555 7.86133 7.8065C7.86133 7.80796 7.86133 7.80904 7.86234 7.80949C7.93004 7.8394 7.99779 7.86873 8.06555 7.89814C8.03964 7.98583 8.01424 8.07295 7.98833 8.16014C7.98782 8.1616 7.98833 8.16211 7.98884 8.16313C7.9903 8.16313 7.99131 8.16313 7.99182 8.16262C8.05958 8.0934 8.12784 8.02368 8.19553 7.9544C8.26329 7.9838 8.33105 8.0132 8.3988 8.04254C8.39931 8.04203 8.40026 8.04203 8.40077 8.04203C8.40223 8.04152 8.40325 8.03955 8.40325 8.03854C8.40325 8.03752 8.40325 8.03701 8.40325 8.03701C8.37734 7.96532 8.35098 7.89356 8.32508 7.82181C8.39334 7.75208 8.46109 7.68236 8.52929 7.61264C8.5298 7.61213 8.53031 7.61117 8.5298 7.60965C8.5298 7.60876 8.52834 7.60876 8.52733 7.60927Z"
    fill="white" />
  <path
    d="M1.12171 9.16643C1.0958 9.07575 1.0699 8.98513 1.04399 8.89344C1.04297 8.89147 1.03999 8.88944 1.03954 8.89147C1.01363 8.96024 0.987218 9.02895 0.961309 9.0967C0.877678 9.05879 0.793413 9.01898 0.709782 8.97713C0.708766 8.97612 0.707242 8.97612 0.707242 8.97713C0.706734 8.97713 0.707242 8.9791 0.70775 8.98012C0.775505 9.06375 0.843769 9.14547 0.911461 9.22618C0.885553 9.29394 0.859644 9.36169 0.833736 9.42939C0.833228 9.42939 0.833736 9.43135 0.834752 9.43237C0.835768 9.43345 0.83672 9.43345 0.838244 9.43345C0.906 9.41649 0.973755 9.39852 1.04151 9.37865C1.10927 9.45733 1.17753 9.53505 1.24522 9.61074C1.24573 9.61271 1.24573 9.61271 1.24624 9.61271H1.24675C1.24821 9.61373 1.24922 9.61271 1.24922 9.6117C1.24922 9.61068 1.24871 9.60973 1.24871 9.60973C1.22281 9.51905 1.19741 9.42939 1.1715 9.33972C1.23925 9.31781 1.30701 9.29495 1.3747 9.27101C1.37521 9.27101 1.37572 9.27 1.37521 9.26905C1.37521 9.26803 1.37419 9.26708 1.37267 9.26708C1.2891 9.2352 1.20541 9.20231 1.12171 9.16643Z"
    fill="white" />
  <path
    d="M2.54937 9.5916C2.52346 9.50796 2.49762 9.42224 2.47165 9.33753C2.47063 9.33556 2.46765 9.33454 2.46669 9.33651C2.44079 9.41125 2.41488 9.48599 2.38897 9.56067C2.30527 9.54372 2.22107 9.52378 2.13744 9.50384C2.13643 9.50282 2.13496 9.50384 2.13496 9.50485C2.13446 9.50485 2.13496 9.50689 2.13598 9.50689C2.20374 9.57362 2.27149 9.63833 2.33925 9.70209C2.31334 9.77683 2.28794 9.85055 2.26203 9.92428C2.26152 9.92529 2.26203 9.92625 2.26254 9.92726C2.26355 9.92828 2.26502 9.92923 2.26552 9.92828C2.33328 9.89443 2.40103 9.85951 2.46879 9.82369C2.53699 9.88548 2.60481 9.9472 2.67301 10.008C2.67301 10.008 2.67352 10.009 2.67447 10.009C2.67599 10.009 2.67745 10.008 2.67745 10.007C2.67745 10.0061 2.67644 10.0051 2.67644 10.0051C2.65053 9.92142 2.62513 9.83766 2.59922 9.75301C2.66698 9.71612 2.73467 9.67732 2.80242 9.63744C2.80344 9.63744 2.80395 9.63547 2.80344 9.63547C2.80344 9.63446 2.80192 9.63351 2.8009 9.63351C2.71721 9.6215 2.63307 9.60753 2.54937 9.5916Z"
    fill="white" />
  <path
    d="M3.97661 9.71132C3.9507 9.63163 3.9253 9.55187 3.89939 9.47218C3.89793 9.47021 3.89438 9.47021 3.89393 9.47218C3.86802 9.55187 3.84262 9.63163 3.81671 9.71132C3.73302 9.71031 3.64882 9.70834 3.56519 9.70434C3.56373 9.70434 3.56271 9.70536 3.56271 9.70631C3.5622 9.70631 3.56271 9.70834 3.56322 9.70834C3.63097 9.76111 3.69873 9.81191 3.76649 9.86277C3.74058 9.94247 3.71518 10.0211 3.68927 10.0998C3.68876 10.1018 3.68927 10.1018 3.68978 10.1028C3.69124 10.1038 3.69225 10.1038 3.69276 10.1028C3.76052 10.056 3.82878 10.0072 3.89647 9.95841C3.96423 10.0072 4.03249 10.056 4.10018 10.1038C4.10018 10.1049 4.1012 10.1049 4.10171 10.1049C4.10317 10.1049 4.10469 10.1029 4.10469 10.1019C4.10469 10.1008 4.10418 10.1008 4.10418 10.0999C4.07828 10.0212 4.05186 9.94247 4.02601 9.86379C4.09421 9.81299 4.16197 9.76213 4.23023 9.70936C4.23074 9.70936 4.23125 9.70732 4.23074 9.70732C4.23074 9.70631 4.22928 9.70536 4.22826 9.70536C4.14444 9.70936 4.0603 9.71031 3.97661 9.71132Z"
    fill="white" />
  <path
    d="M5.40326 9.59154C5.37735 9.51585 5.35094 9.44009 5.32509 9.36338C5.32458 9.36142 5.32058 9.36237 5.32007 9.3644C5.29417 9.44809 5.26877 9.53179 5.24286 9.61447C5.15916 9.62641 5.07496 9.63739 4.99127 9.64641C4.99025 9.64641 4.98879 9.64742 4.98828 9.64838C4.98828 9.64838 4.98879 9.65035 4.9893 9.65136C5.05705 9.69226 5.12532 9.73404 5.19301 9.77392C5.1671 9.85755 5.14126 9.94029 5.11528 10.023C5.11478 10.024 5.11528 10.0249 5.1163 10.026C5.11732 10.027 5.11827 10.026 5.11928 10.0249C5.18704 9.96722 5.2548 9.90943 5.32255 9.85063C5.39081 9.88943 5.45857 9.92835 5.52677 9.9662C5.52677 9.96722 5.52728 9.96722 5.52779 9.96722C5.52975 9.96722 5.53026 9.96518 5.53026 9.96417C5.53026 9.96315 5.53026 9.96315 5.53026 9.96315C5.50435 9.88746 5.47895 9.8117 5.45305 9.73601C5.5208 9.67625 5.58856 9.61548 5.65631 9.55478C5.65682 9.5537 5.65733 9.55274 5.65682 9.55173C5.65682 9.55071 5.6558 9.55071 5.65434 9.55071C5.57065 9.56564 5.48695 9.57859 5.40326 9.59154Z"
    fill="white" />
  <path
    d="M6.831 9.30181C6.80509 9.22808 6.77867 9.15436 6.75276 9.0807C6.75225 9.07867 6.74876 9.07968 6.74832 9.08171C6.72241 9.16833 6.6965 9.25406 6.67059 9.34067C6.58639 9.36061 6.50269 9.37953 6.41856 9.39846C6.41805 9.39947 6.41652 9.39947 6.41602 9.40144C6.41602 9.40144 6.41602 9.40252 6.41748 9.40347C6.48523 9.43732 6.55299 9.47117 6.62074 9.50507C6.59483 9.5908 6.56943 9.6764 6.54353 9.76213C6.54302 9.76314 6.54353 9.7641 6.54403 9.7641C6.54505 9.76511 6.54657 9.76511 6.54702 9.76308C6.61471 9.69831 6.68247 9.6336 6.75022 9.56781C6.81849 9.60077 6.88624 9.63265 6.95444 9.66446C6.95444 9.66548 6.95495 9.66548 6.9559 9.66548C6.95736 9.66446 6.95787 9.66351 6.95787 9.66249C6.95787 9.66148 6.95787 9.66053 6.95787 9.66053C6.93196 9.58775 6.90605 9.51403 6.88014 9.44132C6.9479 9.3756 7.01566 9.30879 7.08341 9.2411C7.08487 9.24009 7.08538 9.23913 7.08487 9.23812C7.08386 9.23812 7.08341 9.2371 7.0824 9.23812C6.99889 9.25894 6.91469 9.28085 6.831 9.30181Z"
    fill="white" />
  <path
    d="M8.25828 8.90841C8.23238 8.8357 8.20647 8.76375 8.18056 8.69149C8.17954 8.68952 8.17611 8.69047 8.17554 8.69295C8.14963 8.77988 8.12379 8.86757 8.09782 8.95521C8.01368 8.9801 7.92992 9.00397 7.84578 9.02791C7.84527 9.02791 7.84426 9.02893 7.84375 9.02988C7.84375 9.02988 7.84375 9.03185 7.84477 9.03287C7.91252 9.06278 7.98028 9.09262 8.04803 9.12253C8.02212 9.20921 7.99672 9.2969 7.97082 9.38352C7.97031 9.38454 7.97082 9.38555 7.97132 9.38657C7.97278 9.38657 7.9738 9.38657 7.97431 9.38555C8.04206 9.31678 8.11033 9.24699 8.17802 9.17828L8.38129 9.26496C8.38179 9.26598 8.38275 9.26598 8.38325 9.26598C8.38427 9.26598 8.38573 9.26401 8.38573 9.263C8.38573 9.26192 8.38573 9.26096 8.38573 9.26096C8.35982 9.18927 8.33341 9.11751 8.30756 9.04576C8.37583 8.97603 8.44358 8.90631 8.51178 8.83659C8.51229 8.83557 8.5128 8.83462 8.51229 8.8336C8.51178 8.83258 8.51076 8.83259 8.50975 8.83259C8.42612 8.85862 8.34192 8.88351 8.25828 8.90841Z"
    fill="white" />
  <path
    d="M1.84046 7.59644C1.81455 7.50875 1.78865 7.42112 1.76274 7.33342C1.76172 7.33145 1.75874 7.33044 1.75728 7.33145C1.73137 7.40372 1.70597 7.47541 1.68006 7.54666C1.59643 7.5198 1.51216 7.49091 1.42853 7.46049C1.42752 7.45998 1.42599 7.45998 1.42599 7.4615C1.42548 7.46201 1.42599 7.46354 1.4265 7.46449C1.49426 7.53866 1.56252 7.61143 1.63021 7.68312C1.6043 7.75437 1.57839 7.82562 1.55249 7.8963C1.55198 7.89731 1.55249 7.89877 1.5535 7.89979C1.55452 7.9003 1.55598 7.90131 1.55649 7.9008C1.62424 7.87439 1.69251 7.84753 1.7602 7.81863C1.82795 7.88937 1.89622 7.95859 1.96391 8.02685H1.96492C1.96689 8.02736 1.96791 8.02736 1.96791 8.02539C1.96791 8.02489 1.9674 8.02489 1.9674 8.02489C1.94149 7.9377 1.91609 7.85051 1.89018 7.76339C1.95794 7.73399 2.0257 7.70313 2.09339 7.67118C2.0939 7.67017 2.09491 7.66972 2.0939 7.6682C2.0939 7.66674 2.09288 7.66572 2.09193 7.66572C2.0083 7.64426 1.92409 7.62134 1.84046 7.59644Z"
    fill="white" />
  <path
    d="M3.26785 7.85943C3.24194 7.7777 3.21654 7.69553 3.19063 7.61336C3.18917 7.61139 3.18619 7.61139 3.18568 7.61286C3.15977 7.69007 3.13335 7.76773 3.10745 7.84502C3.02375 7.836 2.93955 7.82609 2.85592 7.8146C2.8549 7.81409 2.85395 7.8146 2.85395 7.81606C2.85293 7.81707 2.85395 7.81803 2.85446 7.81904C2.92221 7.87785 2.98997 7.93512 3.05773 7.99189C3.03182 8.06911 3.00642 8.14582 2.98051 8.22253C2.98 8.22354 2.98051 8.22501 2.98102 8.22551C2.98203 8.22602 2.98349 8.22653 2.98349 8.22653C3.05176 8.18519 3.11996 8.14233 3.18822 8.09902C3.25598 8.15477 3.32373 8.20957 3.39142 8.26336H3.39288C3.39441 8.26387 3.39587 8.26336 3.39587 8.26139C3.39536 8.26088 3.39536 8.26038 3.39485 8.26038C3.36894 8.17865 3.34354 8.0975 3.31763 8.01577C3.38539 7.97145 3.45308 7.92661 3.52084 7.88077C3.52185 7.87975 3.52236 7.8788 3.52185 7.87778C3.52185 7.87632 3.52033 7.87581 3.51931 7.87581C3.43568 7.87188 3.35148 7.86641 3.26785 7.85943Z"
    fill="white" />
  <path
    d="M4.69542 7.85075C4.66952 7.77303 4.64361 7.69536 4.6177 7.61713C4.61668 7.61561 4.6137 7.61612 4.61268 7.61764C4.58677 7.6993 4.56137 7.78154 4.53546 7.8632C4.45177 7.86866 4.36757 7.87368 4.28394 7.87717C4.28248 7.87717 4.28146 7.87768 4.28146 7.87914C4.28095 7.88015 4.28146 7.88111 4.28197 7.88212C4.34972 7.92841 4.41799 7.97375 4.48568 8.01858C4.45977 8.10031 4.43386 8.18146 4.40795 8.26319C4.40745 8.26421 4.40795 8.26567 4.40846 8.26617C4.40992 8.26617 4.41094 8.26618 4.41145 8.26567C4.47971 8.21239 4.54747 8.15854 4.61567 8.1038C4.68342 8.14762 4.75169 8.1915 4.81938 8.2343C4.81938 8.2343 4.81989 8.2343 4.82039 8.23379C4.82243 8.23379 4.82338 8.23328 4.82338 8.23131L4.82287 8.2303C4.79696 8.15308 4.77105 8.07586 4.74514 7.99871C4.81284 7.9434 4.8811 7.88714 4.94886 7.83037C4.94936 7.82935 4.94987 7.82834 4.94936 7.82738C4.94936 7.82592 4.94835 7.82592 4.94689 7.82592C4.86326 7.83481 4.77905 7.84326 4.69542 7.85075Z"
    fill="white" />
  <path
    d="M6.12195 7.63651C6.09604 7.56177 6.06962 7.48754 6.04378 7.41286C6.04327 7.41134 6.03978 7.41236 6.03876 7.41388C6.01285 7.49853 5.98745 7.58374 5.96154 7.66839C5.87785 7.68484 5.79365 7.70027 5.71002 7.71519C5.709 7.71519 5.70754 7.71621 5.70703 7.71773C5.70703 7.71875 5.70754 7.7197 5.70805 7.72072C5.77574 7.75761 5.84407 7.79444 5.91176 7.83083C5.88585 7.91547 5.86001 8.00018 5.83403 8.08483C5.83353 8.08585 5.83403 8.08731 5.83505 8.08782C5.83607 8.08782 5.83753 8.08782 5.83803 8.0868C5.90579 8.02501 5.97348 7.96227 6.04124 7.89947C6.1095 7.93535 6.17726 7.97072 6.24546 8.00558L6.24647 8.00507C6.24844 8.00507 6.24946 8.00406 6.24946 8.00209L6.24895 8.00107C6.22304 7.92684 6.19764 7.85261 6.17173 7.77844C6.23949 7.71513 6.30724 7.65144 6.375 7.58717C6.37551 7.58616 6.37646 7.58463 6.37551 7.58419C6.37551 7.58273 6.37449 7.58222 6.37354 7.58273C6.28984 7.60114 6.20564 7.61911 6.12195 7.63651Z"
    fill="white" />
  <path
    d="M7.54773 7.28581C7.52182 7.2131 7.49547 7.14033 7.46956 7.06762C7.46905 7.06616 7.46556 7.06711 7.46511 7.06864C7.43921 7.15582 7.4133 7.24295 7.38739 7.32963C7.30319 7.35255 7.21949 7.37497 7.13529 7.39687C7.13478 7.39738 7.13383 7.39789 7.13281 7.39986C7.13281 7.40087 7.13383 7.40132 7.13427 7.4024C7.20203 7.43377 7.26978 7.46463 7.33754 7.49555C7.31163 7.58274 7.28623 7.66936 7.26032 7.7561C7.25981 7.75711 7.26032 7.75857 7.26083 7.75908C7.26185 7.75908 7.26331 7.75857 7.26382 7.75807C7.33151 7.69031 7.39977 7.62256 7.46753 7.55436C7.53528 7.58522 7.60304 7.61563 7.67079 7.6465C7.6713 7.64599 7.67181 7.64599 7.67276 7.64548C7.67422 7.64497 7.67575 7.64446 7.67575 7.6425C7.67524 7.64199 7.67524 7.64199 7.67473 7.64148C7.64882 7.56921 7.62342 7.49651 7.59751 7.42431C7.66527 7.35604 7.73302 7.28784 7.80078 7.21913C7.8018 7.21812 7.80224 7.2171 7.8018 7.21615C7.8018 7.21469 7.80034 7.21469 7.79932 7.21469C7.71556 7.23844 7.63142 7.26238 7.54773 7.28581Z"
    fill="white" />
  <path
    d="M1.83599 8.81084C1.81008 8.7239 1.78468 8.63672 1.75877 8.54908C1.75724 8.5461 1.75426 8.54559 1.75331 8.54756C1.7274 8.61932 1.702 8.6905 1.67609 8.76175C1.5924 8.73438 1.50819 8.70549 1.42456 8.67507C1.4231 8.67405 1.42209 8.67558 1.42209 8.67558C1.42158 8.67659 1.42209 8.67856 1.42259 8.67907C1.49035 8.7533 1.55855 8.82677 1.6263 8.89853C1.6004 8.96927 1.57449 9.04001 1.54858 9.11075C1.54807 9.11177 1.54858 9.11373 1.54909 9.11475C1.55061 9.11577 1.55163 9.11577 1.55207 9.11577C1.61976 9.08884 1.68809 9.06192 1.75578 9.03404C1.82354 9.10383 1.8918 9.17355 1.95949 9.24131C1.96051 9.24233 1.96051 9.24232 1.96096 9.24232C1.96197 9.24334 1.96394 9.24233 1.96394 9.24131L1.96343 9.23934C1.93752 9.15266 1.91161 9.06605 1.88571 8.9793C1.95346 8.94939 2.02173 8.91853 2.08942 8.88666C2.08993 8.88564 2.09043 8.88469 2.08993 8.88367C2.08993 8.88266 2.08847 8.88069 2.08745 8.88069C2.00388 8.85967 1.91968 8.83573 1.83599 8.81084Z"
    fill="white" />
  <path
    d="M3.26227 9.07558C3.23637 8.99392 3.21046 8.91124 3.18455 8.82951C3.18353 8.82754 3.18055 8.82653 3.17909 8.82951C3.15318 8.90622 3.12778 8.98293 3.10187 9.06066C3.01818 9.0517 2.93397 9.04173 2.85034 9.02979C2.84933 9.02979 2.84787 9.03081 2.84787 9.03081C2.84736 9.03278 2.84787 9.0338 2.84837 9.03481C2.91607 9.09361 2.98433 9.1514 3.05209 9.20817C3.02618 9.28488 3.00033 9.36159 2.97436 9.4383C2.97385 9.43931 2.97436 9.44027 2.97538 9.44128C2.97639 9.4423 2.97735 9.4423 2.97836 9.44128C3.04612 9.40039 3.11387 9.35765 3.18163 9.31479C3.24989 9.37054 3.31765 9.42534 3.38585 9.47919C3.38585 9.47919 3.38636 9.48021 3.38686 9.48021C3.38883 9.48021 3.38985 9.47919 3.38985 9.47722L3.38934 9.47614C3.36343 9.39448 3.33803 9.31377 3.31212 9.23211C3.37988 9.18829 3.44763 9.14245 3.51539 9.0966C3.5159 9.0966 3.51641 9.09457 3.5159 9.09355C3.5159 9.09355 3.51488 9.09158 3.51336 9.09158C3.42966 9.08758 3.34591 9.08161 3.26227 9.07558Z"
    fill="white" />
  <path
    d="M4.69 9.06643C4.66409 8.9887 4.63774 8.91199 4.61183 8.83427C4.61132 8.83129 4.60834 8.83129 4.60738 8.83427C4.58147 8.916 4.55557 8.99766 4.52966 9.0783C4.44596 9.08434 4.36176 9.08929 4.27807 9.09227C4.27705 9.09329 4.27559 9.09424 4.27559 9.09526C4.27508 9.09634 4.27559 9.09729 4.27661 9.09831C4.34436 9.14415 4.41212 9.18994 4.47987 9.23477C4.45396 9.31643 4.42856 9.39714 4.40266 9.47887C4.40215 9.47988 4.40266 9.48084 4.40316 9.48185H4.40615C4.4739 9.428 4.54166 9.37428 4.60942 9.31942C4.67768 9.36323 4.74543 9.40711 4.81363 9.44998H4.81516C4.81662 9.44998 4.81814 9.44896 4.81814 9.44699H4.81713C4.79122 9.3692 4.76582 9.29154 4.73991 9.21483C4.80767 9.15908 4.87542 9.10326 4.94318 9.04649C4.94419 9.04547 4.94464 9.04452 4.94419 9.04351C4.94419 9.04249 4.94273 9.04154 4.94165 9.04154C4.85783 9.05049 4.77369 9.05944 4.69 9.06643Z"
    fill="white" />
  <path
    d="M6.11736 8.85351C6.09145 8.77909 6.06555 8.70485 6.03964 8.63011C6.03862 8.62815 6.03564 8.62865 6.03462 8.63113C6.00871 8.71578 5.98287 8.80074 5.95689 8.88545C5.8732 8.90139 5.78951 8.91733 5.70588 8.9313C5.70435 8.93231 5.70334 8.93327 5.70334 8.93327C5.70283 8.93524 5.70334 8.93625 5.70384 8.93727C5.7716 8.97416 5.83935 9.01099 5.90711 9.04782C5.8812 9.13253 5.8558 9.21718 5.82989 9.30088C5.82938 9.30284 5.82989 9.30386 5.8304 9.30386C5.83186 9.30488 5.83288 9.30386 5.83339 9.30386C5.90114 9.24112 5.9694 9.17933 6.0371 9.11558C6.10485 9.15139 6.17305 9.18727 6.24081 9.2222H6.24227C6.24373 9.2222 6.24475 9.22118 6.24475 9.21921V9.21813C6.21884 9.14346 6.19293 9.06973 6.16702 8.99601C6.23471 8.93225 6.30304 8.8685 6.37073 8.80373C6.37124 8.80373 6.37175 8.80169 6.37124 8.80074C6.37124 8.80074 6.36978 8.79877 6.36876 8.79973C6.28526 8.81763 6.20106 8.83554 6.11736 8.85351Z"
    fill="white" />
  <path
    d="M7.54382 8.50263C7.51791 8.43037 7.4915 8.35766 7.46565 8.28546C7.46514 8.28298 7.46114 8.28444 7.46064 8.28692C7.43473 8.3736 7.40933 8.46028 7.38342 8.54645C7.29972 8.56937 7.21552 8.59179 7.13189 8.6137C7.13087 8.6142 7.12941 8.61566 7.12891 8.61668C7.12891 8.6177 7.12941 8.61865 7.12992 8.61922C7.19768 8.6511 7.26594 8.68196 7.33363 8.71289C7.30773 8.79982 7.28188 8.8865 7.25591 8.97311C7.2554 8.97419 7.25591 8.97514 7.25692 8.97616C7.25794 8.97616 7.25896 8.97616 7.25991 8.97514C7.32766 8.90739 7.39542 8.83963 7.46318 8.77162C7.53138 8.80172 7.59913 8.83258 7.66739 8.86249C7.6679 8.86351 7.6679 8.86351 7.6679 8.86351H7.66841C7.66987 8.86249 7.67095 8.86148 7.67095 8.85951V8.85849C7.64504 8.7868 7.61863 8.71428 7.59272 8.64208C7.66098 8.57331 7.72874 8.50511 7.79694 8.43634C7.79744 8.43532 7.79795 8.4338 7.79745 8.43285C7.79694 8.43285 7.79643 8.43139 7.79497 8.43183C7.71121 8.45577 7.62752 8.47914 7.54382 8.50263Z"
    fill="white" />
</svg>