<svg width="30" height="36" viewBox="0 0 30 36" fill="none" xmlns="http://www.w3.org/2000/svg">
<path d="M22.1229 18.3697C21.625 16.616 20.7134 15.0599 19.5161 13.7859V8.64554C19.5161 4.11298 15.833 0.426147 11.3004 0.426147C6.76786 0.426147 3.08102 4.11291 3.08102 8.64554V13.7859C1.20649 15.7959 0.0532227 18.4905 0.0532227 21.4525C0.0532227 27.6545 5.09835 32.6997 11.3004 32.6997C12.2084 32.6997 13.1054 32.5898 13.9657 32.3775C14.1598 32.3299 14.2806 32.1285 14.2293 31.9345C14.1817 31.7368 13.984 31.6197 13.7864 31.6673C12.9846 31.865 12.1498 31.9675 11.3004 31.9675C5.50476 31.9675 0.785457 27.2518 0.785457 21.4525C0.785457 15.6532 5.50476 10.9375 11.3004 10.9375C15.9794 10.9375 20.1422 14.0751 21.4163 18.5675C21.4713 18.7615 21.6763 18.875 21.8703 18.8201C22.0643 18.7651 22.1778 18.5637 22.1229 18.3697ZM15.9647 11.234C14.5295 10.575 12.9479 10.2052 11.3003 10.2052C9.63815 10.2052 8.0602 10.5713 6.63595 11.2231V8.64554C6.63595 6.07175 8.73021 3.98115 11.3003 3.98115C13.8742 3.98115 15.9647 6.07168 15.9647 8.64554V11.234Z" fill="white"/>
<path d="M18.8646 19.0403C18.9259 19.2334 19.1318 19.3399 19.3243 19.2785C19.5171 19.2173 19.6236 19.0113 19.5625 18.8187C18.4155 15.2083 15.0957 12.7823 11.3017 12.7823C6.5212 12.7823 2.63208 16.6717 2.63208 21.4523C2.63208 26.2326 6.5212 30.1219 11.3017 30.1219C11.895 30.1219 12.4962 30.0604 13.0887 29.9388C13.2867 29.8984 13.4144 29.7046 13.3738 29.5065C13.3334 29.3088 13.1392 29.1812 12.9417 29.2216C12.3976 29.3331 11.8457 29.3896 11.3017 29.3896C6.92501 29.3896 3.36431 25.8288 3.36431 21.4522C3.36431 17.0752 6.92508 13.5145 11.3017 13.5145C14.7754 13.5146 17.8147 15.7353 18.8646 19.0403Z" fill="white"/>
<path d="M12.8161 21.4892V24.6671C12.8161 25.5018 12.1351 26.1828 11.3003 26.1828C10.4656 26.1828 9.78462 25.5018 9.78462 24.6671V21.4892C9.09633 21.0059 8.67896 20.2041 8.67896 19.351C8.67896 17.6852 10.1947 16.4331 11.8605 16.7845C12.86 16.9932 13.6692 17.806 13.8705 18.8092C14.0792 19.849 13.6581 20.8961 12.8161 21.4892Z" fill="white"/>
<path d="M22.1192 19.9258C17.8063 19.9258 14.2952 23.4369 14.2952 27.7498C14.2952 32.0627 17.8063 35.5738 22.1192 35.5738C26.4357 35.5738 29.9469 32.0627 29.9469 27.7498C29.9469 23.4369 26.4357 19.9258 22.1192 19.9258ZM22.1192 34.8415C18.209 34.8415 15.0274 31.66 15.0274 27.7497C15.0274 23.8396 18.209 20.6579 22.1192 20.6579C26.033 20.6579 29.2146 23.8395 29.2146 27.7497C29.2146 31.66 26.033 34.8415 22.1192 34.8415Z" fill="white"/>
<path d="M19.3322 26.6323C19.5344 26.6323 19.6983 26.4685 19.6983 26.2662V25.5837C19.6983 24.3473 20.7044 23.3412 21.941 23.3412H22.3021C23.5387 23.3412 24.5448 24.3473 24.5448 25.5837C24.5448 26.8204 23.5387 27.8265 22.3021 27.8265H22.1215C21.9193 27.8265 21.7554 27.9903 21.7554 28.1926V30.4401C21.7554 30.6424 21.9193 30.8062 22.1215 30.8062C22.3238 30.8062 22.4877 30.6424 22.4877 30.4401V28.553C24.0421 28.4568 25.277 27.1618 25.277 25.5836C25.277 23.9432 23.9425 22.6089 22.3021 22.6089H21.941C20.3006 22.6089 18.9661 23.9432 18.9661 25.5836V26.2661C18.9661 26.4685 19.13 26.6323 19.3322 26.6323Z" fill="white"/>
<path d="M22.1216 31.8582C21.9194 31.8582 21.7555 32.0219 21.7555 32.2243V32.5228C21.7555 32.7252 21.9194 32.8889 22.1216 32.8889C22.3238 32.8889 22.4877 32.7252 22.4877 32.5228V32.2243C22.4877 32.0219 22.3238 31.8582 22.1216 31.8582Z" fill="white"/>
</svg>
