<svg width="20" height="20" viewBox="0 0 20 20" fill="none" xmlns="http://www.w3.org/2000/svg">
<path fill-rule="evenodd" clip-rule="evenodd" d="M4.05469 2.27344C4.05469 2.11597 4.11724 1.96494 4.22859 1.85359C4.33994 1.74224 4.49097 1.67969 4.64844 1.67969H15.3359C15.4934 1.67969 15.6444 1.74224 15.7558 1.85359C15.8671 1.96494 15.9297 2.11597 15.9297 2.27344V8.80469H14.7422V2.86719H5.24219V17.1172H8.80469V18.3047H4.64844C4.49097 18.3047 4.33994 18.2421 4.22859 18.1308C4.11724 18.0194 4.05469 17.8684 4.05469 17.7109V2.27344ZM13.5547 6.42969H6.42969V5.24219H13.5547V6.42969ZM11.1797 8.80469H6.42969V7.61719H11.1797V8.80469ZM8.80469 14.1484C8.80469 13.0461 9.24258 11.989 10.022 11.2095C10.8015 10.4301 11.8586 9.99219 12.9609 9.99219C13.1184 9.99219 13.2694 10.0547 13.3808 10.1661C13.4921 10.2774 13.5547 10.4285 13.5547 10.5859V13.5547H16.5234C16.6809 13.5547 16.8319 13.6172 16.9433 13.7286C17.0546 13.8399 17.1172 13.991 17.1172 14.1484C17.1172 15.2507 16.6793 16.3079 15.8998 17.0873C15.1204 17.8668 14.0632 18.3047 12.9609 18.3047C11.8586 18.3047 10.8015 17.8668 10.022 17.0873C9.24258 16.3079 8.80469 15.2507 8.80469 14.1484Z" fill="#68CFF7"/>
</svg>
