<svg width="168" height="81" viewBox="0 0 168 81" fill="none" xmlns="http://www.w3.org/2000/svg">
<mask id="path-1-inside-1_227_3885" fill="white">
<path d="M0 0H167.5V80.414H0V0Z"/>
</mask>
<path d="M0 80.414H1V0H0H-1V80.414H0Z" fill="#68CFF7" mask="url(#path-1-inside-1_227_3885)"/>
<mask id="mask0_227_3885" style="mask-type:luminance" maskUnits="userSpaceOnUse" x="3" y="54" width="41" height="15">
<path d="M3.2774 54.7798H43.0747V68.1364H3.2774V54.7798Z" fill="white"/>
</mask>
<g mask="url(#mask0_227_3885)">
<path d="M3.66157 55.1052C4.36022 55.8734 7.58827 56.9067 19.8658 56.9488C39.4828 57.0183 42.9468 56.1294 42.9468 56.1294C42.9468 56.1294 40.4869 63.3976 39.3932 67.9534C39.3932 67.9534 34.6307 65.0838 31.9641 59.683C31.9641 59.683 20.89 60.2299 5.71545 59.341C5.71545 59.341 5.1686 61.5284 5.71545 66.0403C5.71545 66.0403 3.19337 61.7479 3.66157 55.1052Z" fill="#68CFF7"/>
</g>
<path d="M25.4441 33.4326C25.4349 33.3302 25.413 33.2314 25.391 33.1309C25.2831 32.734 25.0454 32.37 24.7143 32.1012C24.3705 31.8378 23.9663 31.6787 23.478 31.6513C22.9805 31.5964 22.4812 31.5434 21.9838 31.4519C22.4812 31.3623 22.9805 31.3074 23.478 31.2526C23.5987 31.2361 23.7304 31.2324 23.8712 31.2288C24.0084 31.2343 24.1492 31.2416 24.2864 31.2708C24.5625 31.3202 24.8277 31.4281 25.0728 31.5744C25.2356 31.6714 25.3856 31.7903 25.5209 31.9238L43.9272 30.7222L26.2616 33.76L26.2671 34.5007C26.2671 35.4975 26.2433 36.4924 26.1775 37.4892C26.1171 38.4841 26.0293 39.479 25.8574 40.4758C25.6873 39.479 25.5977 38.4841 25.5374 37.4892C25.4733 36.4924 25.4477 35.4975 25.4477 34.5007L25.4532 33.7545L25.4551 33.6612L25.4532 33.5844C25.4496 33.535 25.4532 33.482 25.4441 33.4326Z" fill="#68CFF7"/>
<path d="M36.2016 43.574C42.0359 38.378 48.1427 40.4758 48.1427 40.4758C41.9444 40.4758 36.2016 43.574 36.2016 43.574ZM41.9902 50.1362C41.9902 50.1362 40.805 53.9641 38.1622 54.6024C35.5194 55.2407 24.5368 55.2407 24.5368 55.2407C24.5368 55.2407 25.2189 51.6395 30.0052 51.0927C34.7897 50.5458 41.9902 50.1362 41.9902 50.1362ZM61.7681 56.1295C61.7681 56.1295 62.1906 52.7241 60.9744 49.2802L69.5941 48.7114L60.422 47.9579C60.1093 47.3233 59.7289 46.7015 59.268 46.1144H75.4393L66.3477 44.9731V20.2424C66.3477 19.6736 66.046 19.178 65.5961 18.9018V6.3152C65.5961 4.75512 66.6568 3.41635 68.1748 3.05788L69.7093 2.69576L70.1921 0.896099L67.7981 1.46124C65.5357 1.99345 63.9555 3.99064 63.9555 6.3152V13.9016C62.0406 13.3273 56.5447 11.8916 49.8271 12.0745V5.45926C49.8271 3.90102 50.8879 2.56042 52.4059 2.20378L53.9422 1.83982L54.425 0.0419922L52.0309 0.6053C49.7667 1.13935 48.1865 3.1347 48.1865 5.45926V12.1531C42.0377 12.561 35.0713 14.4137 28.9573 19.467L30.232 21.2447L29.5041 27.3039C29.5041 27.3039 41.4433 26.3017 49.0992 26.1663C49.0992 26.1663 51.6981 21.9506 51.5591 17.0052C51.5591 17.0052 51.4676 16.1402 49.2363 16.1402C47.0032 16.1402 36.9314 16.5498 30.8703 19.9224C30.8703 19.9224 34.4257 16.2773 47.7769 15.5933C47.7769 15.5933 52.607 14.7282 52.4717 17.0967L52.0602 26.1663L60.4915 27.3039L60.9012 18.783L53.655 17.735L52.5632 25.1183L53.2911 16.8699C53.2911 16.8699 58.7577 17.1973 63.9555 18.3952V18.9018C63.5038 19.178 63.2038 19.6736 63.2038 20.2424V44.5781L56.5337 43.7386C51.8791 41.0098 47.5501 43.7569 47.5501 43.7569C47.5501 43.7569 50.33 41.1616 55.2956 42.5279C55.2956 42.5279 50.694 38.8353 43.7898 39.1754C36.8856 39.5174 32.2713 46.3887 30.9051 49.6003C30.9051 49.6003 38.9468 48.7151 43.1753 48.8139C43.1753 48.8139 35.2451 49.4302 29.3669 50.4562C23.4888 51.4804 23.0773 56.1295 23.0773 56.1295C23.0773 56.1295 34.5611 56.1295 43.1753 55.0359C43.1753 55.0359 48.0274 45.1231 54.1123 45.3974C60.1952 45.6699 61.7681 56.1295 61.7681 56.1295Z" fill="#68CFF7"/>
<path d="M14.5107 53.7832H12.4934V35.5982H14.5107V53.7832ZM13.5871 34.2942C13.5871 34.7971 12.8025 35.2068 11.8332 35.2068C10.8639 35.2068 10.0793 34.7971 10.0793 34.2942C10.0793 33.7912 10.8639 33.3834 11.8332 33.3834C12.8025 33.3834 13.5871 33.7912 13.5871 34.2942ZM9.62385 35.7189C9.89453 35.6439 10.178 35.5982 10.4652 35.5982H11.1729V53.7832H9.62385V35.7189ZM8.30154 53.6917C7.7236 53.4832 7.31026 52.9327 7.31026 52.2835V38.7549C7.31026 38.0124 7.5718 37.2918 8.05098 36.723C8.12962 36.6297 8.21375 36.5419 8.30154 36.4596V53.6917ZM15.8312 35.5982H17.6729V53.7832H15.8312V35.5982ZM18.9934 35.6037C20.2517 35.6586 21.2558 36.6919 21.2558 37.963V50.8093C21.2558 52.2048 20.292 53.3735 18.9934 53.6917V35.6037ZM26.428 28.085C26.428 28.085 16.8883 29.5408 9.1081 33.601C8.12962 34.1131 7.32673 34.9032 6.8128 35.8799C6.40678 36.6535 6.19462 37.5149 6.19462 38.3873V49.0883C6.19462 49.0883 1.81984 54.694 6.19462 54.9665C6.19462 54.9665 11.9722 56.1224 18.7904 55.8407C20.2499 55.7822 21.5905 55.0177 22.3769 53.785C22.8342 53.0681 23.0774 52.2359 23.0774 51.3873V35.28C23.0774 35.28 23.3975 31.5892 15.2405 32.2732L26.4957 29.0379L43.9271 27.4869C43.9271 27.4869 35.0404 27.3845 26.428 28.085Z" fill="#68CFF7"/>
<path d="M54.0008 46.6942C57.9878 47.241 60.7989 51.8316 61.1957 57.7079C59.921 55.4456 58.0921 53.9404 55.9156 53.6422C52.4828 53.1704 49.0791 55.8223 46.9466 60.1166H43.0034C43.0181 60.0014 43.0272 59.888 43.0437 59.7728C44.1282 51.8682 49.0352 46.012 54.0008 46.6942Z" fill="#68CFF7"/>
<mask id="mask1_227_3885" style="mask-type:luminance" maskUnits="userSpaceOnUse" x="67" y="1" width="63" height="44">
<path d="M67.4214 1.40454H129.003V44.9475H67.4214V1.40454Z" fill="white"/>
</mask>
<g mask="url(#mask1_227_3885)">
<path d="M82.9124 44.7134L67.6921 43.574V7.98313L84.8273 1.78491L120.008 13.3602L86.1021 5.5214L85.5589 11.5971L128.893 22.5852L85.2187 15.3939L84.3993 24.5586L120.965 30.563L84.114 27.7391L83.4849 34.7768L108.428 37.33H83.2563L82.9124 41.1579V5.5214L69.8795 10.0791V40.4758L82.9124 44.7134Z" fill="#68CFF7"/>
</g>
<path d="M94.0281 59.8603V54.3443H101.373V58.9751C101.373 63.8327 99.0905 66.2615 94.5255 66.2615H87.5683C83.0033 66.2615 80.7208 63.8327 80.7208 58.9751V36.7281C80.7208 31.8705 83.0033 29.4417 87.5683 29.4417H94.5255C99.0905 29.4417 101.373 31.8705 101.373 36.7281V40.1006H94.0281V35.7917C94.0281 35.499 93.9256 35.243 93.7208 35.0235C93.5196 34.8004 93.2745 34.687 92.9819 34.687H89.4997C89.207 34.687 88.9583 34.8004 88.7535 35.0235C88.5523 35.243 88.4535 35.499 88.4535 35.7917V59.8603C88.4535 60.1529 88.5523 60.4126 88.7535 60.6357C88.9583 60.8552 89.207 60.965 89.4997 60.965H92.9819C93.2745 60.965 93.5196 60.8552 93.7208 60.6357C93.9256 60.4126 94.0281 60.1529 94.0281 59.8603Z" fill="#68CFF7"/>
<path d="M103.962 36.5673V29.9978H123.283V36.5673H117.489V65.713H109.756V36.5673H103.962Z" fill="#68CFF7"/>
<path d="M146.632 39.3837H139.295V36.5671C139.295 36.2708 139.192 36.0111 138.987 35.7917C138.786 35.5722 138.538 35.4625 138.241 35.4625H135.205C134.913 35.4625 134.664 35.5722 134.459 35.7917C134.258 36.0111 134.159 36.2708 134.159 36.5671V42.9098C134.159 43.2079 134.258 43.4658 134.459 43.6853C134.664 43.9048 134.913 44.0145 135.205 44.0145H140.173C144.738 44.0931 147.02 46.522 147.02 51.3009V58.9751C147.02 63.8327 144.738 66.2615 140.173 66.2615H133.662C129.097 66.2615 126.814 63.8327 126.814 58.9751V55.2807H134.159V59.2531C134.159 59.5457 134.258 59.8054 134.459 60.0285C134.664 60.248 134.913 60.3577 135.205 60.3577H138.629C138.925 60.3577 139.174 60.248 139.375 60.0285C139.58 59.8054 139.682 59.5457 139.682 59.2531V52.2446C139.682 51.9484 139.58 51.6887 139.375 51.4692C139.174 51.2497 138.925 51.14 138.629 51.14H133.662C129.097 51.14 126.814 48.7112 126.814 43.8536V36.7281C126.814 31.8705 129.097 29.4417 133.662 29.4417H139.792C144.352 29.4417 146.632 31.8705 146.632 36.7281V39.3837Z" fill="#68CFF7"/>
<path d="M7.53211 77.3557C7.15535 77.3557 6.82249 77.2716 6.52986 77.0997C6.24089 76.9296 6.01411 76.6809 5.8495 76.3535C5.68307 76.0224 5.60077 75.6274 5.60077 75.1683C5.60077 74.7056 5.68307 74.3106 5.8495 73.9832C6.01411 73.6522 6.24089 73.4016 6.52986 73.2297C6.82249 73.0596 7.15535 72.9736 7.53211 72.9736C7.93082 72.9736 8.26368 73.0504 8.52704 73.2004C8.79041 73.3522 8.98062 73.579 9.09767 73.8808L8.77578 74.0929H8.70262C8.58557 73.8497 8.43377 73.6759 8.24905 73.5735C8.0625 73.4711 7.82474 73.4199 7.53211 73.4199C7.26326 73.4199 7.02367 73.4821 6.81517 73.6028C6.61033 73.7198 6.4439 73.91 6.31771 74.1734C6.19517 74.4331 6.13481 74.7641 6.13481 75.1683C6.13481 75.5744 6.19517 75.9054 6.31771 76.1633C6.4439 76.423 6.61033 76.6132 6.81517 76.7339C7.02367 76.8509 7.26326 76.9095 7.53211 76.9095C7.83937 76.9095 8.08993 76.8418 8.28563 76.7046C8.48498 76.5638 8.63129 76.337 8.72457 76.0243H8.79772L9.13425 76.1925C9.03183 76.5693 8.84345 76.8564 8.57094 77.0558C8.2966 77.257 7.95093 77.3557 7.53211 77.3557Z" fill="#68CFF7"/>
<path d="M13.2956 77.3557C12.9243 77.3557 12.5951 77.2789 12.3079 77.1216C12.019 76.9607 11.7922 76.7174 11.6276 76.3901C11.4611 76.0645 11.3788 75.6567 11.3788 75.1683C11.3788 74.6818 11.4611 74.274 11.6276 73.9466C11.7922 73.6156 12.019 73.3723 12.3079 73.2151C12.5951 73.0541 12.9243 72.9736 13.2956 72.9736C13.6613 72.9736 13.9869 73.0541 14.2759 73.2151C14.563 73.3723 14.7898 73.6156 14.9562 73.9466C15.1208 74.274 15.205 74.6818 15.205 75.1683C15.205 75.6567 15.1208 76.0645 14.9562 76.3901C14.7898 76.7174 14.563 76.9607 14.2759 77.1216C13.9869 77.2789 13.6613 77.3557 13.2956 77.3557ZM13.2956 76.8948C13.7345 76.8948 14.0728 76.7558 14.3124 76.4778C14.5502 76.1999 14.6709 75.7646 14.6709 75.1683C14.6709 74.5685 14.5502 74.1295 14.3124 73.8515C14.0728 73.5735 13.7345 73.4345 13.2956 73.4345C12.3738 73.4345 11.9129 74.0125 11.9129 75.1683C11.9129 76.3206 12.3738 76.8948 13.2956 76.8948Z" fill="#68CFF7"/>
<path d="M18.3326 77.2973H17.8717V73.0322H18.6179L19.9055 76.6462H19.9713L21.2589 73.0322H21.9758V77.2973H21.5003V73.8223L21.4271 73.8077L20.1688 77.2973H19.6714L18.4057 73.8077L18.3326 73.8223V77.2973Z" fill="#68CFF7"/>
<path d="M26.3866 73.0322C26.6829 73.0322 26.9371 73.0871 27.1474 73.1932C27.3559 73.3011 27.515 73.4529 27.6229 73.6467C27.7345 73.8424 27.7912 74.0711 27.7912 74.3344C27.7912 74.5978 27.7345 74.8282 27.6229 75.0221C27.515 75.2178 27.3559 75.3696 27.1474 75.4757C26.9371 75.5781 26.6829 75.6293 26.3866 75.6293H25.3697V77.2973H24.8649V73.0322H26.3866ZM26.372 75.205C26.9664 75.205 27.2645 74.916 27.2645 74.3344C27.2645 73.7547 26.9664 73.4639 26.372 73.4639H25.3697V75.205H26.372Z" fill="#68CFF7"/>
<path d="M30.8535 73.0322V76.8803H32.9019V77.2973H30.3488V73.0322H30.8535Z" fill="#68CFF7"/>
<path d="M35.8303 75.2855V76.8803H37.9957V77.2973H35.3255V73.0322H37.9518V73.4492H35.8303V74.8758H37.7031V75.2855H35.8303Z" fill="#68CFF7"/>
<path d="M43.2086 73.0322V73.4639H41.8698V77.2973H41.3724V73.4639H40.0409V73.0322H43.2086Z" fill="#68CFF7"/>
<path d="M46.1074 75.2855V76.8803H48.2729V77.2973H45.6027V73.0322H48.229V73.4492H46.1074V74.8758H47.9803V75.2855H46.1074Z" fill="#68CFF7"/>
<path d="M56.5481 73.0322V73.4639H55.2093V77.2973H54.7119V73.4639H53.3804V73.0322H56.5481Z" fill="#68CFF7"/>
<path d="M58.9421 77.2973V73.0322H60.4931C60.7747 73.0322 61.0143 73.0816 61.21 73.1785C61.4039 73.2718 61.5502 73.4053 61.6489 73.5809C61.7459 73.7528 61.7953 73.954 61.7953 74.1881C61.7953 74.4515 61.7294 74.6709 61.5977 74.8465C61.4661 75.0184 61.2576 75.1446 60.9759 75.2269V75.2855C61.1112 75.344 61.2246 75.4318 61.3124 75.5488C61.4002 75.6622 61.4807 75.8341 61.5538 76.0682L61.9489 77.2973H61.4368L61.0125 75.9951C60.9576 75.8396 60.8973 75.7207 60.8296 75.6366C60.7656 75.5488 60.6833 75.4866 60.5809 75.4464C60.4821 75.408 60.3559 75.3879 60.2004 75.3879H59.4469V77.2973H58.9421ZM60.4784 74.9563C60.7455 74.9563 60.943 74.8959 61.071 74.7734C61.2027 74.6527 61.2685 74.4643 61.2685 74.2101C61.2685 73.9577 61.2027 73.7693 61.071 73.6467C60.943 73.526 60.7455 73.4639 60.4784 73.4639H59.4469V74.9563H60.4784Z" fill="#68CFF7"/>
<path d="M66.038 77.3558C65.5149 77.3558 65.1199 77.2241 64.8529 76.9608C64.584 76.6974 64.4505 76.306 64.4505 75.7829V73.0322H64.948V75.7756C64.948 76.1524 65.0376 76.4322 65.2186 76.6169C65.3979 76.8035 65.6722 76.8949 66.038 76.8949C66.7641 76.8949 67.128 76.5218 67.128 75.7756V73.0322H67.6328V75.7829C67.6328 76.306 67.4975 76.6974 67.2305 76.9608C66.9616 77.2241 66.5647 77.3558 66.038 77.3558Z" fill="#68CFF7"/>
<path d="M72.1897 77.3557C71.813 77.3557 71.4801 77.2716 71.1875 77.0997C70.8985 76.9296 70.6717 76.6809 70.5071 76.3535C70.3407 76.0224 70.2584 75.6274 70.2584 75.1683C70.2584 74.7056 70.3407 74.3106 70.5071 73.9832C70.6717 73.6522 70.8985 73.4016 71.1875 73.2297C71.4801 73.0596 71.813 72.9736 72.1897 72.9736C72.5884 72.9736 72.9213 73.0504 73.1847 73.2004C73.448 73.3522 73.6382 73.579 73.7553 73.8808L73.4334 74.0929H73.3602C73.2432 73.8497 73.0914 73.6759 72.9067 73.5735C72.7201 73.4711 72.4824 73.4199 72.1897 73.4199C71.9209 73.4199 71.6813 73.4821 71.4728 73.6028C71.268 73.7198 71.1015 73.91 70.9753 74.1734C70.8528 74.4331 70.7924 74.7641 70.7924 75.1683C70.7924 75.5744 70.8528 75.9054 70.9753 76.1633C71.1015 76.423 71.268 76.6132 71.4728 76.7339C71.6813 76.8509 71.9209 76.9095 72.1897 76.9095C72.497 76.9095 72.7476 76.8418 72.9432 76.7046C73.1426 76.5638 73.2889 76.337 73.3822 76.0243H73.4553L73.7919 76.1925C73.6895 76.5693 73.5011 76.8564 73.2286 77.0558C72.9542 77.257 72.6086 77.3557 72.1897 77.3557Z" fill="#68CFF7"/>
<path d="M76.256 77.2973V73.0322H76.7608V74.8977H76.8486L78.5971 73.0322H79.1457V73.1054L77.3022 75.1026L79.2921 77.2241V77.2973H78.7141L76.8486 75.3367H76.7608V77.2973H76.256Z" fill="#68CFF7"/>
<path d="M82.1193 77.2973H81.6145V73.0322H82.1193V77.2973Z" fill="#68CFF7"/>
<path d="M85.4964 77.2973H85.0063V73.0322H85.6208L87.6984 76.295L87.7716 76.2804V73.0322H88.2617V77.2973H87.735L85.5696 73.815L85.4964 73.8223V77.2973Z" fill="#68CFF7"/>
<path d="M92.7434 77.3557C92.3867 77.3557 92.0722 77.2753 91.7996 77.1143C91.5253 76.9497 91.3113 76.7028 91.1559 76.3754C91.0041 76.0499 90.9291 75.6475 90.9291 75.1683C90.9291 74.691 91.0114 74.2886 91.1778 73.9613C91.3424 73.6302 91.5692 73.3833 91.8582 73.2224C92.1508 73.0578 92.4873 72.9736 92.8677 72.9736C93.2774 72.9736 93.6103 73.0468 93.87 73.1931C94.1333 73.3394 94.3199 73.5589 94.4333 73.8515L94.1041 74.0417H94.0309C93.9175 73.8223 93.7676 73.665 93.5774 73.5662C93.3908 73.4693 93.1549 73.4199 92.8677 73.4199C91.9313 73.4199 91.4631 74.0033 91.4631 75.1683C91.4631 75.7737 91.5802 76.2145 91.8143 76.4925C92.052 76.7705 92.3849 76.9095 92.8092 76.9095C93.1933 76.9095 93.4841 76.8217 93.6798 76.6461C93.8736 76.4669 93.9724 76.1852 93.9724 75.8048V75.4317H92.758V75.0293H94.4552V77.2972H93.9944V76.7266L93.9358 76.7119C93.8188 76.9314 93.6597 77.096 93.4603 77.2021C93.2591 77.3045 93.0214 77.3557 92.7434 77.3557Z" fill="#68CFF7"/>
<path d="M101.462 77.3557C101.193 77.3557 100.951 77.3192 100.737 77.246C100.521 77.1728 100.344 77.0777 100.203 76.9607C100.061 76.8436 99.9563 76.7156 99.8886 76.573L100.159 76.2364H100.232C100.496 76.6863 100.906 76.9095 101.462 76.9095C101.778 76.9095 102.014 76.8436 102.171 76.7119C102.327 76.5766 102.405 76.3882 102.405 76.1486C102.405 76.0078 102.378 75.8889 102.325 75.7902C102.275 75.6932 102.193 75.6109 102.076 75.5414C101.959 75.4738 101.798 75.4134 101.593 75.3585L101.096 75.2415C100.724 75.15 100.452 75.0056 100.276 74.8099C100.101 74.616 100.013 74.3691 100.013 74.071C100.013 73.857 100.066 73.6668 100.174 73.5004C100.28 73.3358 100.439 73.2059 100.649 73.1126C100.858 73.0212 101.11 72.9736 101.403 72.9736C101.725 72.9736 101.996 73.0212 102.215 73.1126C102.435 73.2004 102.61 73.3358 102.742 73.515L102.5 73.8442H102.427C102.305 73.6979 102.158 73.5918 101.988 73.5223C101.822 73.4492 101.626 73.4126 101.403 73.4126C101.105 73.4126 100.88 73.4711 100.73 73.5882C100.584 73.7015 100.51 73.857 100.51 74.0564C100.51 74.252 100.564 74.4057 100.671 74.5172C100.783 74.6306 100.971 74.7184 101.235 74.7806L101.747 74.905C102.16 75.0037 102.46 75.1519 102.647 75.3512C102.831 75.5524 102.925 75.8085 102.925 76.1194C102.925 76.3645 102.868 76.5784 102.756 76.7632C102.648 76.9497 102.486 77.096 102.266 77.2021C102.047 77.3045 101.778 77.3557 101.462 77.3557Z" fill="#68CFF7"/>
<path d="M107.188 77.3557C106.816 77.3557 106.487 77.2789 106.2 77.1216C105.911 76.9607 105.684 76.7174 105.52 76.3901C105.353 76.0645 105.271 75.6567 105.271 75.1683C105.271 74.6818 105.353 74.274 105.52 73.9466C105.684 73.6156 105.911 73.3723 106.2 73.2151C106.487 73.0541 106.816 72.9736 107.188 72.9736C107.553 72.9736 107.879 73.0541 108.168 73.2151C108.455 73.3723 108.682 73.6156 108.848 73.9466C109.013 74.274 109.097 74.6818 109.097 75.1683C109.097 75.6567 109.013 76.0645 108.848 76.3901C108.682 76.7174 108.455 76.9607 108.168 77.1216C107.879 77.2789 107.553 77.3557 107.188 77.3557ZM107.188 76.8948C107.626 76.8948 107.965 76.7558 108.204 76.4778C108.442 76.1999 108.563 75.7646 108.563 75.1683C108.563 74.5685 108.442 74.1295 108.204 73.8515C107.965 73.5735 107.626 73.4345 107.188 73.4345C106.266 73.4345 105.805 74.0125 105.805 75.1683C105.805 76.3206 106.266 76.8948 107.188 76.8948Z" fill="#68CFF7"/>
<path d="M112.269 73.0322V76.8803H114.317V77.2973H111.764V73.0322H112.269Z" fill="#68CFF7"/>
<path d="M118.292 77.3558C117.769 77.3558 117.373 77.2241 117.106 76.9608C116.838 76.6974 116.704 76.306 116.704 75.7829V73.0322H117.202V75.7756C117.202 76.1524 117.291 76.4322 117.472 76.6169C117.651 76.8035 117.926 76.8949 118.292 76.8949C119.018 76.8949 119.382 76.5218 119.382 75.7756V73.0322H119.886V75.7829C119.886 76.306 119.751 76.6974 119.484 76.9608C119.215 77.2241 118.818 77.3558 118.292 77.3558Z" fill="#68CFF7"/>
<path d="M125.416 73.0322V73.4639H124.078V77.2973H123.58V73.4639H122.249V73.0322H125.416Z" fill="#68CFF7"/>
<path d="M128.315 77.2973H127.81V73.0322H128.315V77.2973Z" fill="#68CFF7"/>
<path d="M132.899 77.3557C132.528 77.3557 132.199 77.2789 131.912 77.1216C131.623 76.9607 131.396 76.7174 131.231 76.3901C131.065 76.0645 130.982 75.6567 130.982 75.1683C130.982 74.6818 131.065 74.274 131.231 73.9466C131.396 73.6156 131.623 73.3723 131.912 73.2151C132.199 73.0541 132.528 72.9736 132.899 72.9736C133.265 72.9736 133.591 73.0541 133.879 73.2151C134.167 73.3723 134.393 73.6156 134.56 73.9466C134.724 74.274 134.809 74.6818 134.809 75.1683C134.809 75.6567 134.724 76.0645 134.56 76.3901C134.393 76.7174 134.167 76.9607 133.879 77.1216C133.591 77.2789 133.265 77.3557 132.899 77.3557ZM132.899 76.8948C133.338 76.8948 133.676 76.7558 133.916 76.4778C134.154 76.1999 134.275 75.7646 134.275 75.1683C134.275 74.5685 134.154 74.1295 133.916 73.8515C133.676 73.5735 133.338 73.4345 132.899 73.4345C131.977 73.4345 131.517 74.0125 131.517 75.1683C131.517 76.3206 131.977 76.8948 132.899 76.8948Z" fill="#68CFF7"/>
<path d="M137.966 77.2973H137.476V73.0322H138.09L140.168 76.295L140.241 76.2804V73.0322H140.731V77.2973H140.204L138.039 73.815L137.966 73.8223V77.2973Z" fill="#68CFF7"/>
<path d="M144.839 77.3557C144.571 77.3557 144.329 77.3192 144.115 77.246C143.899 77.1728 143.722 77.0777 143.581 76.9607C143.438 76.8436 143.334 76.7156 143.266 76.573L143.537 76.2364H143.61C143.874 76.6863 144.283 76.9095 144.839 76.9095C145.156 76.9095 145.392 76.8436 145.549 76.7119C145.704 76.5766 145.783 76.3882 145.783 76.1486C145.783 76.0078 145.756 75.8889 145.703 75.7902C145.653 75.6932 145.571 75.6109 145.454 75.5414C145.337 75.4738 145.176 75.4134 144.971 75.3585L144.474 75.2415C144.102 75.15 143.83 75.0056 143.654 74.8099C143.479 74.616 143.391 74.3691 143.391 74.071C143.391 73.857 143.444 73.6668 143.552 73.5004C143.658 73.3358 143.817 73.2059 144.027 73.1126C144.236 73.0212 144.488 72.9736 144.781 72.9736C145.103 72.9736 145.373 73.0212 145.593 73.1126C145.812 73.2004 145.988 73.3358 146.12 73.515L145.878 73.8442H145.805C145.682 73.6979 145.536 73.5918 145.366 73.5223C145.2 73.4492 145.004 73.4126 144.781 73.4126C144.483 73.4126 144.258 73.4711 144.108 73.5882C143.961 73.7015 143.888 73.857 143.888 74.0564C143.888 74.252 143.941 74.4057 144.049 74.5172C144.161 74.6306 144.349 74.7184 144.613 74.7806L145.125 74.905C145.538 75.0037 145.838 75.1519 146.024 75.3512C146.209 75.5524 146.302 75.8085 146.302 76.1194C146.302 76.3645 146.246 76.5784 146.134 76.7632C146.026 76.9497 145.864 77.096 145.644 77.2021C145.425 77.3045 145.156 77.3557 144.839 77.3557Z" fill="#68CFF7"/>
</svg>
