<svg width="259" height="147" viewBox="0 0 259 147" fill="none" xmlns="http://www.w3.org/2000/svg">
<path d="M258.5 0.5V69.626L0.5 145.83V0.5H258.5Z" fill="#191D31" stroke="#68CFF7"/>
<g clip-path="url(#clip0_339_12893)">
<mask id="path-2-inside-1_339_12893" fill="white">
<path d="M14.5 13.4917H182V93.9057H14.5V13.4917Z"/>
</mask>
<mask id="mask0_339_12893" style="mask-type:luminance" maskUnits="userSpaceOnUse" x="17" y="68" width="41" height="14">
<path d="M17.7775 68.2715H57.5748V81.6281H17.7775V68.2715Z" fill="white"/>
</mask>
<g mask="url(#mask0_339_12893)">
<path d="M18.1616 68.5969C18.8602 69.3651 22.0883 70.3984 34.3658 70.4405C53.9829 70.51 57.4468 69.6211 57.4468 69.6211C57.4468 69.6211 54.9869 76.8893 53.8932 81.4451C53.8932 81.4451 49.1307 78.5755 46.4642 73.1747C46.4642 73.1747 35.39 73.7216 20.2155 72.8327C20.2155 72.8327 19.6686 75.0201 20.2155 79.532C20.2155 79.532 17.6934 75.2396 18.1616 68.5969Z" fill="#68CFF7"/>
</g>
<path d="M39.9441 46.9243C39.9349 46.8219 39.913 46.7231 39.891 46.6226C39.7831 46.2257 39.5454 45.8617 39.2143 45.5929C38.8705 45.3295 38.4663 45.1704 37.978 45.143C37.4805 45.0881 36.9812 45.0351 36.4838 44.9436C36.9812 44.854 37.4805 44.7991 37.978 44.7443C38.0987 44.7278 38.2304 44.7241 38.3712 44.7205C38.5084 44.726 38.6492 44.7333 38.7864 44.7625C39.0625 44.8119 39.3277 44.9198 39.5728 45.0661C39.7356 45.1631 39.8856 45.282 40.0209 45.4155L58.4272 44.2139L40.7616 47.2517L40.7671 47.9924C40.7671 48.9892 40.7433 49.9841 40.6775 50.9809C40.6171 51.9758 40.5293 52.9707 40.3574 53.9675C40.1873 52.9707 40.0977 51.9758 40.0374 50.9809C39.9733 49.9841 39.9477 48.9892 39.9477 47.9924L39.9532 47.2462L39.9551 47.1529L39.9532 47.0761C39.9496 47.0267 39.9532 46.9737 39.9441 46.9243Z" fill="#68CFF7"/>
<path d="M50.7016 57.0657C56.5359 51.8697 62.6427 53.9675 62.6427 53.9675C56.4444 53.9675 50.7016 57.0657 50.7016 57.0657ZM56.4902 63.6279C56.4902 63.6279 55.305 67.4558 52.6622 68.0941C50.0194 68.7324 39.0368 68.7324 39.0368 68.7324C39.0368 68.7324 39.7189 65.1312 44.5052 64.5844C49.2897 64.0375 56.4902 63.6279 56.4902 63.6279ZM76.2681 69.6212C76.2681 69.6212 76.6906 66.2158 75.4744 62.7719L84.0941 62.2031L74.922 61.4496C74.6093 60.815 74.2289 60.1931 73.768 59.6061H89.9393L80.8477 58.4648V33.7341C80.8477 33.1653 80.546 32.6697 80.0961 32.3935V19.8069C80.0961 18.2468 81.1568 16.9081 82.6748 16.5496L84.2093 16.1875L84.6921 14.3878L82.2981 14.9529C80.0357 15.4852 78.4555 17.4823 78.4555 19.8069V27.3933C76.5406 26.819 71.0447 25.3833 64.3271 25.5662V18.951C64.3271 17.3927 65.3879 16.0521 66.9059 15.6955L68.4422 15.3315L68.925 13.5337L66.5309 14.097C64.2667 14.631 62.6865 16.6264 62.6865 18.951V25.6448C56.5377 26.0527 49.5713 27.9054 43.4573 32.9587L44.732 34.7364L44.0041 40.7956C44.0041 40.7956 55.9433 39.7934 63.5992 39.658C63.5992 39.658 66.1981 35.4423 66.0591 30.4969C66.0591 30.4969 65.9676 29.6319 63.7363 29.6319C61.5032 29.6319 51.4314 30.0415 45.3703 33.4141C45.3703 33.4141 48.9257 29.769 62.2769 29.085C62.2769 29.085 67.107 28.2199 66.9717 30.5884L66.5602 39.658L74.9915 40.7956L75.4012 32.2747L68.155 31.2267L67.0632 38.61L67.7911 30.3616C67.7911 30.3616 73.2577 30.689 78.4555 31.8869V32.3935C78.0038 32.6697 77.7038 33.1653 77.7038 33.7341V58.0698L71.0337 57.2303C66.3791 54.5015 62.0501 57.2486 62.0501 57.2486C62.0501 57.2486 64.83 54.6533 69.7956 56.0196C69.7956 56.0196 65.194 52.327 58.2898 52.6671C51.3856 53.0091 46.7713 59.8804 45.4051 63.092C45.4051 63.092 53.4468 62.2068 57.6753 62.3056C57.6753 62.3056 49.7451 62.9219 43.8669 63.9479C37.9888 64.9721 37.5773 69.6212 37.5773 69.6212C37.5773 69.6212 49.0611 69.6212 57.6753 68.5275C57.6753 68.5275 62.5274 58.6148 68.6123 58.8891C74.6952 59.1616 76.2681 69.6212 76.2681 69.6212Z" fill="#68CFF7"/>
<path d="M29.0107 67.2749H26.9934V49.0899H29.0107V67.2749ZM28.0871 47.7859C28.0871 48.2888 27.3025 48.6985 26.3332 48.6985C25.3638 48.6985 24.5792 48.2888 24.5792 47.7859C24.5792 47.2829 25.3638 46.8751 26.3332 46.8751C27.3025 46.8751 28.0871 47.2829 28.0871 47.7859ZM24.1238 49.2106C24.3945 49.1356 24.678 49.0899 24.9651 49.0899H25.6729V67.2749H24.1238V49.2106ZM22.8015 67.1834C22.2236 66.9749 21.8102 66.4244 21.8102 65.7752V52.2466C21.8102 51.5041 22.0718 50.7835 22.5509 50.2147C22.6296 50.1214 22.7137 50.0336 22.8015 49.9513V67.1834ZM30.3312 49.0899H32.1729V67.2749H30.3312V49.0899ZM33.4934 49.0954C34.7517 49.1503 35.7558 50.1836 35.7558 51.4547V64.301C35.7558 65.6965 34.7919 66.8652 33.4934 67.1834V49.0954ZM40.928 41.5767C40.928 41.5767 31.3883 43.0325 23.6081 47.0927C22.6296 47.6048 21.8267 48.3949 21.3128 49.3716C20.9067 50.1452 20.6946 51.0066 20.6946 51.879V62.58C20.6946 62.58 16.3198 68.1857 20.6946 68.4582C20.6946 68.4582 26.4722 69.6141 33.2904 69.3324C34.7499 69.2739 36.0905 68.5094 36.8769 67.2767C37.3341 66.5598 37.5774 65.7276 37.5774 64.879V48.7717C37.5774 48.7717 37.8974 45.0809 29.7404 45.7649L40.9956 42.5296L58.4271 40.9786C58.4271 40.9786 49.5404 40.8762 40.928 41.5767Z" fill="#68CFF7"/>
<path d="M68.5007 60.1859C72.4878 60.7327 75.2988 65.3233 75.6957 71.1996C74.4209 68.9373 72.592 67.4321 70.4156 67.1339C66.9827 66.6621 63.5791 69.314 61.4466 73.6083H57.5034C57.518 73.4931 57.5272 73.3797 57.5437 73.2645C58.6282 65.3599 63.5352 59.5037 68.5007 60.1859Z" fill="#68CFF7"/>
<mask id="mask1_339_12893" style="mask-type:luminance" maskUnits="userSpaceOnUse" x="81" y="14" width="63" height="45">
<path d="M81.9214 14.8962H143.503V58.4392H81.9214V14.8962Z" fill="white"/>
</mask>
<g mask="url(#mask1_339_12893)">
<path d="M97.4124 58.2051L82.1921 57.0657V21.4748L99.3273 15.2766L134.508 26.8519L100.602 19.0131L100.059 25.0888L143.393 36.0769L99.7187 28.8856L98.8993 38.0503L135.465 44.0547L98.614 41.2308L97.9849 48.2685L122.928 50.8217H97.7563L97.4124 54.6496V19.0131L84.3795 23.5708V53.9675L97.4124 58.2051Z" fill="#68CFF7"/>
</g>
<path d="M108.528 73.352V67.836H115.873V72.4668C115.873 77.3244 113.591 79.7532 109.026 79.7532H102.068C97.5033 79.7532 95.2208 77.3244 95.2208 72.4668V50.2198C95.2208 45.3622 97.5033 42.9333 102.068 42.9333H109.026C113.591 42.9333 115.873 45.3622 115.873 50.2198V53.5923H108.528V49.2834C108.528 48.9907 108.426 48.7347 108.221 48.5152C108.02 48.2921 107.775 48.1787 107.482 48.1787H104C103.707 48.1787 103.458 48.2921 103.253 48.5152C103.052 48.7347 102.954 48.9907 102.954 49.2834V73.352C102.954 73.6446 103.052 73.9043 103.253 74.1274C103.458 74.3469 103.707 74.4566 104 74.4566H107.482C107.775 74.4566 108.02 74.3469 108.221 74.1274C108.426 73.9043 108.528 73.6446 108.528 73.352Z" fill="#68CFF7"/>
<path d="M118.462 50.059V43.4895H137.783V50.059H131.989V79.2047H124.256V50.059H118.462Z" fill="#68CFF7"/>
<path d="M161.132 52.8754H153.795V50.0588C153.795 49.7625 153.692 49.5028 153.488 49.2834C153.286 49.0639 153.038 48.9542 152.741 48.9542H149.705C149.413 48.9542 149.164 49.0639 148.959 49.2834C148.758 49.5028 148.659 49.7625 148.659 50.0588V56.4015C148.659 56.6996 148.758 56.9575 148.959 57.177C149.164 57.3965 149.413 57.5062 149.705 57.5062H154.673C159.238 57.5848 161.52 60.0137 161.52 64.7926V72.4668C161.52 77.3244 159.238 79.7532 154.673 79.7532H148.162C143.597 79.7532 141.314 77.3244 141.314 72.4668V68.7724H148.659V72.7448C148.659 73.0374 148.758 73.2971 148.959 73.5202C149.164 73.7397 149.413 73.8494 149.705 73.8494H153.129C153.425 73.8494 153.674 73.7397 153.875 73.5202C154.08 73.2971 154.183 73.0374 154.183 72.7448V65.7363C154.183 65.4401 154.08 65.1804 153.875 64.9609C153.674 64.7414 153.425 64.6317 153.129 64.6317H148.162C143.597 64.6317 141.314 62.2029 141.314 57.3453V50.2198C141.314 45.3622 143.597 42.9333 148.162 42.9333H154.292C158.852 42.9333 161.132 45.3622 161.132 50.2198V52.8754Z" fill="#68CFF7"/>
<path d="M22.0322 90.8474C21.6554 90.8474 21.3226 90.7633 21.0299 90.5914C20.741 90.4213 20.5142 90.1726 20.3496 89.8452C20.1831 89.5141 20.1008 89.1191 20.1008 88.66C20.1008 88.1973 20.1831 87.8023 20.3496 87.4749C20.5142 87.1439 20.741 86.8933 21.0299 86.7214C21.3226 86.5513 21.6554 86.4653 22.0322 86.4653C22.4309 86.4653 22.7637 86.5421 23.0271 86.6921C23.2905 86.8439 23.4807 87.0707 23.5977 87.3725L23.2758 87.5846H23.2027C23.0856 87.3414 22.9338 87.1676 22.7491 87.0652C22.5626 86.9628 22.3248 86.9116 22.0322 86.9116C21.7633 86.9116 21.5237 86.9738 21.3152 87.0945C21.1104 87.2115 20.944 87.4017 20.8178 87.6651C20.6952 87.9248 20.6349 88.2558 20.6349 88.66C20.6349 89.0661 20.6952 89.3971 20.8178 89.655C20.944 89.9147 21.1104 90.1049 21.3152 90.2256C21.5237 90.3426 21.7633 90.4012 22.0322 90.4012C22.3394 90.4012 22.59 90.3335 22.7857 90.1963C22.985 90.0555 23.1314 89.8287 23.2246 89.516H23.2978L23.6343 89.6842C23.5319 90.061 23.3435 90.3481 23.071 90.5475C22.7967 90.7487 22.451 90.8474 22.0322 90.8474Z" fill="#68CFF7"/>
<path d="M27.7955 90.8474C27.4242 90.8474 27.095 90.7706 26.8079 90.6133C26.5189 90.4524 26.2921 90.2091 26.1275 89.8818C25.9611 89.5562 25.8788 89.1484 25.8788 88.66C25.8788 88.1735 25.9611 87.7657 26.1275 87.4383C26.2921 87.1073 26.5189 86.864 26.8079 86.7067C27.095 86.5458 27.4242 86.4653 27.7955 86.4653C28.1613 86.4653 28.4868 86.5458 28.7758 86.7067C29.0629 86.864 29.2897 87.1073 29.4562 87.4383C29.6208 87.7657 29.7049 88.1735 29.7049 88.66C29.7049 89.1484 29.6208 89.5562 29.4562 89.8818C29.2897 90.2091 29.0629 90.4524 28.7758 90.6133C28.4868 90.7706 28.1613 90.8474 27.7955 90.8474ZM27.7955 90.3865C28.2344 90.3865 28.5728 90.2475 28.8124 89.9695C29.0501 89.6916 29.1708 89.2563 29.1708 88.66C29.1708 88.0602 29.0501 87.6212 28.8124 87.3432C28.5728 87.0652 28.2344 86.9262 27.7955 86.9262C26.8737 86.9262 26.4128 87.5042 26.4128 88.66C26.4128 89.8123 26.8737 90.3865 27.7955 90.3865Z" fill="#68CFF7"/>
<path d="M32.8326 90.789H32.3717V86.5239H33.1179L34.4055 90.1379H34.4713L35.7589 86.5239H36.4758V90.789H36.0003V87.314L35.9271 87.2994L34.6688 90.789H34.1714L32.9057 87.2994L32.8326 87.314V90.789Z" fill="#68CFF7"/>
<path d="M40.8865 86.5239C41.1828 86.5239 41.437 86.5788 41.6474 86.6849C41.8559 86.7928 42.015 86.9446 42.1229 87.1384C42.2344 87.3341 42.2911 87.5628 42.2911 87.8261C42.2911 88.0895 42.2344 88.3199 42.1229 88.5138C42.015 88.7095 41.8559 88.8613 41.6474 88.9674C41.437 89.0698 41.1828 89.121 40.8865 89.121H39.8697V90.789H39.3649V86.5239H40.8865ZM40.8719 88.6967C41.4663 88.6967 41.7644 88.4077 41.7644 87.8261C41.7644 87.2464 41.4663 86.9556 40.8719 86.9556H39.8697V88.6967H40.8719Z" fill="#68CFF7"/>
<path d="M45.3535 86.5239V90.372H47.4019V90.789H44.8488V86.5239H45.3535Z" fill="#68CFF7"/>
<path d="M50.3302 88.7772V90.372H52.4957V90.789H49.8254V86.5239H52.4518V86.9409H50.3302V88.3675H52.203V88.7772H50.3302Z" fill="#68CFF7"/>
<path d="M57.7086 86.5239V86.9556H56.3698V90.789H55.8723V86.9556H54.5409V86.5239H57.7086Z" fill="#68CFF7"/>
<path d="M60.6074 88.7772V90.372H62.7729V90.789H60.1027V86.5239H62.729V86.9409H60.6074V88.3675H62.4803V88.7772H60.6074Z" fill="#68CFF7"/>
<path d="M71.0481 86.5239V86.9556H69.7093V90.789H69.2118V86.9556H67.8804V86.5239H71.0481Z" fill="#68CFF7"/>
<path d="M73.4421 90.789V86.5239H74.9931C75.2747 86.5239 75.5143 86.5733 75.71 86.6702C75.9039 86.7635 76.0502 86.897 76.1489 87.0726C76.2459 87.2445 76.2953 87.4457 76.2953 87.6798C76.2953 87.9432 76.2294 88.1626 76.0977 88.3382C75.9661 88.5101 75.7576 88.6363 75.4759 88.7186V88.7772C75.6112 88.8357 75.7246 88.9235 75.8124 89.0405C75.9002 89.1539 75.9807 89.3258 76.0538 89.5599L76.4489 90.789H75.9368L75.5125 89.4868C75.4576 89.3313 75.3973 89.2124 75.3296 89.1283C75.2656 89.0405 75.1833 88.9783 75.0809 88.9381C74.9821 88.8997 74.8559 88.8796 74.7004 88.8796H73.9469V90.789H73.4421ZM74.9784 88.448C75.2455 88.448 75.443 88.3876 75.571 88.2651C75.7027 88.1444 75.7685 87.956 75.7685 87.7018C75.7685 87.4494 75.7027 87.261 75.571 87.1384C75.443 87.0177 75.2455 86.9556 74.9784 86.9556H73.9469V88.448H74.9784Z" fill="#68CFF7"/>
<path d="M80.5379 90.8475C80.0149 90.8475 79.6198 90.7158 79.3528 90.4525C79.084 90.1891 78.9504 89.7977 78.9504 89.2746V86.5239H79.4479V89.2673C79.4479 89.6441 79.5375 89.9239 79.7186 90.1086C79.8978 90.2952 80.1722 90.3866 80.5379 90.3866C81.264 90.3866 81.628 90.0135 81.628 89.2673V86.5239H82.1328V89.2746C82.1328 89.7977 81.9974 90.1891 81.7304 90.4525C81.4615 90.7158 81.0647 90.8475 80.5379 90.8475Z" fill="#68CFF7"/>
<path d="M86.6898 90.8474C86.313 90.8474 85.9801 90.7633 85.6875 90.5914C85.3985 90.4213 85.1718 90.1726 85.0072 89.8452C84.8407 89.5141 84.7584 89.1191 84.7584 88.66C84.7584 88.1973 84.8407 87.8023 85.0072 87.4749C85.1718 87.1439 85.3985 86.8933 85.6875 86.7214C85.9801 86.5513 86.313 86.4653 86.6898 86.4653C87.0885 86.4653 87.4213 86.5421 87.6847 86.6921C87.9481 86.8439 88.1383 87.0707 88.2553 87.3725L87.9334 87.5846H87.8603C87.7432 87.3414 87.5914 87.1676 87.4067 87.0652C87.2202 86.9628 86.9824 86.9116 86.6898 86.9116C86.4209 86.9116 86.1813 86.9738 85.9728 87.0945C85.768 87.2115 85.6016 87.4017 85.4754 87.6651C85.3528 87.9248 85.2925 88.2558 85.2925 88.66C85.2925 89.0661 85.3528 89.3971 85.4754 89.655C85.6016 89.9147 85.768 90.1049 85.9728 90.2256C86.1813 90.3426 86.4209 90.4012 86.6898 90.4012C86.997 90.4012 87.2476 90.3335 87.4433 90.1963C87.6426 90.0555 87.7889 89.8287 87.8822 89.516H87.9554L88.2919 89.6842C88.1895 90.061 88.0011 90.3481 87.7286 90.5475C87.4543 90.7487 87.1086 90.8474 86.6898 90.8474Z" fill="#68CFF7"/>
<path d="M90.7561 90.789V86.5239H91.2609V88.3894H91.3487L93.0971 86.5239H93.6458V86.5971L91.8022 88.5943L93.7921 90.7158V90.789H93.2142L91.3487 88.8284H91.2609V90.789H90.7561Z" fill="#68CFF7"/>
<path d="M96.6193 90.789H96.1145V86.5239H96.6193V90.789Z" fill="#68CFF7"/>
<path d="M99.9964 90.789H99.5062V86.5239H100.121L102.198 89.7867L102.272 89.7721V86.5239H102.762V90.789H102.235L100.07 87.3067L99.9964 87.314V90.789Z" fill="#68CFF7"/>
<path d="M107.243 90.8474C106.887 90.8474 106.572 90.767 106.3 90.606C106.025 90.4414 105.811 90.1945 105.656 89.8671C105.504 89.5416 105.429 89.1392 105.429 88.66C105.429 88.1827 105.511 87.7803 105.678 87.4529C105.842 87.1219 106.069 86.875 106.358 86.7141C106.651 86.5495 106.987 86.4653 107.368 86.4653C107.777 86.4653 108.11 86.5385 108.37 86.6848C108.633 86.8311 108.82 87.0506 108.933 87.3432L108.604 87.5334H108.531C108.418 87.314 108.268 87.1567 108.077 87.0579C107.891 86.961 107.655 86.9116 107.368 86.9116C106.431 86.9116 105.963 87.495 105.963 88.66C105.963 89.2654 106.08 89.7062 106.314 89.9842C106.552 90.2622 106.885 90.4012 107.309 90.4012C107.693 90.4012 107.984 90.3134 108.18 90.1378C108.374 89.9586 108.472 89.6769 108.472 89.2965V88.9234H107.258V88.521H108.955V90.7889H108.494V90.2183L108.436 90.2036C108.319 90.4231 108.16 90.5877 107.96 90.6938C107.759 90.7962 107.521 90.8474 107.243 90.8474Z" fill="#68CFF7"/>
<path d="M115.962 90.8474C115.693 90.8474 115.451 90.8109 115.237 90.7377C115.021 90.6645 114.844 90.5694 114.703 90.4524C114.561 90.3353 114.456 90.2073 114.389 90.0647L114.659 89.7281H114.733C114.996 90.178 115.406 90.4012 115.962 90.4012C116.278 90.4012 116.514 90.3353 116.671 90.2036C116.827 90.0683 116.905 89.8799 116.905 89.6403C116.905 89.4995 116.878 89.3806 116.825 89.2819C116.775 89.1849 116.693 89.1026 116.576 89.0331C116.459 88.9655 116.298 88.9051 116.093 88.8502L115.596 88.7332C115.224 88.6417 114.952 88.4973 114.776 88.3016C114.601 88.1077 114.513 87.8608 114.513 87.5627C114.513 87.3487 114.566 87.1585 114.674 86.9921C114.78 86.8275 114.939 86.6976 115.15 86.6043C115.358 86.5129 115.61 86.4653 115.903 86.4653C116.225 86.4653 116.496 86.5129 116.715 86.6043C116.935 86.6921 117.11 86.8275 117.242 87.0067L117 87.3359H116.927C116.805 87.1896 116.658 87.0835 116.488 87.014C116.322 86.9409 116.126 86.9043 115.903 86.9043C115.605 86.9043 115.38 86.9628 115.23 87.0798C115.084 87.1932 115.011 87.3487 115.011 87.5481C115.011 87.7437 115.064 87.8974 115.171 88.0089C115.283 88.1223 115.471 88.2101 115.735 88.2723L116.247 88.3967C116.66 88.4954 116.96 88.6436 117.147 88.8429C117.331 89.0441 117.425 89.3002 117.425 89.6111C117.425 89.8562 117.368 90.0701 117.256 90.2549C117.149 90.4414 116.986 90.5877 116.766 90.6938C116.547 90.7962 116.278 90.8474 115.962 90.8474Z" fill="#68CFF7"/>
<path d="M121.688 90.8474C121.316 90.8474 120.987 90.7706 120.7 90.6133C120.411 90.4524 120.184 90.2091 120.02 89.8818C119.853 89.5562 119.771 89.1484 119.771 88.66C119.771 88.1735 119.853 87.7657 120.02 87.4383C120.184 87.1073 120.411 86.864 120.7 86.7067C120.987 86.5458 121.316 86.4653 121.688 86.4653C122.053 86.4653 122.379 86.5458 122.668 86.7067C122.955 86.864 123.182 87.1073 123.348 87.4383C123.513 87.7657 123.597 88.1735 123.597 88.66C123.597 89.1484 123.513 89.5562 123.348 89.8818C123.182 90.2091 122.955 90.4524 122.668 90.6133C122.379 90.7706 122.053 90.8474 121.688 90.8474ZM121.688 90.3865C122.127 90.3865 122.465 90.2475 122.704 89.9695C122.942 89.6916 123.063 89.2563 123.063 88.66C123.063 88.0602 122.942 87.6212 122.704 87.3432C122.465 87.0652 122.127 86.9262 121.688 86.9262C120.766 86.9262 120.305 87.5042 120.305 88.66C120.305 89.8123 120.766 90.3865 121.688 90.3865Z" fill="#68CFF7"/>
<path d="M126.768 86.5239V90.372H128.817V90.789H126.264V86.5239H126.768Z" fill="#68CFF7"/>
<path d="M132.792 90.8475C132.269 90.8475 131.873 90.7158 131.606 90.4525C131.338 90.1891 131.204 89.7977 131.204 89.2746V86.5239H131.702V89.2673C131.702 89.6441 131.791 89.9239 131.972 90.1086C132.151 90.2952 132.426 90.3866 132.792 90.3866C133.518 90.3866 133.882 90.0135 133.882 89.2673V86.5239H134.386V89.2746C134.386 89.7977 134.251 90.1891 133.984 90.4525C133.715 90.7158 133.318 90.8475 132.792 90.8475Z" fill="#68CFF7"/>
<path d="M139.916 86.5239V86.9556H138.578V90.789H138.08V86.9556H136.749V86.5239H139.916Z" fill="#68CFF7"/>
<path d="M142.815 90.789H142.31V86.5239H142.815V90.789Z" fill="#68CFF7"/>
<path d="M147.399 90.8474C147.028 90.8474 146.699 90.7706 146.412 90.6133C146.123 90.4524 145.896 90.2091 145.731 89.8818C145.565 89.5562 145.482 89.1484 145.482 88.66C145.482 88.1735 145.565 87.7657 145.731 87.4383C145.896 87.1073 146.123 86.864 146.412 86.7067C146.699 86.5458 147.028 86.4653 147.399 86.4653C147.765 86.4653 148.09 86.5458 148.379 86.7067C148.667 86.864 148.893 87.1073 149.06 87.4383C149.224 87.7657 149.309 88.1735 149.309 88.66C149.309 89.1484 149.224 89.5562 149.06 89.8818C148.893 90.2091 148.667 90.4524 148.379 90.6133C148.09 90.7706 147.765 90.8474 147.399 90.8474ZM147.399 90.3865C147.838 90.3865 148.176 90.2475 148.416 89.9695C148.654 89.6916 148.774 89.2563 148.774 88.66C148.774 88.0602 148.654 87.6212 148.416 87.3432C148.176 87.0652 147.838 86.9262 147.399 86.9262C146.477 86.9262 146.016 87.5042 146.016 88.66C146.016 89.8123 146.477 90.3865 147.399 90.3865Z" fill="#68CFF7"/>
<path d="M152.465 90.789H151.975V86.5239H152.59L154.668 89.7867L154.741 89.7721V86.5239H155.231V90.789H154.704L152.539 87.3067L152.465 87.314V90.789Z" fill="#68CFF7"/>
<path d="M159.339 90.8474C159.071 90.8474 158.829 90.8109 158.615 90.7377C158.399 90.6645 158.222 90.5694 158.081 90.4524C157.938 90.3353 157.834 90.2073 157.766 90.0647L158.037 89.7281H158.11C158.374 90.178 158.783 90.4012 159.339 90.4012C159.656 90.4012 159.892 90.3353 160.049 90.2036C160.204 90.0683 160.283 89.8799 160.283 89.6403C160.283 89.4995 160.256 89.3806 160.203 89.2819C160.153 89.1849 160.071 89.1026 159.954 89.0331C159.837 88.9655 159.676 88.9051 159.471 88.8502L158.974 88.7332C158.602 88.6417 158.33 88.4973 158.154 88.3016C157.979 88.1077 157.891 87.8608 157.891 87.5627C157.891 87.3487 157.944 87.1585 158.052 86.9921C158.158 86.8275 158.317 86.6976 158.527 86.6043C158.736 86.5129 158.988 86.4653 159.281 86.4653C159.603 86.4653 159.873 86.5129 160.093 86.6043C160.312 86.6921 160.488 86.8275 160.62 87.0067L160.378 87.3359H160.305C160.182 87.1896 160.036 87.0835 159.866 87.014C159.7 86.9409 159.504 86.9043 159.281 86.9043C158.983 86.9043 158.758 86.9628 158.608 87.0798C158.461 87.1932 158.388 87.3487 158.388 87.5481C158.388 87.7437 158.441 87.8974 158.549 88.0089C158.661 88.1223 158.849 88.2101 159.113 88.2723L159.625 88.3967C160.038 88.4954 160.338 88.6436 160.524 88.8429C160.709 89.0441 160.802 89.3002 160.802 89.6111C160.802 89.8562 160.746 90.0701 160.634 90.2549C160.526 90.4414 160.364 90.5877 160.144 90.6938C159.925 90.7962 159.656 90.8474 159.339 90.8474Z" fill="#68CFF7"/>
</g>
<path d="M14.5 93.9057H15.5V13.4917H14.5H13.5V93.9057H14.5Z" fill="#68CFF7" mask="url(#path-2-inside-1_339_12893)"/>
<defs>
<clipPath id="clip0_339_12893">
<path d="M14.5 13.4917H182V93.9057H14.5V13.4917Z" fill="white"/>
</clipPath>
</defs>
</svg>
