<svg width="16" height="16" viewBox="0 0 16 16" fill="none" xmlns="http://www.w3.org/2000/svg">
<path fill-rule="evenodd" clip-rule="evenodd" d="M2 3.625C2.09946 3.625 2.19484 3.66451 2.26517 3.73483C2.33549 3.80516 2.375 3.90054 2.375 4V9C2.375 9.09946 2.33549 9.19484 2.26517 9.26517C2.19484 9.33549 2.09946 9.375 2 9.375C1.90054 9.375 1.80516 9.33549 1.73483 9.26517C1.66451 9.19484 1.625 9.09946 1.625 9V4C1.625 3.90054 1.66451 3.80516 1.73483 3.73483C1.80516 3.66451 1.90054 3.625 2 3.625ZM8 11.376C7.14633 11.376 6.30615 11.589 5.55557 11.9957C4.80499 12.4024 4.16772 12.9899 3.7015 13.705C3.67471 13.7465 3.63997 13.7823 3.59929 13.8104C3.55861 13.8384 3.51279 13.8582 3.46446 13.8685C3.41613 13.8787 3.36624 13.8794 3.31766 13.8703C3.26909 13.8613 3.22278 13.8427 3.1814 13.8157C3.14003 13.7887 3.1044 13.7537 3.07656 13.7129C3.04873 13.6721 3.02924 13.6262 3.01921 13.5778C3.00918 13.5294 3.00882 13.4795 3.01813 13.431C3.02745 13.3824 3.04627 13.3362 3.0735 13.295C3.60783 12.4754 4.3382 11.8021 5.19844 11.336C6.05868 10.8699 7.02161 10.6258 8 10.6258C8.97839 10.6258 9.94132 10.8699 10.8016 11.336C11.6618 11.8021 12.3922 12.4754 12.9265 13.295C12.9802 13.3783 12.9988 13.4794 12.9782 13.5764C12.9576 13.6733 12.8994 13.7581 12.8164 13.8123C12.7334 13.8665 12.6324 13.8856 12.5353 13.8655C12.4383 13.8454 12.3531 13.7877 12.2985 13.705C11.8323 12.9899 11.195 12.4024 10.4444 11.9957C9.69385 11.589 8.85367 11.376 8 11.376Z" fill="#68CFF7"/>
<path fill-rule="evenodd" clip-rule="evenodd" d="M7.88215 1.64422C7.95907 1.61859 8.04222 1.61859 8.11915 1.64422L14.1191 3.64422C14.194 3.66899 14.2591 3.71673 14.3053 3.78064C14.3514 3.84454 14.3763 3.92138 14.3763 4.00022C14.3763 4.07905 14.3514 4.15589 14.3053 4.21979C14.2591 4.2837 14.194 4.33144 14.1191 4.35622L8.11915 6.35622C8.04222 6.38184 7.95907 6.38184 7.88215 6.35622L1.88215 4.35622C1.8073 4.33144 1.74217 4.2837 1.69601 4.21979C1.64985 4.15589 1.625 4.07905 1.625 4.00022C1.625 3.92138 1.64985 3.84454 1.69601 3.78064C1.74217 3.71673 1.8073 3.66899 1.88215 3.64422L7.88215 1.64422ZM3.18665 4.00022L8.00065 5.60522L12.8146 4.00022L8.00065 2.39522L3.18665 4.00022Z" fill="#68CFF7"/>
<path fill-rule="evenodd" clip-rule="evenodd" d="M5.672 4.86052C5.70836 4.89377 5.73781 4.93386 5.75867 4.97849C5.77953 5.02313 5.79139 5.07143 5.79357 5.12065C5.79576 5.16987 5.78822 5.21904 5.77139 5.26535C5.75456 5.31165 5.72878 5.35419 5.6955 5.39052C5.28594 5.8377 5.01532 6.39438 4.91665 6.9927C4.81798 7.59101 4.89552 8.2051 5.13981 8.76011C5.3841 9.31513 5.78459 9.78707 6.29245 10.1184C6.80031 10.4498 7.39361 10.6262 8 10.6262C8.6064 10.6262 9.19969 10.4498 9.70756 10.1184C10.2154 9.78707 10.6159 9.31513 10.8602 8.76011C11.1045 8.2051 11.182 7.59101 11.0834 6.9927C10.9847 6.39438 10.7141 5.8377 10.3045 5.39052C10.2712 5.35418 10.2454 5.31163 10.2286 5.26532C10.2117 5.219 10.2041 5.16982 10.2063 5.12058C10.2085 5.07134 10.2203 5.02301 10.2411 4.97835C10.262 4.93368 10.2914 4.89356 10.3278 4.86027C10.3641 4.82698 10.4066 4.80118 10.453 4.78433C10.4993 4.76748 10.5485 4.75992 10.5977 4.76208C10.6469 4.76424 10.6953 4.77607 10.7399 4.79691C10.7846 4.81775 10.8247 4.84718 10.858 4.88352C11.3657 5.43807 11.7012 6.12835 11.8234 6.87022C11.9457 7.61209 11.8495 8.3735 11.5465 9.06164C11.2436 9.74978 10.747 10.3349 10.1172 10.7457C9.48752 11.1565 8.75188 11.3753 8 11.3753C7.24813 11.3753 6.51249 11.1565 5.88277 10.7457C5.25304 10.3349 4.75644 9.74978 4.45348 9.06164C4.15053 8.3735 4.05432 7.61209 4.17657 6.87022C4.29882 6.12835 4.63426 5.43807 5.142 4.88352C5.17528 4.8472 5.2154 4.81779 5.26005 4.79697C5.3047 4.77616 5.35302 4.76434 5.40224 4.76221C5.45146 4.76007 5.50061 4.76765 5.5469 4.78452C5.59319 4.80139 5.6357 4.82722 5.672 4.86052Z" fill="#68CFF7"/>
</svg>
