<svg width="16" height="12" viewBox="0 0 16 12" fill="none" xmlns="http://www.w3.org/2000/svg">
<path d="M15.75 10.375H15.25V7.375C15.2498 7.24244 15.1971 7.11536 15.1034 7.02163C15.0096 6.9279 14.8826 6.87517 14.75 6.875H13.25C13.1174 6.87517 12.9904 6.9279 12.8966 7.02163C12.8029 7.11536 12.7502 7.24244 12.75 7.375V10.375H12.25V3.625C12.2498 3.49244 12.1971 3.36536 12.1034 3.27163C12.0096 3.1779 11.8826 3.12517 11.75 3.125H10.25C10.1174 3.12517 9.99036 3.1779 9.89663 3.27163C9.8029 3.36536 9.75016 3.49244 9.75 3.625V10.375H9.25V0.625C9.24984 0.492443 9.1971 0.365362 9.10337 0.271629C9.00964 0.177897 8.88256 0.125165 8.75 0.125H7.25C7.11744 0.125165 6.99036 0.177897 6.89663 0.271629C6.8029 0.365362 6.75017 0.492443 6.75 0.625V10.375H6.25V4.875C6.24983 4.74244 6.1971 4.61536 6.10337 4.52163C6.00964 4.4279 5.88256 4.37517 5.75 4.375H4.25C4.11744 4.37517 3.99036 4.4279 3.89663 4.52163C3.8029 4.61536 3.75017 4.74244 3.75 4.875V10.375H3.25V8.625C3.24983 8.49244 3.1971 8.36536 3.10337 8.27163C3.00964 8.1779 2.88256 8.12516 2.75 8.125H1.25C1.11744 8.12516 0.990362 8.1779 0.896629 8.27163C0.802897 8.36536 0.750165 8.49244 0.75 8.625V10.375H0.25C0.183696 10.375 0.120107 10.4013 0.0732233 10.4482C0.0263392 10.4951 0 10.5587 0 10.625C0 10.6913 0.0263392 10.7549 0.0732233 10.8018C0.120107 10.8487 0.183696 10.875 0.25 10.875H15.75C15.8163 10.875 15.8799 10.8487 15.9268 10.8018C15.9737 10.7549 16 10.6913 16 10.625C16 10.5587 15.9737 10.4951 15.9268 10.4482C15.8799 10.4013 15.8163 10.375 15.75 10.375ZM2.75 10.375H1.25V8.625H2.75V10.375ZM5.75 10.375H4.25V4.875H5.75V10.375ZM8.75 10.375H7.25V0.625H8.75V10.375ZM11.75 10.375H10.25V3.625H11.75V10.375ZM14.75 10.375H13.25V7.375H14.75V10.375ZM13.375 11.875C13.4413 11.875 13.5049 11.8487 13.5518 11.8018C13.5987 11.7549 13.625 11.6913 13.625 11.625C13.625 11.5587 13.5987 11.4951 13.5518 11.4482C13.5049 11.4013 13.4413 11.375 13.375 11.375H2.625C2.5587 11.375 2.49511 11.4013 2.44822 11.4482C2.40134 11.4951 2.375 11.5587 2.375 11.625C2.375 11.6913 2.40134 11.7549 2.44822 11.8018C2.49511 11.8487 2.5587 11.875 2.625 11.875H13.375Z" fill="#68CFF7"/>
<path d="M10.1302 2.16171C10.1706 2.20952 10.2274 2.24044 10.2895 2.24836C10.3515 2.25628 10.4143 2.24062 10.4654 2.20448C10.5164 2.16834 10.5521 2.11435 10.5653 2.0532C10.5784 1.99204 10.5682 1.92816 10.5365 1.87421H11C11.0663 1.87421 11.1299 1.84787 11.1768 1.80098C11.2237 1.7541 11.25 1.69051 11.25 1.62421C11.25 1.5579 11.2237 1.49432 11.1768 1.44743C11.1299 1.40055 11.0663 1.37421 11 1.37421H10.5364C10.5679 1.32027 10.578 1.25649 10.5648 1.19545C10.5516 1.1344 10.516 1.08052 10.465 1.04443C10.414 1.00835 10.3514 0.992669 10.2894 1.00049C10.2274 1.00832 10.1707 1.03908 10.1302 1.08671L9.80987 1.46171C9.77114 1.50699 9.74986 1.56462 9.74986 1.62421C9.74986 1.6838 9.77114 1.74142 9.80987 1.78671L10.1302 2.16171ZM5 1.87421H5.46362C5.43213 1.92815 5.42199 1.99193 5.4352 2.05297C5.44842 2.11402 5.48402 2.16789 5.535 2.20398C5.58598 2.24007 5.64863 2.25575 5.71059 2.24792C5.77256 2.2401 5.82934 2.20934 5.86975 2.16171L6.19012 1.78671C6.22886 1.74142 6.25014 1.6838 6.25014 1.62421C6.25014 1.56462 6.22886 1.50699 6.19012 1.46171L5.86975 1.08671C5.8294 1.0389 5.77257 1.00798 5.71052 1.00006C5.64846 0.992137 5.58569 1.00779 5.53462 1.04393C5.48356 1.08007 5.44791 1.13406 5.43474 1.19522C5.42157 1.25638 5.43184 1.32025 5.4635 1.37421H5C4.9337 1.37421 4.87011 1.40055 4.82322 1.44743C4.77634 1.49432 4.75 1.5579 4.75 1.62421C4.75 1.69051 4.77634 1.7541 4.82322 1.80098C4.87011 1.84787 4.9337 1.87421 5 1.87421Z" fill="#68CFF7"/>
</svg>
