<svg width="16" height="16" viewBox="0 0 16 16" fill="none" xmlns="http://www.w3.org/2000/svg">
<g clip-path="url(#clip0_3147_16878)">
<path d="M14.3255 11.8963C14.0485 11.6903 13.657 11.7478 13.451 12.0247C13.3371 12.1777 13.2169 12.3258 13.0906 12.4688C12.862 12.7273 12.8863 13.1223 13.1448 13.351C13.2589 13.4521 13.4061 13.5079 13.5586 13.5077C13.7314 13.5077 13.9036 13.4364 14.0271 13.2967C14.1766 13.1274 14.319 12.952 14.4539 12.7708C14.6599 12.4938 14.6024 12.1023 14.3255 11.8963ZM15.3707 8.96519C15.0337 8.89178 14.7005 9.10569 14.6271 9.44294C14.5865 9.62909 14.5381 9.81343 14.4819 9.99547C14.38 10.3253 14.5647 10.6752 14.8945 10.7771C14.956 10.7961 15.0181 10.8051 15.0793 10.8051C15.3461 10.8051 15.5933 10.6328 15.6762 10.3644C15.7429 10.1484 15.8004 9.9297 15.8485 9.70881C15.9219 9.37156 15.708 9.03863 15.3707 8.96519ZM11.3171 13.8979C11.1506 13.9908 10.9803 14.0767 10.8065 14.1552C10.4919 14.2973 10.3521 14.6675 10.4941 14.9821C10.5985 15.2132 10.826 15.35 11.0641 15.35C11.1501 15.35 11.2375 15.3321 11.321 15.2944C11.527 15.2013 11.7291 15.0995 11.9265 14.9893C12.2279 14.8211 12.3358 14.4403 12.1675 14.1389C11.9993 13.8376 11.6185 13.7297 11.3171 13.8979ZM7.37528 3V7.74113L5.08344 10.0329C4.83938 10.277 4.83938 10.6728 5.08344 10.9168C5.14141 10.9749 5.2103 11.021 5.28615 11.0525C5.362 11.0839 5.44331 11.1 5.52541 11.0999C5.6075 11.1 5.68881 11.0839 5.76465 11.0524C5.8405 11.021 5.90939 10.9749 5.96738 10.9168L8.44225 8.44194C8.55945 8.32472 8.62528 8.16575 8.62528 8V3C8.62528 2.65481 8.34547 2.375 8.00028 2.375C7.65509 2.375 7.37528 2.65481 7.37528 3Z" fill="#68CFF7"/>
<path d="M15.375 1.34375C15.0298 1.34375 14.75 1.62356 14.75 1.96875V3.70425C13.2952 1.42275 10.7547 0 8 0C5.86312 0 3.85416 0.832156 2.34313 2.34313C0.832156 3.85416 0 5.86312 0 8C0 10.1369 0.832156 12.1458 2.34313 13.6569C3.85416 15.1678 5.86312 16 8 16C8.00528 16 8.01038 15.9993 8.01562 15.9992C8.02087 15.9993 8.02597 16 8.03125 16C8.2565 16 8.48397 15.9905 8.70741 15.9718C9.05137 15.943 9.30687 15.6408 9.27809 15.2968C9.24925 14.9529 8.94747 14.6973 8.60309 14.7262C8.41422 14.742 8.22184 14.75 8.03125 14.75C8.02597 14.75 8.02087 14.7507 8.01562 14.7508C8.01038 14.7507 8.00528 14.75 8 14.75C4.27803 14.75 1.25 11.722 1.25 8C1.25 4.27803 4.27803 1.25 8 1.25C10.3987 1.25 12.6049 2.52853 13.8105 4.5625H12.092C11.7468 4.5625 11.467 4.84231 11.467 5.1875C11.467 5.53269 11.7468 5.8125 12.092 5.8125H14C14.367 5.81293 14.7269 5.71176 15.0399 5.52022C15.0592 5.50923 15.078 5.49721 15.096 5.48422C15.64 5.12637 16 4.51084 16 3.8125V1.96875C16 1.62356 15.7202 1.34375 15.375 1.34375Z" fill="#68CFF7"/>
</g>
<defs>
<clipPath id="clip0_3147_16878">
<rect width="16" height="16" fill="white"/>
</clipPath>
</defs>
</svg>
